<?xml version="1.0" encoding="utf-8"?>
<!-- Generator: Adobe Illustrator 15.0.0, SVG Export Plug-In . SVG Version: 6.00 Build 0)  -->
<!DOCTYPE svg PUBLIC "-//W3C//DTD SVG 1.1//EN" "http://www.w3.org/Graphics/SVG/1.1/DTD/svg11.dtd">
<svg version="1.1" id="レイヤー_1" xmlns="http://www.w3.org/2000/svg" xmlns:xlink="http://www.w3.org/1999/xlink" x="0px"
	 y="0px" width="841.89px" height="595.28px" viewBox="0 0 841.89 595.28" enable-background="new 0 0 841.89 595.28"
	 xml:space="preserve">
<g>
	<defs>
		<rect id="SVGID_1_" x="648.585" y="238.862" width="161.689" height="129.392"/>
	</defs>
	<clipPath id="SVGID_2_">
		<use xlink:href="#SVGID_1_"  overflow="visible"/>
	</clipPath>
	<g clip-path="url(#SVGID_2_)">
		<path fill="#C8C9CA" stroke="#595757" stroke-width="1.5967" stroke-miterlimit="10" d="M729.469,354.097
			c13.229,0,30.604-9.921,34.012-22.115c1.47-5.282,5.065-20.849-5.204-18.955c-7.808,1.438-16.102,2.813-28.814,2.813
			c-12.714,0-21.518-1.451-28.81-2.813c-10.266-1.918-6.678,13.673-5.202,18.955c3.406,12.194,20.781,22.115,34.012,22.115"/>
		<g opacity="0.75">
			<linearGradient id="SVGID_3_" gradientUnits="userSpaceOnUse" x1="693.7471" y1="293.1245" x2="645.926" y2="369.6542">
				<stop  offset="0" style="stop-color:#E95513;stop-opacity:0.35"/>
				<stop  offset="0.5495" style="stop-color:#F5B497;stop-opacity:0.7071"/>
				<stop  offset="1" style="stop-color:#FFFFFF"/>
			</linearGradient>
			<path fill="url(#SVGID_3_)" d="M729.462,393.107v-77.666c-47.904,0-62.15-22.244-142.219-9.017
				C613.444,357.944,667.703,393.107,729.462,393.107z"/>
			
				<linearGradient id="SVGID_4_" gradientUnits="userSpaceOnUse" x1="214.3696" y1="293.1235" x2="166.5486" y2="369.6533" gradientTransform="matrix(-1 0 0 1 979.5469 0)">
				<stop  offset="0" style="stop-color:#009FE8;stop-opacity:0.35"/>
				<stop  offset="0.5819" style="stop-color:#97D8F6;stop-opacity:0.7282"/>
				<stop  offset="1" style="stop-color:#FFFFFF"/>
			</linearGradient>
			<path fill="url(#SVGID_4_)" d="M729.462,393.107v-77.666c47.904,0,62.152-22.244,142.221-9.017
				C845.479,357.944,791.219,393.107,729.462,393.107z"/>
		</g>
		<path fill="none" stroke="#231815" stroke-width="1.5967" stroke-miterlimit="10" d="M871.683,306.428
			c-80.068-13.233-94.316,9.412-142.221,9.412c-47.907,0-62.154-22.646-142.219-9.412"/>
		<path fill="none" stroke="#231815" stroke-width="1.1976" stroke-linecap="round" stroke-miterlimit="10" d="M697.378,311.854
			c-4.591-49.123,13.129-56.716,29.398-59.058"/>
		<path fill="none" stroke="#231815" stroke-width="1.1976" stroke-linecap="round" stroke-miterlimit="10" d="M761.55,311.854
			c4.589-49.123-13.135-56.712-29.4-59.056"/>
		<g>
			<path fill="none" stroke="#231815" stroke-width="1.7983" stroke-miterlimit="10" d="M736.997,315.274
				c1.823-7.967,6.815-4.992,10.845-17.088c2.656-7.975-5.088-19-9.597-8.54"/>
			<path fill="none" stroke="#231815" stroke-width="1.7983" stroke-miterlimit="10" d="M722.158,315.274
				c-1.821-7.967-6.813-4.992-10.845-17.088c-2.654-7.975,5.088-19,9.597-8.54"/>
		</g>
		<g>
			<circle fill="#FFFFFF" stroke="#231815" stroke-width="1.2847" stroke-miterlimit="10" cx="731.864" cy="286.074" r="5.133"/>
			<circle fill="#FFFFFF" stroke="#231815" stroke-width="1.2847" stroke-miterlimit="10" cx="735.725" cy="297.28" r="5.132"/>
			<circle fill="#FFFFFF" stroke="#231815" stroke-width="1.2847" stroke-miterlimit="10" cx="735.725" cy="289.296" r="5.132"/>
			<path fill="#FFFFFF" stroke="#231815" stroke-width="1.2847" stroke-miterlimit="10" d="M726.73,291.204
				c0,2.836-2.298,5.133-5.133,5.133c-2.831,0-5.131-2.297-5.131-5.133c0-2.832,2.3-5.13,5.131-5.13
				C724.433,286.074,726.73,288.372,726.73,291.204z"/>
			<circle fill="#FFFFFF" stroke="#231815" stroke-width="1.2847" stroke-miterlimit="10" cx="725.46" cy="286.074" r="5.133"/>
			<circle fill="#FFFFFF" stroke="#231815" stroke-width="1.2847" stroke-miterlimit="10" cx="731.306" cy="301.601" r="5.133"/>
			<circle fill="#FFFFFF" stroke="#231815" stroke-width="1.2847" stroke-miterlimit="10" cx="722.492" cy="299.386" r="5.132"/>
			<path fill="#FFFFFF" stroke="#231815" stroke-width="1.2847" stroke-miterlimit="10" d="M732.754,294.251
				c0,2.836-2.295,5.131-5.133,5.131c-2.832,0-5.132-2.295-5.132-5.131c0-2.832,2.3-5.131,5.132-5.131
				C730.459,289.12,732.754,291.419,732.754,294.251z"/>
		</g>
	</g>
</g>
<g>
	<defs>
		<rect id="SVGID_5_" x="461.13" y="238.862" width="161.689" height="129.392"/>
	</defs>
	<clipPath id="SVGID_6_">
		<use xlink:href="#SVGID_5_"  overflow="visible"/>
	</clipPath>
	<g clip-path="url(#SVGID_6_)">
		<path opacity="0.8" fill="#DBDCDC" stroke="#595757" stroke-width="0.3992" stroke-miterlimit="10" d="M541.975,315.386
			c-32.968,0-49.997-10.537-83.517-12.793l0.003-0.032c16.675,2.611,28.879,18.625,37.775,24.97
			c11.727,8.36,21.357,24.969,45.738,24.969"/>
		<path opacity="0.8" fill="#DBDCDC" stroke="#595757" stroke-width="0.3992" stroke-miterlimit="10" d="M542.037,315.386
			c32.97,0,49.999-10.537,83.517-12.793l-0.003-0.032c-16.673,2.611-28.878,18.625-37.775,24.97
			c-11.727,8.36-21.357,24.969-45.738,24.969"/>
		<path fill="#C8C9CA" stroke="#595757" stroke-width="1.5967" stroke-miterlimit="10" d="M542.037,354.389
			c17.754,0,27.081-11.942,41.759-23.161c14.387-10.994,5.914-23.009-9.428-19.343c-9.184,2.195-20.768,3.501-32.331,3.501h-0.029
			h-0.033c-11.563,0-23.147-1.306-32.329-3.501c-15.346-3.666-23.814,8.349-9.429,19.343c14.678,11.219,24.004,23.161,41.758,23.161
			"/>
		<g opacity="0.75">
			
				<linearGradient id="SVGID_7_" gradientUnits="userSpaceOnUse" x1="720.9053" y1="293.124" x2="673.0851" y2="369.6523" gradientTransform="matrix(-1 0 0 1 1298.5957 0)">
				<stop  offset="0" style="stop-color:#E95513;stop-opacity:0.35"/>
				<stop  offset="0.5495" style="stop-color:#F5B497;stop-opacity:0.7071"/>
				<stop  offset="1" style="stop-color:#FFFFFF"/>
			</linearGradient>
			<path fill="url(#SVGID_7_)" d="M541.975,393.107v-77.665c47.904,0,62.152-22.248,142.221-9.016
				C657.992,357.941,603.731,393.107,541.975,393.107z"/>
			
				<linearGradient id="SVGID_8_" gradientUnits="userSpaceOnUse" x1="187.2095" y1="293.1245" x2="139.3892" y2="369.653" gradientTransform="matrix(1 0 0 1 319.0488 0)">
				<stop  offset="0" style="stop-color:#009FE8;stop-opacity:0.35"/>
				<stop  offset="0.5819" style="stop-color:#97D8F6;stop-opacity:0.7282"/>
				<stop  offset="1" style="stop-color:#FFFFFF"/>
			</linearGradient>
			<path fill="url(#SVGID_8_)" d="M541.975,393.107v-77.665c-47.903,0-62.15-22.248-142.221-9.016
				C425.957,357.941,480.217,393.107,541.975,393.107z"/>
		</g>
		<path fill="none" stroke="#231815" stroke-width="1.1976" stroke-linecap="round" stroke-miterlimit="10" d="M507.078,311.393
			c-5.606-37.817,11.723-58.852,32.5-58.852"/>
		<g>
			<g>
				<path fill="none" stroke="#231815" stroke-width="1.5967" stroke-miterlimit="10" d="M399.754,306.371
					c80.07-13.228,94.317,9.015,142.221,9.015"/>
			</g>
		</g>
		<path fill="none" stroke="#231815" stroke-width="1.1976" stroke-linecap="round" stroke-miterlimit="10" d="M576.934,311.393
			c5.608-37.817-11.722-58.852-32.498-58.852"/>
		<g>
			<g>
				<path fill="none" stroke="#231815" stroke-width="1.5967" stroke-miterlimit="10" d="M684.195,306.371
					c-80.066-13.228-94.313,9.015-142.221,9.015"/>
			</g>
		</g>
		<g>
			<path fill="none" stroke="#231815" stroke-width="1.8062" stroke-miterlimit="10" d="M546.714,314.828
				c0-7.269,11.616-6.887,15.27-12.934c7.38-12.209-2.03-22.95-11.439-16.788"/>
			<path fill="none" stroke="#231815" stroke-width="1.8062" stroke-miterlimit="10" d="M535.722,314.828
				c0-7.269-11.616-6.887-15.269-12.934c-7.38-12.209,2.028-22.95,11.439-16.788"/>
		</g>
		<g>
			<circle fill="#FFFFFF" stroke="#231815" stroke-width="1.2387" stroke-miterlimit="10" cx="543.212" cy="285.315" r="4.949"/>
			<circle fill="#FFFFFF" stroke="#231815" stroke-width="1.2387" stroke-miterlimit="10" cx="546.934" cy="296.12" r="4.949"/>
			<path fill="#FFFFFF" stroke="#231815" stroke-width="1.2387" stroke-miterlimit="10" d="M551.883,288.425
				c0,2.733-2.216,4.949-4.948,4.949c-2.73,0-4.95-2.216-4.95-4.949c0-2.732,2.22-4.948,4.95-4.948
				C549.667,283.477,551.883,285.692,551.883,288.425z"/>
			<path fill="#FFFFFF" stroke="#231815" stroke-width="1.2387" stroke-miterlimit="10" d="M538.264,290.265
				c0,2.733-2.214,4.949-4.95,4.949c-2.729,0-4.946-2.216-4.946-4.949c0-2.734,2.217-4.949,4.946-4.949
				C536.05,285.315,538.264,287.53,538.264,290.265z"/>
			<circle fill="#FFFFFF" stroke="#231815" stroke-width="1.2387" stroke-miterlimit="10" cx="537.036" cy="285.318" r="4.948"/>
			<circle fill="#FFFFFF" stroke="#231815" stroke-width="1.2387" stroke-miterlimit="10" cx="542.674" cy="300.286" r="4.949"/>
			<circle fill="#FFFFFF" stroke="#231815" stroke-width="1.2387" stroke-miterlimit="10" cx="534.176" cy="298.152" r="4.948"/>
			<circle fill="#FFFFFF" stroke="#231815" stroke-width="1.2387" stroke-miterlimit="10" cx="539.122" cy="293.2" r="4.948"/>
		</g>
	</g>
</g>
<g>
	<g>
		<g>
			<path fill="#F2F2F2" stroke="#000000" stroke-width="0.75" stroke-miterlimit="10" d="M129.885,303.556
				c0-10.137-7.839-19.314-8.641-26.056c-1.839-15.461,18.202-15.461,19.255-31.335c1.397-21.064-9.109-28.14-21.606-29.743
				c-0.893-0.114-1.74-0.167-2.542-0.162c-0.802-0.005-1.649,0.048-2.542,0.162c-12.497,1.603-23.002,8.678-21.606,29.743
				c1.053,15.875,21.094,15.875,19.255,31.335c-0.802,6.742-8.641,15.919-8.641,26.056c0,10.14,7.839,19.318,8.641,26.06
				c1.839,15.46-18.202,15.46-19.255,31.338c-1.396,21.062,9.109,28.138,21.606,29.74c0.893,0.115,1.74,0.168,2.542,0.164
				c0.802,0.004,1.649-0.049,2.542-0.164c12.497-1.603,23.003-8.679,21.606-29.74c-1.053-15.878-21.094-15.878-19.255-31.338
				C122.046,322.874,129.885,313.695,129.885,303.556z"/>
		</g>
		<g>
			<path opacity="0.8" fill="#DBDCDC" stroke="#000000" stroke-width="0.5" stroke-miterlimit="10" d="M116.351,307.31
				c1.321,0,3.418,2.813,5.576,2.397c3.952-0.764,8.112-2.491,8.112-6.147v-0.002c0-3.656-4.161-5.383-8.112-6.148
				c-2.158-0.416-4.255,2.398-5.575,2.398c-1.322,0-3.418-2.814-5.577-2.398c-3.951,0.766-8.112,2.492-8.112,6.148v0.002
				c0,3.656,4.162,5.384,8.112,6.147C112.934,310.123,115.03,307.31,116.351,307.31z"/>
			<path fill="#C8C9CA" stroke="#000000" stroke-width="0.5" stroke-miterlimit="10" d="M125.428,303.56
				c0,1.791-0.825,3.332-1.125,3.888c-0.793,1.472-1.978,2.394-3.135,2.201c-0.732-0.122-2.965-0.418-4.816-0.479
				c-1.853,0.061-4.084,0.356-4.815,0.479c-1.158,0.192-2.342-0.729-3.136-2.201c-0.299-0.556-1.125-2.097-1.125-3.888
				c0-1.793,0.826-3.334,1.125-3.893c0.793-1.47,1.978-2.394,3.135-2.2c0.732,0.123,2.963,0.418,4.815,0.478
				c1.852-0.06,4.084-0.354,4.816-0.478c1.158-0.193,2.342,0.73,3.135,2.2C124.603,300.226,125.428,301.767,125.428,303.56z"/>
			<g>
				<g>
					<g>
						<path fill="none" stroke="#231815" stroke-width="0.5" stroke-miterlimit="10" d="M115.289,302.405
							c-2.158,0-2.797-1.369-2.791-2.561"/>
						<path fill="none" stroke="#231815" stroke-width="0.5" stroke-miterlimit="10" d="M117.414,302.405
							c2.159,0,2.799-1.369,2.792-2.561"/>
						<path fill="none" stroke="#231815" stroke-width="0.5" stroke-miterlimit="10" d="M117.414,304.71
							c2.158,0,2.799,1.369,2.792,2.561"/>
						<path fill="none" stroke="#231815" stroke-width="0.5" stroke-miterlimit="10" d="M115.289,304.71
							c-2.159,0-2.797,1.371-2.791,2.563"/>
					</g>
				</g>
				<g>
					<g>
						<path fill="none" stroke="#231815" stroke-width="0.5" stroke-miterlimit="10" stroke-dasharray="2" d="M120.394,307.764
							c13.78,10.3,23.237,12.371,41.52,18.945"/>
						<path fill="none" stroke="#231815" stroke-width="0.5" stroke-miterlimit="10" stroke-dasharray="2" d="M120.394,307.764
							c14.035,10.479,14.125,21.646,23.132,39.48"/>
					</g>
					<g>
						<path fill="none" stroke="#231815" stroke-width="0.5" stroke-miterlimit="10" stroke-dasharray="2" d="M112.31,307.764
							c-13.78,10.3-23.237,12.371-41.52,18.945"/>
						<path fill="none" stroke="#231815" stroke-width="0.5" stroke-miterlimit="10" stroke-dasharray="2" d="M112.31,307.764
							c-14.034,10.479-14.125,21.646-23.132,39.48"/>
					</g>
					<g>
						<path fill="none" stroke="#231815" stroke-width="0.5" stroke-miterlimit="10" stroke-dasharray="2" d="M120.394,299.353
							c13.78-10.299,23.237-12.371,41.52-18.946"/>
						<path fill="none" stroke="#231815" stroke-width="0.5" stroke-miterlimit="10" stroke-dasharray="2" d="M120.394,299.353
							c14.035-10.479,14.125-21.648,23.132-39.482"/>
					</g>
					<g>
						<path fill="none" stroke="#231815" stroke-width="0.5" stroke-miterlimit="10" stroke-dasharray="2" d="M112.31,299.353
							c-13.78-10.299-23.237-12.371-41.52-18.946"/>
						<path fill="none" stroke="#231815" stroke-width="0.5" stroke-miterlimit="10" stroke-dasharray="2" d="M112.31,299.353
							c-14.034-10.479-14.125-21.648-23.132-39.482"/>
					</g>
				</g>
			</g>
		</g>
		<g>
			<g>
				<g>
					<g opacity="0.5">
						<path opacity="0.33" fill="#ED772C" d="M116.353,390.858c48.215,0,87.3-39.084,87.3-87.301h-87.3"/>
						<path opacity="0.33" fill="#ED772C" d="M116.353,216.257c-48.216,0-87.302,39.086-87.302,87.3h87.302"/>
						<path opacity="0.33" fill="#00B2EC" d="M29.051,303.558c0,48.217,39.085,87.301,87.302,87.301v-87.301"/>
						<path opacity="0.33" fill="#00B2EC" d="M203.653,303.558c0-48.214-39.085-87.3-87.3-87.3v87.3"/>
					</g>
					<circle fill="none" stroke="#231815" stroke-width="0.75" stroke-miterlimit="10" cx="116.353" cy="303.558" r="87.3"/>
				</g>
				<g>
					<g>
						<path fill="#EEEEEF" stroke="#231815" stroke-width="0.5" stroke-miterlimit="10" d="M185.598,332.318l-1.585,4.606
							c0,0,16.641,5.771,17.446,3.423C202.267,337.999,185.598,332.318,185.598,332.318z"/>
						<path fill="#EEEEEF" stroke="#231815" stroke-width="0.5" stroke-miterlimit="10" d="M178.505,329.879l-1.583,4.608
							c0,0,16.638,5.77,17.446,3.421C195.175,335.562,178.505,329.879,178.505,329.879z"/>
						<path fill="#EEEEEF" stroke="#231815" stroke-width="0.5" stroke-miterlimit="10" d="M172.792,328.13l-1.453,4.226
							c0,0,15.257,5.29,15.998,3.137C188.077,333.34,172.792,328.13,172.792,328.13z"/>
						<path fill="#EEEEEF" stroke="#231815" stroke-width="0.5" stroke-miterlimit="10" d="M167.114,326.393l-1.32,3.843
							c0,0,13.874,4.811,14.549,2.853C181.016,331.129,167.114,326.393,167.114,326.393z"/>
						<path fill="#EEEEEF" stroke="#231815" stroke-width="0.5" stroke-miterlimit="10" d="M162.147,325.005l-1.123,3.268
							c0,0,11.802,4.093,12.375,2.429C173.969,329.033,162.147,325.005,162.147,325.005z"/>
					</g>
					<g>
						<path fill="#EEEEEF" stroke="#231815" stroke-width="0.5" stroke-miterlimit="10" d="M157.906,374.98l-4.755,1.979
							c0,0,6.722,16.276,9.146,15.267C164.721,391.219,157.906,374.98,157.906,374.98z"/>
						<path fill="#EEEEEF" stroke="#231815" stroke-width="0.5" stroke-miterlimit="10" d="M155.139,368.33l-4.756,1.979
							c0,0,6.722,16.279,9.147,15.271C161.953,384.57,155.139,368.33,155.139,368.33z"/>
						<path fill="#EEEEEF" stroke="#231815" stroke-width="0.5" stroke-miterlimit="10" d="M152.256,361.406l-4.755,1.98
							c0,0,6.723,16.278,9.146,15.27C159.069,377.648,152.256,361.406,152.256,361.406z"/>
						<path fill="#EEEEEF" stroke="#231815" stroke-width="0.5" stroke-miterlimit="10" d="M149.764,355.977l-4.36,1.814
							c0,0,6.165,14.926,8.386,14C156.013,370.867,149.764,355.977,149.764,355.977z"/>
						<path fill="#EEEEEF" stroke="#231815" stroke-width="0.5" stroke-miterlimit="10" d="M147.287,350.581l-3.966,1.65
							c0,0,5.605,13.572,7.626,12.732C152.969,364.121,147.287,350.581,147.287,350.581z"/>
						<path fill="#EEEEEF" stroke="#231815" stroke-width="0.5" stroke-miterlimit="10" d="M145.012,345.952l-3.373,1.403
							c0,0,4.768,11.545,6.487,10.827C149.845,357.468,145.012,345.952,145.012,345.952z"/>
					</g>
					<g>
						<path fill="#EEEEEF" stroke="#231815" stroke-width="0.5" stroke-miterlimit="10" d="M47.105,332.318l1.584,4.606
							c0,0-16.64,5.771-17.445,3.423C30.437,337.999,47.105,332.318,47.105,332.318z"/>
						<path fill="#EEEEEF" stroke="#231815" stroke-width="0.5" stroke-miterlimit="10" d="M54.199,329.879l1.583,4.608
							c0,0-16.639,5.77-17.446,3.421C37.528,335.562,54.199,329.879,54.199,329.879z"/>
						<path fill="#EEEEEF" stroke="#231815" stroke-width="0.5" stroke-miterlimit="10" d="M59.911,328.13l1.454,4.226
							c0,0-15.257,5.29-15.999,3.137C44.626,333.34,59.911,328.13,59.911,328.13z"/>
						<path fill="#EEEEEF" stroke="#231815" stroke-width="0.5" stroke-miterlimit="10" d="M65.589,326.393l1.32,3.843
							c0,0-13.874,4.811-14.548,2.853C51.688,331.129,65.589,326.393,65.589,326.393z"/>
						<path fill="#EEEEEF" stroke="#231815" stroke-width="0.5" stroke-miterlimit="10" d="M70.556,325.005l1.124,3.268
							c0,0-11.802,4.093-12.375,2.429C58.734,329.033,70.556,325.005,70.556,325.005z"/>
					</g>
					<g>
						<path fill="#EEEEEF" stroke="#231815" stroke-width="0.5" stroke-miterlimit="10" d="M74.797,374.98l4.755,1.979
							c0,0-6.722,16.276-9.146,15.267C67.982,391.219,74.797,374.98,74.797,374.98z"/>
						<path fill="#EEEEEF" stroke="#231815" stroke-width="0.5" stroke-miterlimit="10" d="M77.564,368.33l4.756,1.979
							c0,0-6.721,16.279-9.146,15.271C70.75,384.57,77.564,368.33,77.564,368.33z"/>
						<path fill="#EEEEEF" stroke="#231815" stroke-width="0.5" stroke-miterlimit="10" d="M80.447,361.406l4.756,1.98
							c0,0-6.723,16.278-9.146,15.27C73.634,377.648,80.447,361.406,80.447,361.406z"/>
						<path fill="#EEEEEF" stroke="#231815" stroke-width="0.5" stroke-miterlimit="10" d="M82.938,355.977l4.361,1.814
							c0,0-6.164,14.926-8.386,14C76.691,370.867,82.938,355.977,82.938,355.977z"/>
						<path fill="#EEEEEF" stroke="#231815" stroke-width="0.5" stroke-miterlimit="10" d="M85.416,350.581l3.966,1.65
							c0,0-5.605,13.572-7.625,12.732C79.734,364.121,85.416,350.581,85.416,350.581z"/>
						<path fill="#EEEEEF" stroke="#231815" stroke-width="0.5" stroke-miterlimit="10" d="M87.691,345.952l3.373,1.403
							c0,0-4.769,11.545-6.486,10.827C82.859,357.468,87.691,345.952,87.691,345.952z"/>
					</g>
					<g>
						<path fill="#EEEEEF" stroke="#231815" stroke-width="0.5" stroke-miterlimit="10" d="M185.598,274.801l-1.585-4.606
							c0,0,16.641-5.771,17.446-3.423C202.267,269.118,185.598,274.801,185.598,274.801z"/>
						<path fill="#EEEEEF" stroke="#231815" stroke-width="0.5" stroke-miterlimit="10" d="M178.505,277.238l-1.583-4.608
							c0,0,16.638-5.77,17.446-3.421C195.175,271.558,178.505,277.238,178.505,277.238z"/>
						<path fill="#EEEEEF" stroke="#231815" stroke-width="0.5" stroke-miterlimit="10" d="M172.792,278.989l-1.453-4.226
							c0,0,15.257-5.29,15.998-3.138C188.077,273.78,172.792,278.989,172.792,278.989z"/>
						<path fill="#EEEEEF" stroke="#231815" stroke-width="0.5" stroke-miterlimit="10" d="M167.114,280.725l-1.32-3.841
							c0,0,13.874-4.811,14.549-2.853C181.016,275.99,167.114,280.725,167.114,280.725z"/>
						<path fill="#EEEEEF" stroke="#231815" stroke-width="0.5" stroke-miterlimit="10" d="M162.147,282.112l-1.123-3.266
							c0,0,11.802-4.094,12.375-2.428C173.969,278.084,162.147,282.112,162.147,282.112z"/>
					</g>
					<g>
						<path fill="#EEEEEF" stroke="#231815" stroke-width="0.5" stroke-miterlimit="10" d="M157.906,232.138l-4.755-1.98
							c0,0,6.722-16.277,9.146-15.269C164.721,215.898,157.906,232.138,157.906,232.138z"/>
						<path fill="#EEEEEF" stroke="#231815" stroke-width="0.5" stroke-miterlimit="10" d="M155.139,238.787l-4.756-1.979
							c0,0,6.722-16.279,9.147-15.271C161.953,222.546,155.139,238.787,155.139,238.787z"/>
						<path fill="#EEEEEF" stroke="#231815" stroke-width="0.5" stroke-miterlimit="10" d="M152.256,245.711l-4.755-1.98
							c0,0,6.723-16.277,9.146-15.27C159.069,229.469,152.256,245.711,152.256,245.711z"/>
						<path fill="#EEEEEF" stroke="#231815" stroke-width="0.5" stroke-miterlimit="10" d="M149.764,251.142l-4.36-1.815
							c0,0,6.165-14.926,8.386-14C156.013,236.251,149.764,251.142,149.764,251.142z"/>
						<path fill="#EEEEEF" stroke="#231815" stroke-width="0.5" stroke-miterlimit="10" d="M147.287,256.536l-3.966-1.648
							c0,0,5.605-13.574,7.626-12.734C152.969,242.997,147.287,256.536,147.287,256.536z"/>
						<path fill="#EEEEEF" stroke="#231815" stroke-width="0.5" stroke-miterlimit="10" d="M145.012,261.165l-3.373-1.404
							c0,0,4.768-11.544,6.487-10.827C149.845,249.65,145.012,261.165,145.012,261.165z"/>
					</g>
					<g>
						<path fill="#EEEEEF" stroke="#231815" stroke-width="0.5" stroke-miterlimit="10" d="M47.105,274.801l1.584-4.606
							c0,0-16.64-5.771-17.445-3.423C30.437,269.118,47.105,274.801,47.105,274.801z"/>
						<path fill="#EEEEEF" stroke="#231815" stroke-width="0.5" stroke-miterlimit="10" d="M54.199,277.238l1.583-4.608
							c0,0-16.639-5.77-17.446-3.421S54.199,277.238,54.199,277.238z"/>
						<path fill="#EEEEEF" stroke="#231815" stroke-width="0.5" stroke-miterlimit="10" d="M59.911,278.989l1.454-4.226
							c0,0-15.257-5.29-15.999-3.138C44.626,273.78,59.911,278.989,59.911,278.989z"/>
						<path fill="#EEEEEF" stroke="#231815" stroke-width="0.5" stroke-miterlimit="10" d="M65.589,280.725l1.32-3.841
							c0,0-13.874-4.811-14.548-2.853C51.688,275.99,65.589,280.725,65.589,280.725z"/>
						<path fill="#EEEEEF" stroke="#231815" stroke-width="0.5" stroke-miterlimit="10" d="M70.556,282.112l1.124-3.266
							c0,0-11.802-4.094-12.375-2.428C58.734,278.084,70.556,282.112,70.556,282.112z"/>
					</g>
					<g>
						<path fill="#EEEEEF" stroke="#231815" stroke-width="0.5" stroke-miterlimit="10" d="M74.797,232.138l4.755-1.98
							c0,0-6.722-16.277-9.146-15.269C67.982,215.898,74.797,232.138,74.797,232.138z"/>
						<path fill="#EEEEEF" stroke="#231815" stroke-width="0.5" stroke-miterlimit="10" d="M77.564,238.787l4.756-1.979
							c0,0-6.721-16.279-9.146-15.271C70.75,222.546,77.564,238.787,77.564,238.787z"/>
						<path fill="#EEEEEF" stroke="#231815" stroke-width="0.5" stroke-miterlimit="10" d="M80.447,245.711l4.756-1.98
							c0,0-6.723-16.277-9.146-15.27C73.634,229.469,80.447,245.711,80.447,245.711z"/>
						<path fill="#EEEEEF" stroke="#231815" stroke-width="0.5" stroke-miterlimit="10" d="M82.938,251.142l4.361-1.815
							c0,0-6.164-14.926-8.386-14C76.691,236.251,82.938,251.142,82.938,251.142z"/>
						<path fill="#EEEEEF" stroke="#231815" stroke-width="0.5" stroke-miterlimit="10" d="M85.416,256.536l3.966-1.648
							c0,0-5.605-13.574-7.625-12.734C79.734,242.997,85.416,256.536,85.416,256.536z"/>
						<path fill="#EEEEEF" stroke="#231815" stroke-width="0.5" stroke-miterlimit="10" d="M87.691,261.165l3.373-1.404
							c0,0-4.769-11.544-6.486-10.827C82.859,249.65,87.691,261.165,87.691,261.165z"/>
					</g>
				</g>
			</g>
			<g>
				<circle fill="#FFFFFF" stroke="#231815" stroke-width="0.5" stroke-miterlimit="10" cx="114.965" cy="303.121" r="0.956"/>
				<circle fill="#FFFFFF" stroke="#231815" stroke-width="0.5" stroke-miterlimit="10" cx="117.05" cy="302.402" r="0.955"/>
				<circle fill="#FFFFFF" stroke="#231815" stroke-width="0.5" stroke-miterlimit="10" cx="115.565" cy="302.402" r="0.955"/>
				<circle fill="#FFFFFF" stroke="#231815" stroke-width="0.5" stroke-miterlimit="10" cx="115.92" cy="305.032" r="0.956"/>
				<circle fill="#FFFFFF" stroke="#231815" stroke-width="0.5" stroke-miterlimit="10" cx="114.965" cy="304.312" r="0.956"/>
				<circle fill="#FFFFFF" stroke="#231815" stroke-width="0.5" stroke-miterlimit="10" cx="117.855" cy="303.224" r="0.956"/>
				<circle fill="#FFFFFF" stroke="#231815" stroke-width="0.5" stroke-miterlimit="10" cx="117.443" cy="304.865" r="0.956"/>
				<circle fill="#FFFFFF" stroke="#231815" stroke-width="0.5" stroke-miterlimit="10" cx="116.487" cy="303.91" r="0.956"/>
			</g>
		</g>
	</g>
	<g>
		<g opacity="0.5">
			<path fill="#FFFFFF" stroke="#000000" stroke-width="0.6" stroke-miterlimit="10" d="M401.942,279.259
				c0.544,4.709,3.039,8.38,4.687,8.189c1.65-0.19,1.827-4.169,1.284-8.879c-0.543-4.709-1.601-8.38-3.25-8.19
				C403.014,270.569,401.398,274.549,401.942,279.259z"/>
			<path stroke="#000000" stroke-width="0.0954" stroke-miterlimit="10" d="M401.927,279.066c0.223,3.005,1.336,5.392,2.166,5.33
				c0.827-0.062,1.059-2.549,0.835-5.553c-0.223-3.005-1.022-5.837-1.852-5.775C402.249,273.13,401.704,276.062,401.927,279.066z"/>
			<path stroke="#000000" stroke-width="0.0954" stroke-miterlimit="10" d="M428.453,281.314c-2.535-2.029-6.992-4.563-13.704-7.93
				c-5.953-2.987-12.007-5.128-12.371-5.266c-2.132-0.808-2.491-0.414-3.363,1.522c-0.666,1.48-2.541,2.792-3.361,3.127
				c-1.061,0.434-2.458,0.602-2.539,0.934c-0.051,0.214,1.286,0.27,2.724,0.099c1.125-0.134,3.828-0.867,5.461-1.813
				c2.792-1.617,3.764-1.682,6.407-0.508c2.146,0.955,4.97,2.236,7.931,3.553c3.87,1.723,8.249,4.25,8.249,4.25
				s-3.617,2.474-5.71,3.49c-2.093,1.015-7.181,4.06-16.298,4.68c-0.897,0.061-1.916,1.473,1.565,0.925
				c6.549-1.028,14.227-3.982,18.541-6.558c2.224-1.327,3.11-1.775,3.11-1.775s1.904,1.094,2.98,1.84
				C428.482,282.168,429.541,282.184,428.453,281.314z"/>
			<path fill="none" stroke="#000000" stroke-width="0.2861" stroke-linecap="round" stroke-miterlimit="10" d="M423.252,276.308
				c-2.094-1.083-17.766-9.395-21-10.346"/>
			<path fill="none" stroke="#000000" stroke-width="0.4" stroke-linecap="round" stroke-miterlimit="10" d="M399.326,289.886
				c-0.063-0.952,1.021-2.073,2.509-1.894"/>
		</g>
		<g>
			<defs>
				<rect id="SVGID_9_" x="225.725" y="214.844" width="161.688" height="129.391"/>
			</defs>
			<clipPath id="SVGID_10_">
				<use xlink:href="#SVGID_9_"  overflow="visible"/>
			</clipPath>
			<g clip-path="url(#SVGID_10_)">
				<g>
					<path opacity="0.8" fill="#DBDCDC" stroke="#595757" stroke-width="0.3992" stroke-miterlimit="10" d="M306.571,258.287
						c-7.482,0-19.358-15.929-31.584-13.569c-22.379,4.326-45.947,14.105-45.947,34.82v0.005c0,20.715,23.568,30.495,45.947,34.819
						c12.226,2.361,24.102-13.569,31.582-13.569c7.483,0,19.358,15.931,31.584,13.569c22.38-4.324,45.946-14.104,45.946-34.819
						v-0.005c0-20.715-23.566-30.494-45.946-34.82C325.926,242.358,314.052,258.287,306.571,258.287z"/>
					<path fill="#C8C9CA" stroke="#595757" stroke-width="1.5967" stroke-miterlimit="10" d="M255.162,279.538
						c0-10.149,4.674-18.881,6.372-22.027c4.495-8.338,11.2-13.565,17.756-12.47c4.147,0.693,16.79,2.364,27.28,2.711
						c10.491-0.347,23.134-2.018,27.278-2.711c6.558-1.095,13.261,4.132,17.757,12.47c1.697,3.146,6.371,11.878,6.371,22.027
						c0,10.152-4.674,18.885-6.373,22.036c-4.494,8.333-11.2,13.56-17.755,12.466c-4.146-0.694-16.787-2.363-27.278-2.71
						c-10.49,0.347-23.133,2.016-27.28,2.71c-6.557,1.094-13.261-4.133-17.756-12.466
						C259.835,298.423,255.162,289.689,255.162,279.538z"/>
					<g>
						<path fill="none" stroke="#231815" stroke-width="1.8062" stroke-miterlimit="10" d="M312.589,286.067
							c12.222,0,15.847,7.759,15.809,14.51"/>
						<path fill="none" stroke="#231815" stroke-width="1.8062" stroke-miterlimit="10" d="M300.551,286.069
							c-12.223,0-15.848,7.759-15.809,14.504"/>
						<path fill="none" stroke="#231815" stroke-width="1.8062" stroke-miterlimit="10" d="M300.551,273.01
							c-12.222,0-15.851-7.752-15.809-14.503"/>
						<path fill="none" stroke="#231815" stroke-width="1.8062" stroke-miterlimit="10" d="M312.588,273.014
							c12.226,0,15.849-7.762,15.81-14.512"/>
					</g>
					<g>
						<g>
							<g>
								<g>
									<path fill="none" stroke="#231815" stroke-miterlimit="10" d="M423.474,397.224c-0.279-0.188-0.557-0.374-0.833-0.561"/>
									<path fill="none" stroke="#231815" stroke-miterlimit="10" stroke-dasharray="1.9832,1.9832" d="M420.998,395.552
										c-66.176-44.905-53.475-53.515-89.465-92.676"/>
									<path fill="none" stroke="#231815" stroke-miterlimit="10" d="M330.862,302.148c-0.226-0.243-0.453-0.487-0.682-0.733"/>
								</g>
							</g>
							<g>
								<g>
									<path fill="none" stroke="#231815" stroke-miterlimit="10" d="M328.619,302.708c0.2,0.242,0.41,0.5,0.63,0.773"/>
									<path fill="none" stroke="#231815" stroke-miterlimit="10" stroke-dasharray="2.0195,2.0195" d="M330.499,305.063
										c15.188,19.531,63.125,90.533,80.555,104.736"/>
									<path fill="none" stroke="#231815" stroke-miterlimit="10" d="M411.849,410.424c0.279,0.21,0.55,0.404,0.811,0.58"/>
								</g>
							</g>
						</g>
						<g>
							<g>
								<g>
									<path fill="none" stroke="#231815" stroke-miterlimit="10" d="M189.665,397.224c0.279-0.188,0.556-0.374,0.833-0.561"/>
									<path fill="none" stroke="#231815" stroke-miterlimit="10" stroke-dasharray="1.9833,1.9833" d="M192.14,395.552
										c66.175-44.905,53.477-53.515,89.469-92.676"/>
									<path fill="none" stroke="#231815" stroke-miterlimit="10" d="M282.28,302.148c0.226-0.243,0.453-0.487,0.682-0.733"/>
								</g>
							</g>
							<g>
								<g>
									<path fill="none" stroke="#231815" stroke-miterlimit="10" d="M284.52,302.708c-0.2,0.242-0.41,0.5-0.63,0.773"/>
									<path fill="none" stroke="#231815" stroke-miterlimit="10" stroke-dasharray="2.0194,2.0194" d="M282.64,305.063
										c-15.184,19.531-63.124,90.533-80.55,104.735"/>
									<path fill="none" stroke="#231815" stroke-miterlimit="10" d="M201.295,410.424c-0.279,0.21-0.55,0.403-0.811,0.58"/>
								</g>
							</g>
						</g>
						<g>
							<g>
								<g>
									<path fill="none" stroke="#231815" stroke-miterlimit="10" d="M422.693,161.854c-0.279,0.188-0.557,0.375-0.833,0.561"/>
									<path fill="none" stroke="#231815" stroke-miterlimit="10" stroke-dasharray="1.9832,1.9832" d="M420.218,163.526
										c-66.177,44.906-53.476,53.512-89.465,92.676"/>
									<path fill="none" stroke="#231815" stroke-miterlimit="10" d="M330.082,256.93c-0.226,0.244-0.453,0.488-0.682,0.734"/>
								</g>
							</g>
							<g>
								<g>
									<path fill="none" stroke="#231815" stroke-miterlimit="10" d="M327.838,256.37c0.2-0.242,0.41-0.5,0.63-0.773"/>
									<path fill="none" stroke="#231815" stroke-miterlimit="10" stroke-dasharray="2.0195,2.0195" d="M329.718,254.014
										c15.188-19.531,63.125-90.533,80.555-104.733"/>
									<path fill="none" stroke="#231815" stroke-miterlimit="10" d="M411.067,148.656c0.279-0.21,0.55-0.404,0.811-0.58"/>
								</g>
							</g>
						</g>
						<g>
							<g>
								<g>
									<path fill="none" stroke="#231815" stroke-miterlimit="10" d="M189.665,161.854c0.279,0.188,0.556,0.375,0.833,0.561"/>
									<path fill="none" stroke="#231815" stroke-miterlimit="10" stroke-dasharray="1.9833,1.9833" d="M192.14,163.526
										c66.175,44.906,53.477,53.512,89.469,92.676"/>
									<path fill="none" stroke="#231815" stroke-miterlimit="10" d="M282.28,256.93c0.226,0.244,0.453,0.488,0.682,0.734"/>
								</g>
							</g>
							<g>
								<g>
									<path fill="none" stroke="#231815" stroke-miterlimit="10" d="M284.52,256.37c-0.2-0.242-0.41-0.5-0.63-0.773"/>
									<path fill="none" stroke="#231815" stroke-miterlimit="10" stroke-dasharray="2.0194,2.0194" d="M282.641,254.014
										c-15.185-19.532-63.125-90.532-80.55-104.733"/>
									<path fill="none" stroke="#231815" stroke-miterlimit="10" d="M201.295,148.656c-0.279-0.211-0.55-0.404-0.811-0.581"/>
								</g>
							</g>
						</g>
					</g>
				</g>
				<g opacity="0.75">
					<g>
						<path opacity="0.5" fill="#ED772C" d="M306.568,365.781c47.627,0,86.239-38.609,86.239-86.237h-86.239"/>
						<path opacity="0.5" fill="#ED772C" d="M306.568,193.3c-47.626,0-86.237,38.611-86.237,86.245h86.237"/>
						<path opacity="0.5" fill="#00B2EC" d="M220.331,279.544c0,47.627,38.611,86.237,86.237,86.237v-86.237"/>
						<path opacity="0.5" fill="#00B2EC" d="M392.807,279.544c0-47.633-38.608-86.245-86.239-86.245v86.245"/>
					</g>
					
						<radialGradient id="SVGID_11_" cx="131.6846" cy="270.5576" r="87.4714" gradientTransform="matrix(0 1 -1 0 577.127 147.856)" gradientUnits="userSpaceOnUse">
						<stop  offset="0" style="stop-color:#FFFFFF;stop-opacity:0"/>
						<stop  offset="0.9081" style="stop-color:#FFFFFF;stop-opacity:0.6811"/>
						<stop  offset="1" style="stop-color:#FFFFFF;stop-opacity:0.75"/>
					</radialGradient>
					<path fill="url(#SVGID_11_)" d="M306.571,367.013c-48.313,0-87.472-39.161-87.472-87.473c0-48.309,39.159-87.472,87.472-87.472
						c48.307,0,87.47,39.163,87.47,87.472C394.041,327.852,354.877,367.013,306.571,367.013z"/>
				</g>
				<g>
					<circle fill="#FFFFFF" stroke="#231815" stroke-width="1.2387" stroke-miterlimit="10" cx="314.757" cy="282.916" r="5.412"/>
					<circle fill="#FFFFFF" stroke="#231815" stroke-width="1.2387" stroke-miterlimit="10" cx="302.943" cy="286.988" r="5.412"/>
					<path fill="#FFFFFF" stroke="#231815" stroke-width="1.2387" stroke-miterlimit="10" d="M311.359,292.399
						c-2.991,0-5.415-2.423-5.415-5.411c0-2.985,2.424-5.412,5.415-5.412c2.989,0,5.413,2.427,5.413,5.412
						C316.771,289.977,314.348,292.399,311.359,292.399z"/>
					<circle fill="#FFFFFF" stroke="#231815" stroke-width="1.2387" stroke-miterlimit="10" cx="309.346" cy="272.092" r="5.412"/>
					<path fill="#FFFFFF" stroke="#231815" stroke-width="1.2387" stroke-miterlimit="10" d="M314.757,281.576
						c-2.99,0-5.411-2.424-5.411-5.414c0-2.984,2.421-5.411,5.411-5.411c2.989,0,5.411,2.427,5.411,5.411
						C320.168,279.152,317.746,281.576,314.757,281.576z"/>
					<circle fill="#FFFFFF" stroke="#231815" stroke-width="1.2387" stroke-miterlimit="10" cx="298.384" cy="282.329" r="5.412"/>
					<path fill="#FFFFFF" stroke="#231815" stroke-width="1.2387" stroke-miterlimit="10" d="M300.717,278.447
						c-2.989,0-5.411-2.423-5.411-5.411c0-2.992,2.422-5.414,5.411-5.414c2.991,0,5.413,2.422,5.413,5.414
						C306.13,276.024,303.708,278.447,300.717,278.447z"/>
					<path fill="#FFFFFF" stroke="#231815" stroke-width="1.2387" stroke-miterlimit="10" d="M306.134,283.855
						c-2.992,0-5.413-2.422-5.413-5.41c0-2.989,2.42-5.414,5.413-5.414c2.989,0,5.41,2.425,5.41,5.414
						C311.544,281.434,309.124,283.855,306.134,283.855z"/>
				</g>
			</g>
		</g>
		<g opacity="0.5">
			<path fill="#FFFFFF" stroke="#000000" stroke-width="0.6" stroke-miterlimit="10" d="M305.421,357.649
				c-4.709,0.544-8.38,3.039-8.189,4.688c0.189,1.649,4.169,1.826,8.879,1.283c4.709-0.544,8.38-1.601,8.191-3.251
				C314.111,358.722,310.132,357.106,305.421,357.649z"/>
			<path stroke="#000000" stroke-width="0.0954" stroke-miterlimit="10" d="M305.614,357.635c-3.005,0.224-5.392,1.337-5.331,2.166
				c0.062,0.826,2.549,1.06,5.554,0.835c3.005-0.224,5.836-1.022,5.775-1.853C311.55,357.957,308.619,357.411,305.614,357.635z"/>
			<path stroke="#000000" stroke-width="0.0954" stroke-miterlimit="10" d="M303.365,384.161c2.03-2.535,4.563-6.992,7.931-13.704
				c2.987-5.952,5.128-12.007,5.266-12.37c0.808-2.133,0.413-2.492-1.523-3.363c-1.48-0.667-2.791-2.541-3.127-3.361
				c-0.435-1.061-0.602-2.459-0.934-2.539c-0.214-0.051-0.271,1.286-0.1,2.725c0.134,1.124,0.867,3.828,1.813,5.461
				c1.617,2.792,1.682,3.764,0.508,6.406c-0.955,2.146-2.236,4.971-3.553,7.931c-1.723,3.87-4.251,8.249-4.251,8.249
				s-2.474-3.617-3.49-5.711c-1.015-2.093-4.06-7.18-4.681-16.298c-0.061-0.897-1.473-1.916-0.925,1.564
				c1.028,6.55,3.982,14.227,6.558,18.541c1.328,2.223,1.776,3.109,1.776,3.109s-1.095,1.905-1.84,2.981
				C302.511,384.189,302.496,385.249,303.365,384.161z"/>
			<path fill="none" stroke="#000000" stroke-width="0.2861" stroke-linecap="round" stroke-miterlimit="10" d="M308.373,378.959
				c1.083-2.093,9.395-17.765,10.346-21"/>
			<path fill="none" stroke="#000000" stroke-width="0.4" stroke-linecap="round" stroke-miterlimit="10" d="M294.794,355.034
				c0.951-0.063,2.073,1.021,1.894,2.509"/>
		</g>
	</g>
</g>
</svg>
