<?xml version="1.0" encoding="utf-8"?>
<!-- Generator: Adobe Illustrator 15.0.0, SVG Export Plug-In . SVG Version: 6.00 Build 0)  -->
<!DOCTYPE svg PUBLIC "-//W3C//DTD SVG 1.1//EN" "http://www.w3.org/Graphics/SVG/1.1/DTD/svg11.dtd">
<svg version="1.1" id="レイヤー_1" xmlns="http://www.w3.org/2000/svg" xmlns:xlink="http://www.w3.org/1999/xlink" x="0px"
	 y="0px" width="841.89px" height="595.28px" viewBox="0 0 841.89 595.28" enable-background="new 0 0 841.89 595.28"
	 xml:space="preserve">
<rect x="45.511" y="169.055" fill="#FFFFFF" width="782.415" height="231.849"/>
<g>
	<g>
		<defs>
			<rect id="SVGID_1_" x="588.545" y="210.294" width="224.907" height="166.047"/>
		</defs>
		<clipPath id="SVGID_2_">
			<use xlink:href="#SVGID_1_"  overflow="visible"/>
		</clipPath>
		<g clip-path="url(#SVGID_2_)">
			<path fill="#C8C9CA" stroke="#595757" stroke-width="2.2211" stroke-miterlimit="10" d="M701.053,356.648
				c18.4,0,42.57-13.8,47.31-30.762c2.044-7.349,7.047-29-7.238-26.366c-10.86,2-22.397,3.913-40.081,3.913
				c-17.685,0-29.93-2.019-40.073-3.913c-14.279-2.668-9.288,19.018-7.236,26.366c4.738,16.962,28.906,30.762,47.31,30.762"/>
			<g opacity="0.75">
				<linearGradient id="SVGID_3_" gradientUnits="userSpaceOnUse" x1="651.3633" y1="271.8364" x2="584.8452" y2="378.2876">
					<stop  offset="0" style="stop-color:#E95513;stop-opacity:0.35"/>
					<stop  offset="0.5495" style="stop-color:#F5B497;stop-opacity:0.7071"/>
					<stop  offset="1" style="stop-color:#FFFFFF"/>
				</linearGradient>
				<path fill="url(#SVGID_3_)" d="M701.043,410.912V302.88c-66.634,0-86.45-30.941-197.824-12.543
					C539.665,362,615.138,410.912,701.043,410.912z"/>
				
					<linearGradient id="SVGID_4_" gradientUnits="userSpaceOnUse" x1="228.8232" y1="271.8354" x2="162.305" y2="378.2868" gradientTransform="matrix(-1 0 0 1 979.5469 0)">
					<stop  offset="0" style="stop-color:#009FE8;stop-opacity:0.35"/>
					<stop  offset="0.5819" style="stop-color:#97D8F6;stop-opacity:0.7282"/>
					<stop  offset="1" style="stop-color:#FFFFFF"/>
				</linearGradient>
				<path fill="url(#SVGID_4_)" d="M701.043,410.912V302.88c66.635,0,86.453-30.941,197.827-12.543
					C862.422,362,786.946,410.912,701.043,410.912z"/>
			</g>
			<path fill="none" stroke="#231815" stroke-width="2.2211" stroke-miterlimit="10" d="M898.87,290.341
				c-111.374-18.407-131.192,13.092-197.827,13.092c-66.638,0-86.455-31.5-197.824-13.092"/>
			<path fill="none" stroke="#231815" stroke-width="1.6658" stroke-linecap="round" stroke-miterlimit="10" d="M656.415,297.891
				c-6.386-68.33,18.263-78.892,40.893-82.15"/>
			<path fill="none" stroke="#231815" stroke-width="1.6658" stroke-linecap="round" stroke-miterlimit="10" d="M745.677,297.891
				c6.383-68.33-18.27-78.886-40.896-82.146"/>
			<g>
				<path fill="none" stroke="#231815" stroke-width="2.5015" stroke-miterlimit="10" d="M711.524,302.646
					c2.536-11.081,9.48-6.943,15.085-23.768c3.694-11.093-7.077-26.429-13.349-11.879"/>
				<path fill="none" stroke="#231815" stroke-width="2.5015" stroke-miterlimit="10" d="M690.884,302.646
					c-2.533-11.081-9.478-6.943-15.084-23.768c-3.692-11.093,7.076-26.429,13.348-11.879"/>
			</g>
			<g>
				<path fill="#FFFFFF" stroke="#231815" stroke-width="1.7871" stroke-miterlimit="10" d="M711.524,262.03
					c0,3.942-3.197,7.14-7.139,7.14c-3.947,0-7.142-3.198-7.142-7.14c0-3.944,3.194-7.14,7.142-7.14
					C708.327,254.89,711.524,258.086,711.524,262.03z"/>
				<circle fill="#FFFFFF" stroke="#231815" stroke-width="1.7871" stroke-miterlimit="10" cx="709.755" cy="277.618" r="7.139"/>
				<circle fill="#FFFFFF" stroke="#231815" stroke-width="1.7871" stroke-miterlimit="10" cx="709.755" cy="266.512" r="7.139"/>
				<path fill="#FFFFFF" stroke="#231815" stroke-width="1.7871" stroke-miterlimit="10" d="M697.244,269.167
					c0,3.944-3.196,7.14-7.14,7.14c-3.938,0-7.137-3.195-7.137-7.14c0-3.941,3.198-7.136,7.137-7.136
					C694.048,262.03,697.244,265.226,697.244,269.167z"/>
				<circle fill="#FFFFFF" stroke="#231815" stroke-width="1.7871" stroke-miterlimit="10" cx="695.477" cy="262.03" r="7.14"/>
				<path fill="#FFFFFF" stroke="#231815" stroke-width="1.7871" stroke-miterlimit="10" d="M710.749,283.626
					c0,3.945-3.197,7.142-7.14,7.142s-7.142-3.197-7.142-7.142c0-3.941,3.199-7.135,7.142-7.135S710.749,279.685,710.749,283.626z"
					/>
				<path fill="#FFFFFF" stroke="#231815" stroke-width="1.7871" stroke-miterlimit="10" d="M698.486,280.546
					c0,3.945-3.194,7.14-7.138,7.14c-3.944,0-7.14-3.195-7.14-7.14c0-3.939,3.195-7.136,7.14-7.136
					C695.292,273.411,698.486,276.607,698.486,280.546z"/>
				<path fill="#FFFFFF" stroke="#231815" stroke-width="1.7871" stroke-miterlimit="10" d="M705.622,273.404
					c0,3.944-3.191,7.137-7.139,7.137c-3.939,0-7.139-3.192-7.139-7.137c0-3.939,3.199-7.138,7.139-7.138
					C702.431,266.267,705.622,269.465,705.622,273.404z"/>
			</g>
		</g>
	</g>
	<g>
		<defs>
			<rect id="SVGID_5_" x="341.095" y="210.294" width="224.908" height="166.047"/>
		</defs>
		<clipPath id="SVGID_6_">
			<use xlink:href="#SVGID_5_"  overflow="visible"/>
		</clipPath>
		<g clip-path="url(#SVGID_6_)">
			<path opacity="0.8" fill="#DBDCDC" stroke="#595757" stroke-width="0.5553" stroke-miterlimit="10" d="M453.55,302.803
				c-45.858,0-69.546-14.658-116.171-17.795l0.004-0.045c23.194,3.632,40.17,25.907,52.545,34.733
				c16.312,11.629,29.708,34.731,63.622,34.731"/>
			<path opacity="0.8" fill="#DBDCDC" stroke="#595757" stroke-width="0.5553" stroke-miterlimit="10" d="M453.637,302.803
				c45.86,0,69.548-14.658,116.17-17.795l-0.004-0.045c-23.191,3.632-40.169,25.907-52.545,34.733
				c-16.312,11.629-29.708,34.731-63.621,34.731"/>
			<path fill="#C8C9CA" stroke="#595757" stroke-width="2.2211" stroke-miterlimit="10" d="M453.637,357.055
				c24.694,0,37.669-16.612,58.085-32.217c20.013-15.293,8.227-32.004-13.114-26.905c-12.773,3.054-28.886,4.87-44.971,4.87h-0.041
				h-0.046c-16.085,0-32.199-1.816-44.971-4.87c-21.345-5.099-33.125,11.612-13.115,26.905
				c20.417,15.604,33.389,32.217,58.085,32.217"/>
			<g opacity="0.75">
				
					<linearGradient id="SVGID_7_" gradientUnits="userSpaceOnUse" x1="795.3662" y1="271.8369" x2="728.8492" y2="378.2864" gradientTransform="matrix(-1 0 0 1 1298.5957 0)">
					<stop  offset="0" style="stop-color:#E95513;stop-opacity:0.35"/>
					<stop  offset="0.5495" style="stop-color:#F5B497;stop-opacity:0.7071"/>
					<stop  offset="1" style="stop-color:#FFFFFF"/>
				</linearGradient>
				<path fill="url(#SVGID_7_)" d="M453.55,410.912V302.881c66.634,0,86.452-30.947,197.826-12.541
					C614.929,361.996,539.451,410.912,453.55,410.912z"/>
				
					<linearGradient id="SVGID_8_" gradientUnits="userSpaceOnUse" x1="84.8208" y1="271.8369" x2="18.3034" y2="378.287" gradientTransform="matrix(1 0 0 1 319.0488 0)">
					<stop  offset="0" style="stop-color:#009FE8;stop-opacity:0.35"/>
					<stop  offset="0.5819" style="stop-color:#97D8F6;stop-opacity:0.7282"/>
					<stop  offset="1" style="stop-color:#FFFFFF"/>
				</linearGradient>
				<path fill="url(#SVGID_8_)" d="M453.55,410.912V302.881c-66.633,0-86.451-30.947-197.828-12.541
					C292.171,361.996,367.645,410.912,453.55,410.912z"/>
			</g>
			<path fill="none" stroke="#231815" stroke-width="1.6658" stroke-linecap="round" stroke-miterlimit="10" d="M405.008,297.248
				c-7.798-52.604,16.306-81.863,45.208-81.863"/>
			<g>
				<g>
					<path fill="none" stroke="#231815" stroke-width="2.2211" stroke-miterlimit="10" d="M255.722,290.263
						c111.376-18.4,131.194,12.54,197.828,12.54"/>
				</g>
			</g>
			<path fill="none" stroke="#231815" stroke-width="1.6658" stroke-linecap="round" stroke-miterlimit="10" d="M502.177,297.248
				c7.801-52.604-16.305-81.863-45.204-81.863"/>
			<g>
				<g>
					<path fill="none" stroke="#231815" stroke-width="2.2211" stroke-miterlimit="10" d="M651.376,290.263
						c-111.371-18.4-131.188,12.54-197.826,12.54"/>
				</g>
			</g>
			<g>
				<path fill="none" stroke="#231815" stroke-width="2.5123" stroke-miterlimit="10" d="M460.142,302.026
					c0-10.11,16.158-9.58,21.24-17.99c10.265-16.983-2.825-31.924-15.912-23.353"/>
				<path fill="none" stroke="#231815" stroke-width="2.5123" stroke-miterlimit="10" d="M444.852,302.026
					c0-10.11-16.158-9.58-21.238-17.99c-10.266-16.983,2.821-31.924,15.912-23.353"/>
			</g>
			<g>
				<circle fill="#FFFFFF" stroke="#231815" stroke-width="1.723" stroke-miterlimit="10" cx="455.271" cy="260.974" r="6.884"/>
				<circle fill="#FFFFFF" stroke="#231815" stroke-width="1.723" stroke-miterlimit="10" cx="460.447" cy="276.003" r="6.884"/>
				<path fill="#FFFFFF" stroke="#231815" stroke-width="1.723" stroke-miterlimit="10" d="M467.331,265.299
					c0,3.803-3.081,6.885-6.882,6.885c-3.799,0-6.887-3.083-6.887-6.885c0-3.801,3.088-6.883,6.887-6.883
					C464.25,258.417,467.331,261.499,467.331,265.299z"/>
				<path fill="#FFFFFF" stroke="#231815" stroke-width="1.723" stroke-miterlimit="10" d="M448.387,267.858
					c0,3.803-3.079,6.885-6.885,6.885c-3.797,0-6.881-3.082-6.881-6.885s3.084-6.884,6.881-6.884
					C445.308,260.974,448.387,264.055,448.387,267.858z"/>
				<path fill="#FFFFFF" stroke="#231815" stroke-width="1.723" stroke-miterlimit="10" d="M453.563,260.979
					c0,3.798-3.079,6.88-6.88,6.88c-3.798,0-6.886-3.082-6.886-6.88c0-3.802,3.088-6.883,6.886-6.883
					C450.483,254.096,453.563,257.176,453.563,260.979z"/>
				<circle fill="#FFFFFF" stroke="#231815" stroke-width="1.723" stroke-miterlimit="10" cx="454.522" cy="281.799" r="6.884"/>
				<circle fill="#FFFFFF" stroke="#231815" stroke-width="1.723" stroke-miterlimit="10" cx="442.701" cy="278.831" r="6.883"/>
				<path fill="#FFFFFF" stroke="#231815" stroke-width="1.723" stroke-miterlimit="10" d="M456.465,271.943
					c0,3.803-3.08,6.884-6.884,6.884c-3.798,0-6.882-3.082-6.882-6.884c0-3.801,3.084-6.883,6.882-6.883
					C453.385,265.06,456.465,268.142,456.465,271.943z"/>
			</g>
		</g>
	</g>
	<g>
		<defs>
			<rect id="SVGID_9_" x="59.984" y="210.294" width="224.906" height="138.759"/>
		</defs>
		<clipPath id="SVGID_10_">
			<use xlink:href="#SVGID_9_"  overflow="visible"/>
		</clipPath>
		<g clip-path="url(#SVGID_10_)">
			<g>
				<path opacity="0.8" fill="#DBDCDC" stroke="#595757" stroke-width="0.5553" stroke-miterlimit="10" d="M172.44,250.112
					c-10.408,0-26.927-22.157-43.933-18.874c-31.129,6.017-63.912,19.62-63.912,48.434v0.006c0,28.815,32.783,42.417,63.912,48.432
					c17.006,3.285,33.525-18.874,43.929-18.874c10.409,0,26.927,22.159,43.934,18.874c31.13-6.015,63.91-19.617,63.91-48.432v-0.006
					c0-28.814-32.779-42.417-63.91-48.434C199.363,227.955,182.846,250.112,172.44,250.112z"/>
				<path fill="#C8C9CA" stroke="#595757" stroke-width="2.2211" stroke-miterlimit="10" d="M100.932,279.672
					c0-14.118,6.501-26.263,8.863-30.64c6.253-11.598,15.579-18.869,24.699-17.346c5.769,0.964,23.355,3.289,37.946,3.771
					c14.593-0.482,32.179-2.807,37.943-3.771c9.121-1.523,18.446,5.748,24.7,17.346c2.36,4.376,8.862,16.521,8.862,30.64
					c0,14.122-6.501,26.27-8.864,30.65c-6.251,11.592-15.579,18.861-24.697,17.341c-5.768-0.967-23.35-3.288-37.943-3.771
					c-14.591,0.482-32.177,2.804-37.946,3.771c-9.121,1.521-18.446-5.749-24.699-17.341
					C107.432,305.941,100.932,293.793,100.932,279.672z"/>
				<g>
					<path fill="none" stroke="#231815" stroke-width="2.5123" stroke-miterlimit="10" d="M180.811,288.754
						c17.001,0,22.043,10.792,21.99,20.182"/>
					<path fill="none" stroke="#231815" stroke-width="2.5123" stroke-miterlimit="10" d="M164.066,288.757
						c-17.001,0-22.044,10.793-21.989,20.176"/>
					<path fill="none" stroke="#231815" stroke-width="2.5123" stroke-miterlimit="10" d="M164.067,270.592
						c-17.001,0-22.048-10.783-21.99-20.173"/>
					<path fill="none" stroke="#231815" stroke-width="2.5123" stroke-miterlimit="10" d="M180.81,270.598
						c17.005,0,22.046-10.796,21.992-20.186"/>
				</g>
				<g>
					<g>
						<g>
							<g>
								<path fill="none" stroke="#231815" stroke-width="1.391" stroke-miterlimit="10" d="M335.05,443.371
									c-0.386-0.26-0.771-0.519-1.154-0.777"/>
								<path fill="none" stroke="#231815" stroke-width="1.391" stroke-miterlimit="10" stroke-dasharray="2.7586,2.7586" d="
									M331.611,441.049c-92.053-62.464-74.387-74.44-124.445-128.91"/>
								<path fill="none" stroke="#231815" stroke-width="1.391" stroke-miterlimit="10" d="M206.229,311.123
									c-0.313-0.338-0.629-0.679-0.948-1.021"/>
							</g>
						</g>
						<g>
							<g>
								<path fill="none" stroke="#231815" stroke-width="1.391" stroke-miterlimit="10" d="M203.109,311.901
									c0.279,0.337,0.571,0.695,0.876,1.075"/>
								<path fill="none" stroke="#231815" stroke-width="1.391" stroke-miterlimit="10" stroke-dasharray="2.8091,2.8091" d="
									M205.724,315.178c21.125,27.166,87.797,125.917,112.045,145.682"/>
								<path fill="none" stroke="#231815" stroke-width="1.391" stroke-miterlimit="10" d="M318.88,461.731
									c0.389,0.293,0.765,0.563,1.127,0.808"/>
							</g>
						</g>
					</g>
					<g>
						<g>
							<g>
								<path fill="none" stroke="#231815" stroke-width="1.391" stroke-miterlimit="10" d="M9.826,443.371
									c0.386-0.26,0.771-0.519,1.154-0.777"/>
								<path fill="none" stroke="#231815" stroke-width="1.391" stroke-miterlimit="10" stroke-dasharray="2.7587,2.7587" d="
									M13.265,441.049c92.052-62.464,74.389-74.44,124.451-128.91"/>
								<path fill="none" stroke="#231815" stroke-width="1.391" stroke-miterlimit="10" d="M138.652,311.123
									c0.313-0.339,0.629-0.679,0.948-1.021"/>
							</g>
						</g>
						<g>
							<g>
								<path fill="none" stroke="#231815" stroke-width="1.391" stroke-miterlimit="10" d="M141.768,311.901
									c-0.278,0.337-0.571,0.696-0.876,1.075"/>
								<path fill="none" stroke="#231815" stroke-width="1.391" stroke-miterlimit="10" stroke-dasharray="2.809,2.809" d="
									M139.153,315.179c-21.12,27.166-87.798,125.918-112.04,145.682"/>
								<path fill="none" stroke="#231815" stroke-width="1.391" stroke-miterlimit="10" d="M26.004,461.731
									c-0.389,0.293-0.765,0.563-1.127,0.808"/>
							</g>
						</g>
					</g>
					<g>
						<g>
							<g>
								<path fill="none" stroke="#231815" stroke-width="1.391" stroke-miterlimit="10" d="M333.964,115.976
									c-0.386,0.26-0.771,0.519-1.154,0.777"/>
								<path fill="none" stroke="#231815" stroke-width="1.391" stroke-miterlimit="10" stroke-dasharray="2.7587,2.7587" d="
									M330.525,118.299c-92.054,62.464-74.388,74.435-124.446,128.91"/>
								<path fill="none" stroke="#231815" stroke-width="1.391" stroke-miterlimit="10" d="M205.143,248.224
									c-0.313,0.339-0.629,0.679-0.948,1.021"/>
							</g>
						</g>
						<g>
							<g>
								<path fill="none" stroke="#231815" stroke-width="1.391" stroke-miterlimit="10" d="M202.022,247.445
									c0.278-0.337,0.571-0.696,0.876-1.076"/>
								<path fill="none" stroke="#231815" stroke-width="1.391" stroke-miterlimit="10" stroke-dasharray="2.809,2.809" d="
									M204.637,244.168c21.124-27.166,87.797-125.917,112.045-145.679"/>
								<path fill="none" stroke="#231815" stroke-width="1.391" stroke-miterlimit="10" d="M317.793,97.617
									c0.389-0.293,0.765-0.562,1.127-0.807"/>
							</g>
						</g>
					</g>
					<g>
						<g>
							<g>
								<path fill="none" stroke="#231815" stroke-width="1.391" stroke-miterlimit="10" d="M9.826,115.976
									c0.386,0.26,0.771,0.519,1.154,0.777"/>
								<path fill="none" stroke="#231815" stroke-width="1.391" stroke-miterlimit="10" stroke-dasharray="2.7587,2.7587" d="
									M13.265,118.299c92.052,62.464,74.389,74.435,124.451,128.91"/>
								<path fill="none" stroke="#231815" stroke-width="1.391" stroke-miterlimit="10" d="M138.652,248.225
									c0.313,0.338,0.629,0.679,0.948,1.021"/>
							</g>
						</g>
						<g>
							<g>
								<path fill="none" stroke="#231815" stroke-width="1.391" stroke-miterlimit="10" d="M141.768,247.445
									c-0.278-0.337-0.571-0.696-0.876-1.076"/>
								<path fill="none" stroke="#231815" stroke-width="1.391" stroke-miterlimit="10" stroke-dasharray="2.809,2.809" d="
									M139.153,244.168c-21.12-27.166-87.797-125.918-112.04-145.679"/>
								<path fill="none" stroke="#231815" stroke-width="1.391" stroke-miterlimit="10" d="M26.004,97.617
									c-0.389-0.292-0.765-0.562-1.127-0.807"/>
							</g>
						</g>
					</g>
				</g>
			</g>
			<g opacity="0.75">
				<g>
					<linearGradient id="SVGID_11_" gradientUnits="userSpaceOnUse" x1="172.436" y1="339.6582" x2="292.3931" y2="339.6582">
						<stop  offset="1" style="stop-color:#E95513"/>
						<stop  offset="1" style="stop-color:#E95615"/>
						<stop  offset="1" style="stop-color:#EA5B1C"/>
						<stop  offset="1" style="stop-color:#EB6427"/>
						<stop  offset="1" style="stop-color:#EC7038"/>
						<stop  offset="1" style="stop-color:#EF804E"/>
						<stop  offset="1" style="stop-color:#F1936A"/>
						<stop  offset="1" style="stop-color:#F4AB8A"/>
						<stop  offset="1" style="stop-color:#F8C6B0"/>
						<stop  offset="1" style="stop-color:#FBE4D9"/>
						<stop  offset="1" style="stop-color:#FFFFFF"/>
					</linearGradient>
					<path opacity="0.5" fill="url(#SVGID_11_)" d="M172.436,399.635c66.249,0,119.957-53.704,119.957-119.954H172.436"/>
					<linearGradient id="SVGID_12_" gradientUnits="userSpaceOnUse" x1="52.4814" y1="219.6982" x2="172.436" y2="219.6982">
						<stop  offset="1" style="stop-color:#E95513"/>
						<stop  offset="1" style="stop-color:#E95615"/>
						<stop  offset="1" style="stop-color:#EA5B1C"/>
						<stop  offset="1" style="stop-color:#EB6427"/>
						<stop  offset="1" style="stop-color:#EC7038"/>
						<stop  offset="1" style="stop-color:#EF804E"/>
						<stop  offset="1" style="stop-color:#F1936A"/>
						<stop  offset="1" style="stop-color:#F4AB8A"/>
						<stop  offset="1" style="stop-color:#F8C6B0"/>
						<stop  offset="1" style="stop-color:#FBE4D9"/>
						<stop  offset="1" style="stop-color:#FFFFFF"/>
					</linearGradient>
					<path opacity="0.5" fill="url(#SVGID_12_)" d="M172.436,159.716c-66.247,0-119.955,53.708-119.955,119.964h119.955"/>
					<path opacity="0.5" fill="#009FE8" d="M52.481,279.681c0,66.25,53.708,119.954,119.955,119.954V279.681"/>
					<path opacity="0.5" fill="#009FE8" d="M292.393,279.681c0-66.257-53.703-119.964-119.957-119.964v119.964"/>
				</g>
				
					<radialGradient id="SVGID_13_" cx="131.8193" cy="404.6895" r="121.6716" gradientTransform="matrix(0 1 -1 0 577.1279 147.856)" gradientUnits="userSpaceOnUse">
					<stop  offset="0" style="stop-color:#FFFFFF;stop-opacity:0"/>
					<stop  offset="0.9081" style="stop-color:#FFFFFF;stop-opacity:0.6811"/>
					<stop  offset="1" style="stop-color:#FFFFFF;stop-opacity:0.75"/>
				</radialGradient>
				<path fill="url(#SVGID_13_)" d="M172.44,401.349c-67.203,0-121.672-54.474-121.672-121.674
					c0-67.197,54.469-121.672,121.672-121.672c67.193,0,121.668,54.475,121.668,121.672
					C294.109,346.875,239.634,401.349,172.44,401.349z"/>
			</g>
			<g>
				<circle fill="#FFFFFF" stroke="#231815" stroke-width="1.723" stroke-miterlimit="10" cx="183.827" cy="284.372" r="7.528"/>
				<circle fill="#FFFFFF" stroke="#231815" stroke-width="1.723" stroke-miterlimit="10" cx="167.394" cy="290.035" r="7.527"/>
				<path fill="#FFFFFF" stroke="#231815" stroke-width="1.723" stroke-miterlimit="10" d="M179.101,297.562
					c-4.16,0-7.532-3.369-7.532-7.526c0-4.153,3.372-7.528,7.532-7.528c4.158,0,7.528,3.375,7.528,7.528
					C186.629,294.193,183.258,297.562,179.101,297.562z"/>
				<circle fill="#FFFFFF" stroke="#231815" stroke-width="1.723" stroke-miterlimit="10" cx="176.3" cy="269.316" r="7.528"/>
				<path fill="#FFFFFF" stroke="#231815" stroke-width="1.723" stroke-miterlimit="10" d="M183.827,282.507
					c-4.159,0-7.527-3.373-7.527-7.53c0-4.151,3.368-7.527,7.527-7.527c4.158,0,7.527,3.375,7.527,7.527
					C191.354,279.135,187.984,282.507,183.827,282.507z"/>
				<circle fill="#FFFFFF" stroke="#231815" stroke-width="1.723" stroke-miterlimit="10" cx="161.052" cy="283.554" r="7.529"/>
				<path fill="#FFFFFF" stroke="#231815" stroke-width="1.723" stroke-miterlimit="10" d="M164.298,278.154
					c-4.157,0-7.526-3.37-7.526-7.527c0-4.162,3.369-7.531,7.526-7.531c4.161,0,7.529,3.369,7.529,7.531
					C171.827,274.784,168.458,278.154,164.298,278.154z"/>
				<path fill="#FFFFFF" stroke="#231815" stroke-width="1.723" stroke-miterlimit="10" d="M171.833,285.678
					c-4.162,0-7.529-3.369-7.529-7.525c0-4.158,3.367-7.531,7.529-7.531c4.158,0,7.525,3.373,7.525,7.531
					C179.358,282.309,175.991,285.678,171.833,285.678z"/>
			</g>
		</g>
	</g>
	<rect x="354.757" y="183.74" fill="none" width="197.584" height="17.71"/>
	<text transform="matrix(1 0 0 1 385.0669 195.7539)" font-family="'ArialMT'" font-size="14">lateral view of S plane</text>
	<rect x="597.423" y="183.739" fill="none" width="207.151" height="17.711"/>
	<text transform="matrix(1 0 0 1 632.9082 195.7534)" font-family="'ArialMT'" font-size="14">lateral view of T plane</text>
	<rect x="98.643" y="183.739" fill="none" width="147.589" height="17.711"/>
	<text transform="matrix(1 0 0 1 137.0308 195.7539)" font-family="'ArialMT'" font-size="14">aboral view</text>
	<rect x="449.488" y="236.562" fill="none" width="8.121" height="18.836"/>
	<text transform="matrix(1 0 0 1 449.4883 248.5762)" font-family="'ArialMT'" font-size="14">li</text>
	<rect x="397.076" y="221.079" fill="none" width="19.245" height="18.836"/>
	<text transform="matrix(1 0 0 1 397.0762 233.0933)" font-family="'ArialMT'" font-size="14">dc</text>
	<rect x="473.857" y="240.308" fill="none" width="17.83" height="18.836"/>
	<text transform="matrix(1 0 0 1 473.8574 252.3223)" font-family="'ArialMT'" font-size="14">bc</text>
	<rect x="168.377" y="245.98" fill="none" width="8.121" height="18.836"/>
	<text transform="matrix(1 0 0 1 168.377 257.9941)" font-family="'ArialMT'" font-size="14">li</text>
	<rect x="127.433" y="213.849" fill="none" width="15.86" height="18.836"/>
	<text transform="matrix(1 0 0 1 127.4331 225.8628)" font-family="'ArialMT'" font-size="14">cg</text>
	<rect x="205.097" y="261.731" fill="none" width="15.86" height="18.836"/>
	<text transform="matrix(1 0 0 1 205.0972 273.7451)" font-family="'ArialMT'" font-size="14">ba</text>
	<g opacity="0.5">
		<path fill="#FFFFFF" stroke="#000000" stroke-width="0.6677" stroke-miterlimit="10" d="M299.181,278.039
			c0.605,5.24,3.382,9.325,5.215,9.113c1.837-0.211,2.033-4.64,1.429-9.881c-0.605-5.24-1.781-9.325-3.617-9.113
			C300.373,268.369,298.575,272.799,299.181,278.039z"/>
		<path stroke="#000000" stroke-width="0.1061" stroke-miterlimit="10" d="M299.164,277.825c0.248,3.345,1.487,6,2.41,5.931
			c0.92-0.068,1.178-2.836,0.929-6.18c-0.249-3.344-1.138-6.495-2.061-6.426C299.522,271.219,298.915,274.482,299.164,277.825z"/>
		<path stroke="#000000" stroke-width="0.1061" stroke-miterlimit="10" d="M328.682,280.326c-2.821-2.258-7.781-5.076-15.25-8.823
			c-6.624-3.324-13.362-5.708-13.766-5.859c-2.372-0.899-2.772-0.461-3.743,1.694c-0.741,1.647-2.827,3.105-3.74,3.479
			c-1.181,0.483-2.736,0.67-2.825,1.039c-0.057,0.238,1.431,0.301,3.031,0.11c1.251-0.148,4.26-0.965,6.077-2.017
			c3.108-1.8,4.189-1.872,7.13-0.565c2.388,1.063,5.531,2.488,8.826,3.954c4.306,1.917,9.178,4.729,9.178,4.729
			s-4.025,2.754-6.354,3.883c-2.329,1.13-7.991,4.519-18.137,5.208c-0.998,0.069-2.132,1.64,1.741,1.03
			c7.288-1.145,15.831-4.431,20.632-7.297c2.475-1.477,3.461-1.977,3.461-1.977s2.119,1.219,3.316,2.047
			C328.714,281.276,329.893,281.295,328.682,280.326z"/>
		<path fill="none" stroke="#000000" stroke-width="0.3183" stroke-linecap="round" stroke-miterlimit="10" d="M322.894,274.756
			c-2.33-1.205-19.769-10.454-23.369-11.514"/>
		<path fill="none" stroke="#000000" stroke-width="0.4451" stroke-linecap="round" stroke-miterlimit="10" d="M296.27,289.865
			c-0.07-1.06,1.137-2.309,2.792-2.108"/>
	</g>
	<g opacity="0.5">
		<path fill="#FFFFFF" stroke="#000000" stroke-width="0.6677" stroke-miterlimit="10" d="M171.344,362.197
			c-5.24,0.605-9.325,3.382-9.113,5.217c0.211,1.835,4.64,2.032,9.881,1.427c5.241-0.604,9.326-1.78,9.115-3.617
			C181.015,363.391,176.586,361.594,171.344,362.197z"/>
		<path stroke="#000000" stroke-width="0.1061" stroke-miterlimit="10" d="M171.559,362.181c-3.344,0.25-6,1.488-5.932,2.41
			c0.069,0.92,2.836,1.18,6.181,0.93c3.344-0.249,6.495-1.138,6.426-2.062C178.165,362.54,174.902,361.932,171.559,362.181z"/>
		<path stroke="#000000" stroke-width="0.1061" stroke-miterlimit="10" d="M169.057,391.7c2.259-2.822,5.078-7.781,8.825-15.25
			c3.323-6.624,5.706-13.361,5.859-13.766c0.899-2.374,0.459-2.773-1.694-3.742c-1.648-0.742-3.106-2.828-3.48-3.741
			c-0.483-1.181-0.669-2.736-1.039-2.825c-0.239-0.057-0.301,1.431-0.11,3.031c0.148,1.252,0.965,4.261,2.017,6.077
			c1.799,3.106,1.872,4.188,0.565,7.13c-1.063,2.388-2.488,5.53-3.954,8.824c-1.917,4.307-4.73,9.18-4.73,9.18
			s-2.753-4.025-3.884-6.355c-1.129-2.328-4.518-7.989-5.208-18.136c-0.067-0.999-1.639-2.132-1.029,1.741
			c1.144,7.288,4.431,15.831,7.297,20.632c1.477,2.474,1.976,3.46,1.976,3.46s-1.218,2.12-2.047,3.318
			C168.106,391.73,168.089,392.91,169.057,391.7z"/>
		<path fill="none" stroke="#000000" stroke-width="0.3183" stroke-linecap="round" stroke-miterlimit="10" d="M174.629,385.91
			c1.205-2.328,10.454-19.768,11.512-23.368"/>
		<path fill="none" stroke="#000000" stroke-width="0.4451" stroke-linecap="round" stroke-miterlimit="10" d="M159.519,359.287
			c1.059-0.07,2.307,1.136,2.107,2.792"/>
	</g>
	<rect x="181.235" y="365.371" fill="none" width="26.859" height="17.71"/>
	<text transform="matrix(1 0 0 1 189.9956 377.3848)" font-family="'ArialMT'" font-size="14">S</text>
	<rect x="295.855" y="246.543" fill="none" width="26.859" height="17.71"/>
	<text transform="matrix(1 0 0 1 305.0083 258.5571)" font-family="'ArialMT'" font-size="14">T</text>
	<g>
		<rect x="568.817" y="213.165" fill="none" width="16.523" height="14.461"/>
		<text transform="matrix(1 0 0 1 572.4541 225.1792)" font-family="'ArialMT'" font-size="14">A</text>
		<rect x="564.641" y="251.618" fill="none" width="24.877" height="15.047"/>
		<text transform="matrix(1 0 0 1 571.6777 263.6323)" font-family="'ArialMT'" font-size="14">O</text>
		
			<line fill="none" stroke="#000000" stroke-width="2" stroke-miterlimit="10" x1="577.079" y1="229.27" x2="577.079" y2="249.979"/>
	</g>
	<rect x="254.468" y="221.079" fill="none" width="22.794" height="18.836"/>
	<text transform="matrix(1 0 0 1 258.5864 233.0928)" fill="#808080" font-family="'ArialMT'" font-size="14">Q1</text>
	<rect x="68.578" y="221.079" fill="none" width="22.794" height="18.836"/>
	<text transform="matrix(1 0 0 1 68.5776 233.0928)" fill="#808080" font-family="'ArialMT'" font-size="14">Q2</text>
	<rect x="68.578" y="326.056" fill="none" width="22.794" height="18.837"/>
	<text transform="matrix(1 0 0 1 68.5776 338.0703)" fill="#808080" font-family="'ArialMT'" font-size="14">Q3</text>
	<rect x="254.468" y="326.056" fill="none" width="22.794" height="18.838"/>
	<text transform="matrix(1 0 0 1 258.5864 338.0703)" fill="#808080" font-family="'ArialMT'" font-size="14">Q4</text>
	<rect x="345.894" y="352.66" fill="none" width="22.795" height="18.837"/>
	<text transform="matrix(1 0 0 1 347.9536 364.6748)" fill="#808080" font-family="'ArialMT'" font-size="14">Q3</text>
	<rect x="539.651" y="352.66" fill="none" width="22.794" height="18.837"/>
	<text transform="matrix(1 0 0 1 541.7109 364.6748)" fill="#808080" font-family="'ArialMT'" font-size="14">Q4</text>
	<rect x="786.196" y="352.66" fill="none" width="22.795" height="18.837"/>
	<text transform="matrix(1 0 0 1 788.2559 364.6748)" fill="#808080" font-family="'ArialMT'" font-size="14">Q1</text>
	<rect x="590.696" y="353.123" fill="none" width="22.795" height="18.838"/>
	<text transform="matrix(1 0 0 1 592.7559 365.1377)" fill="#808080" font-family="'ArialMT'" font-size="14">Q4</text>
</g>
</svg>
