<?xml version="1.0" encoding="utf-8"?>
<!-- Generator: Adobe Illustrator 15.0.0, SVG Export Plug-In . SVG Version: 6.00 Build 0)  -->
<!DOCTYPE svg PUBLIC "-//W3C//DTD SVG 1.1//EN" "http://www.w3.org/Graphics/SVG/1.1/DTD/svg11.dtd">
<svg version="1.1" id="レイヤー_1" xmlns="http://www.w3.org/2000/svg" xmlns:xlink="http://www.w3.org/1999/xlink" x="0px"
	 y="0px" width="841.89px" height="595.28px" viewBox="0 0 841.89 595.28" enable-background="new 0 0 841.89 595.28"
	 xml:space="preserve">
<g>
	<defs>
		<rect id="SVGID_1_" x="591.093" y="211.218" width="224.907" height="166.047"/>
	</defs>
	<clipPath id="SVGID_2_">
		<use xlink:href="#SVGID_1_"  overflow="visible"/>
	</clipPath>
	<g clip-path="url(#SVGID_2_)">
		<path fill="#C8C9CA" stroke="#595757" stroke-width="2.2211" stroke-miterlimit="10" d="M703.601,357.572
			c18.4,0,42.57-13.8,47.31-30.762c2.044-7.349,7.047-29-7.238-26.366c-10.86,2-22.397,3.913-40.081,3.913
			c-17.685,0-29.93-2.019-40.073-3.913c-14.279-2.668-9.288,19.018-7.236,26.366c4.738,16.962,28.906,30.762,47.31,30.762"/>
		<g opacity="0.75">
			<linearGradient id="SVGID_3_" gradientUnits="userSpaceOnUse" x1="653.9111" y1="272.7603" x2="587.3929" y2="379.2116">
				<stop  offset="0" style="stop-color:#E95513;stop-opacity:0.35"/>
				<stop  offset="0.5495" style="stop-color:#F5B497;stop-opacity:0.7071"/>
				<stop  offset="1" style="stop-color:#FFFFFF"/>
			</linearGradient>
			<path fill="url(#SVGID_3_)" d="M703.591,411.836V303.804c-66.634,0-86.45-30.941-197.824-12.543
				C542.213,362.924,617.686,411.836,703.591,411.836z"/>
			
				<linearGradient id="SVGID_4_" gradientUnits="userSpaceOnUse" x1="226.2754" y1="272.7593" x2="159.7572" y2="379.2106" gradientTransform="matrix(-1 0 0 1 979.5469 0)">
				<stop  offset="0" style="stop-color:#009FE8;stop-opacity:0.35"/>
				<stop  offset="0.5819" style="stop-color:#97D8F6;stop-opacity:0.7282"/>
				<stop  offset="1" style="stop-color:#FFFFFF"/>
			</linearGradient>
			<path fill="url(#SVGID_4_)" d="M703.591,411.836V303.804c66.635,0,86.453-30.941,197.827-12.543
				C864.97,362.924,789.494,411.836,703.591,411.836z"/>
		</g>
		<path fill="none" stroke="#231815" stroke-width="2.2211" stroke-miterlimit="10" d="M901.418,291.265
			c-111.374-18.407-131.192,13.092-197.827,13.092c-66.638,0-86.455-31.5-197.824-13.092"/>
		<path fill="none" stroke="#231815" stroke-width="1.6658" stroke-linecap="round" stroke-miterlimit="10" d="M658.963,298.814
			c-6.386-68.33,18.263-78.892,40.893-82.15"/>
		<path fill="none" stroke="#231815" stroke-width="1.6658" stroke-linecap="round" stroke-miterlimit="10" d="M748.225,298.814
			c6.383-68.33-18.27-78.886-40.896-82.146"/>
		<g>
			<path fill="none" stroke="#231815" stroke-width="2.5015" stroke-miterlimit="10" d="M714.072,303.57
				c2.536-11.081,9.48-6.943,15.085-23.768c3.694-11.093-7.077-26.429-13.349-11.879"/>
			<path fill="none" stroke="#231815" stroke-width="2.5015" stroke-miterlimit="10" d="M693.432,303.57
				c-2.533-11.081-9.478-6.943-15.084-23.768c-3.692-11.093,7.076-26.429,13.348-11.879"/>
		</g>
		<g>
			<path fill="#FFFFFF" stroke="#231815" stroke-width="1.7871" stroke-miterlimit="10" d="M714.072,262.954
				c0,3.942-3.197,7.14-7.139,7.14c-3.947,0-7.142-3.198-7.142-7.14c0-3.944,3.194-7.14,7.142-7.14
				C710.875,255.814,714.072,259.01,714.072,262.954z"/>
			<circle fill="#FFFFFF" stroke="#231815" stroke-width="1.7871" stroke-miterlimit="10" cx="712.303" cy="278.542" r="7.139"/>
			<circle fill="#FFFFFF" stroke="#231815" stroke-width="1.7871" stroke-miterlimit="10" cx="712.303" cy="267.436" r="7.139"/>
			<path fill="#FFFFFF" stroke="#231815" stroke-width="1.7871" stroke-miterlimit="10" d="M699.792,270.09
				c0,3.944-3.196,7.14-7.14,7.14c-3.938,0-7.137-3.195-7.137-7.14c0-3.941,3.198-7.136,7.137-7.136
				C696.596,262.954,699.792,266.149,699.792,270.09z"/>
			<circle fill="#FFFFFF" stroke="#231815" stroke-width="1.7871" stroke-miterlimit="10" cx="698.024" cy="262.954" r="7.14"/>
			<path fill="#FFFFFF" stroke="#231815" stroke-width="1.7871" stroke-miterlimit="10" d="M713.297,284.55
				c0,3.945-3.197,7.142-7.14,7.142s-7.142-3.197-7.142-7.142c0-3.941,3.199-7.135,7.142-7.135S713.297,280.609,713.297,284.55z"/>
			<path fill="#FFFFFF" stroke="#231815" stroke-width="1.7871" stroke-miterlimit="10" d="M701.034,281.47
				c0,3.945-3.194,7.14-7.138,7.14c-3.944,0-7.14-3.195-7.14-7.14c0-3.939,3.195-7.136,7.14-7.136
				C697.84,274.334,701.034,277.531,701.034,281.47z"/>
			<path fill="#FFFFFF" stroke="#231815" stroke-width="1.7871" stroke-miterlimit="10" d="M708.17,274.328
				c0,3.944-3.191,7.137-7.139,7.137c-3.939,0-7.139-3.192-7.139-7.137c0-3.939,3.199-7.138,7.139-7.138
				C704.979,267.19,708.17,270.389,708.17,274.328z"/>
		</g>
	</g>
</g>
<g>
	<defs>
		<rect id="SVGID_5_" x="343.643" y="211.218" width="224.908" height="166.047"/>
	</defs>
	<clipPath id="SVGID_6_">
		<use xlink:href="#SVGID_5_"  overflow="visible"/>
	</clipPath>
	<g clip-path="url(#SVGID_6_)">
		<path opacity="0.8" fill="#DBDCDC" stroke="#595757" stroke-width="0.5553" stroke-miterlimit="10" d="M456.098,303.727
			c-45.858,0-69.546-14.658-116.171-17.795l0.004-0.045c23.194,3.632,40.17,25.907,52.545,34.733
			c16.312,11.629,29.708,34.731,63.622,34.731"/>
		<path opacity="0.8" fill="#DBDCDC" stroke="#595757" stroke-width="0.5553" stroke-miterlimit="10" d="M456.185,303.727
			c45.86,0,69.548-14.658,116.17-17.795l-0.004-0.045c-23.191,3.632-40.169,25.907-52.545,34.733
			c-16.312,11.629-29.708,34.731-63.621,34.731"/>
		<path fill="#C8C9CA" stroke="#595757" stroke-width="2.2211" stroke-miterlimit="10" d="M456.185,357.979
			c24.694,0,37.669-16.612,58.085-32.217c20.013-15.293,8.227-32.004-13.114-26.905c-12.773,3.054-28.886,4.87-44.971,4.87h-0.041
			h-0.046c-16.085,0-32.199-1.816-44.971-4.87c-21.345-5.099-33.125,11.612-13.115,26.905
			c20.417,15.604,33.389,32.217,58.085,32.217"/>
		<g opacity="0.75">
			
				<linearGradient id="SVGID_7_" gradientUnits="userSpaceOnUse" x1="792.8184" y1="272.7607" x2="726.3013" y2="379.2102" gradientTransform="matrix(-1 0 0 1 1298.5957 0)">
				<stop  offset="0" style="stop-color:#E95513;stop-opacity:0.35"/>
				<stop  offset="0.5495" style="stop-color:#F5B497;stop-opacity:0.7071"/>
				<stop  offset="1" style="stop-color:#FFFFFF"/>
			</linearGradient>
			<path fill="url(#SVGID_7_)" d="M456.098,411.836V303.805c66.634,0,86.452-30.947,197.826-12.541
				C617.477,362.92,541.999,411.836,456.098,411.836z"/>
			
				<linearGradient id="SVGID_8_" gradientUnits="userSpaceOnUse" x1="87.3687" y1="272.7607" x2="20.8512" y2="379.2108" gradientTransform="matrix(1 0 0 1 319.0488 0)">
				<stop  offset="0" style="stop-color:#009FE8;stop-opacity:0.35"/>
				<stop  offset="0.5819" style="stop-color:#97D8F6;stop-opacity:0.7282"/>
				<stop  offset="1" style="stop-color:#FFFFFF"/>
			</linearGradient>
			<path fill="url(#SVGID_8_)" d="M456.098,411.836V303.805c-66.633,0-86.451-30.947-197.828-12.541
				C294.719,362.92,370.193,411.836,456.098,411.836z"/>
		</g>
		<path fill="none" stroke="#231815" stroke-width="1.6658" stroke-linecap="round" stroke-miterlimit="10" d="M407.556,298.171
			c-7.798-52.604,16.306-81.863,45.208-81.863"/>
		<g>
			<g>
				<path fill="none" stroke="#231815" stroke-width="2.2211" stroke-miterlimit="10" d="M258.27,291.187
					c111.376-18.4,131.194,12.54,197.828,12.54"/>
			</g>
		</g>
		<path fill="none" stroke="#231815" stroke-width="1.6658" stroke-linecap="round" stroke-miterlimit="10" d="M504.725,298.171
			c7.801-52.604-16.305-81.863-45.204-81.863"/>
		<g>
			<g>
				<path fill="none" stroke="#231815" stroke-width="2.2211" stroke-miterlimit="10" d="M653.924,291.187
					c-111.371-18.4-131.188,12.54-197.826,12.54"/>
			</g>
		</g>
		<g>
			<path fill="none" stroke="#231815" stroke-width="2.5124" stroke-miterlimit="10" d="M462.689,302.95
				c0-10.11,16.158-9.58,21.24-17.99c10.265-16.983-2.825-31.924-15.912-23.353"/>
			<path fill="none" stroke="#231815" stroke-width="2.5124" stroke-miterlimit="10" d="M447.399,302.95
				c0-10.11-16.158-9.58-21.238-17.99c-10.266-16.983,2.821-31.924,15.912-23.353"/>
		</g>
		<g>
			<circle fill="#FFFFFF" stroke="#231815" stroke-width="1.723" stroke-miterlimit="10" cx="457.819" cy="261.898" r="6.884"/>
			<circle fill="#FFFFFF" stroke="#231815" stroke-width="1.723" stroke-miterlimit="10" cx="462.995" cy="276.927" r="6.884"/>
			<path fill="#FFFFFF" stroke="#231815" stroke-width="1.723" stroke-miterlimit="10" d="M469.879,266.223
				c0,3.803-3.081,6.885-6.882,6.885c-3.799,0-6.887-3.083-6.887-6.885c0-3.801,3.088-6.883,6.887-6.883
				C466.798,259.34,469.879,262.422,469.879,266.223z"/>
			<path fill="#FFFFFF" stroke="#231815" stroke-width="1.723" stroke-miterlimit="10" d="M450.935,268.782
				c0,3.803-3.079,6.885-6.885,6.885c-3.797,0-6.881-3.082-6.881-6.885s3.084-6.884,6.881-6.884
				C447.855,261.898,450.935,264.979,450.935,268.782z"/>
			<path fill="#FFFFFF" stroke="#231815" stroke-width="1.723" stroke-miterlimit="10" d="M456.11,261.902
				c0,3.798-3.079,6.88-6.88,6.88c-3.798,0-6.886-3.082-6.886-6.88c0-3.802,3.088-6.883,6.886-6.883
				C453.031,255.02,456.11,258.1,456.11,261.902z"/>
			<circle fill="#FFFFFF" stroke="#231815" stroke-width="1.723" stroke-miterlimit="10" cx="457.07" cy="282.723" r="6.884"/>
			<circle fill="#FFFFFF" stroke="#231815" stroke-width="1.723" stroke-miterlimit="10" cx="445.249" cy="279.754" r="6.883"/>
			<path fill="#FFFFFF" stroke="#231815" stroke-width="1.723" stroke-miterlimit="10" d="M459.013,272.867
				c0,3.803-3.08,6.884-6.884,6.884c-3.798,0-6.882-3.082-6.882-6.884c0-3.801,3.084-6.883,6.882-6.883
				C455.933,265.984,459.013,269.066,459.013,272.867z"/>
		</g>
	</g>
</g>
<g>
	<g opacity="0.5">
		<path fill="#FFFFFF" stroke="#000000" stroke-width="0.8346" stroke-miterlimit="10" d="M283.562,280.204
			c0.756,6.551,4.227,11.656,6.519,11.392c2.296-0.264,2.541-5.8,1.786-12.351c-0.756-6.551-2.226-11.657-4.521-11.393
			C285.052,268.117,282.804,273.653,283.562,280.204z"/>
		<path stroke="#000000" stroke-width="0.1326" stroke-miterlimit="10" d="M283.541,279.937c0.31,4.18,1.859,7.5,3.012,7.414
			c1.15-0.085,1.473-3.545,1.161-7.724c-0.311-4.18-1.422-8.119-2.576-8.033C283.989,271.679,283.229,275.758,283.541,279.937z"/>
		<path stroke="#000000" stroke-width="0.1326" stroke-miterlimit="10" d="M320.438,283.064c-3.526-2.823-9.726-6.347-19.062-11.03
			c-8.28-4.155-16.702-7.134-17.208-7.324c-2.965-1.125-3.465-0.576-4.679,2.118c-0.926,2.06-3.533,3.883-4.675,4.35
			c-1.476,0.604-3.419,0.837-3.531,1.299c-0.071,0.297,1.789,0.375,3.789,0.138c1.564-0.186,5.325-1.206,7.596-2.521
			c3.885-2.25,5.236-2.34,8.913-0.707c2.985,1.328,6.914,3.11,11.032,4.942c5.383,2.396,11.473,5.913,11.473,5.913
			s-5.031,3.441-7.943,4.854c-2.911,1.412-9.989,5.647-22.671,6.509c-1.248,0.086-2.665,2.049,2.177,1.289
			c9.109-1.431,19.789-5.54,25.79-9.123c3.093-1.845,4.327-2.47,4.327-2.47s2.649,1.522,4.146,2.559
			C320.479,284.251,321.951,284.273,320.438,283.064z"/>
		<path fill="none" stroke="#000000" stroke-width="0.3979" stroke-linecap="round" stroke-miterlimit="10" d="M313.203,276.1
			c-2.913-1.506-24.711-13.068-29.211-14.392"/>
		<path fill="none" stroke="#000000" stroke-width="0.5564" stroke-linecap="round" stroke-miterlimit="10" d="M279.923,294.987
			c-0.088-1.324,1.42-2.885,3.49-2.635"/>
	</g>
	<g>
		<defs>
			<rect id="SVGID_9_" x="42.481" y="211.218" width="224.906" height="138.759"/>
		</defs>
		<clipPath id="SVGID_10_">
			<use xlink:href="#SVGID_9_"  overflow="visible"/>
		</clipPath>
		<g clip-path="url(#SVGID_10_)">
			<g>
				<path opacity="0.8" fill="#DBDCDC" stroke="#595757" stroke-width="0.5553" stroke-miterlimit="10" d="M154.938,251.036
					c-10.408,0-26.927-22.157-43.933-18.874c-31.129,6.017-63.912,19.62-63.912,48.434v0.006c0,28.815,32.783,42.417,63.912,48.432
					c17.006,3.285,33.525-18.874,43.929-18.874c10.409,0,26.927,22.159,43.934,18.874c31.13-6.015,63.91-19.617,63.91-48.432v-0.006
					c0-28.814-32.779-42.417-63.91-48.434C181.86,228.879,165.343,251.036,154.938,251.036z"/>
				<path fill="#C8C9CA" stroke="#595757" stroke-width="2.2211" stroke-miterlimit="10" d="M83.429,280.596
					c0-14.118,6.501-26.263,8.863-30.64c6.253-11.598,15.579-18.869,24.699-17.346c5.769,0.964,23.355,3.289,37.946,3.771
					c14.593-0.482,32.179-2.807,37.943-3.771c9.121-1.523,18.446,5.748,24.7,17.346c2.36,4.376,8.862,16.521,8.862,30.64
					c0,14.122-6.501,26.27-8.864,30.65c-6.251,11.592-15.579,18.861-24.697,17.341c-5.768-0.967-23.35-3.288-37.943-3.771
					c-14.591,0.482-32.177,2.804-37.946,3.771c-9.121,1.521-18.446-5.749-24.699-17.341
					C89.929,306.865,83.429,294.717,83.429,280.596z"/>
				<g>
					<path fill="none" stroke="#231815" stroke-width="2.5124" stroke-miterlimit="10" d="M163.308,289.678
						c17.001,0,22.043,10.792,21.99,20.182"/>
					<path fill="none" stroke="#231815" stroke-width="2.5124" stroke-miterlimit="10" d="M146.563,289.681
						c-17.001,0-22.044,10.793-21.989,20.176"/>
					<path fill="none" stroke="#231815" stroke-width="2.5124" stroke-miterlimit="10" d="M146.564,271.516
						c-17.001,0-22.048-10.783-21.99-20.173"/>
					<path fill="none" stroke="#231815" stroke-width="2.5124" stroke-miterlimit="10" d="M163.307,271.521
						c17.005,0,22.046-10.796,21.992-20.186"/>
				</g>
				<g>
					<g>
						<g>
							<g>
								<path fill="none" stroke="#231815" stroke-width="1.391" stroke-miterlimit="10" d="M317.547,444.295
									c-0.386-0.26-0.771-0.519-1.154-0.777"/>
								<path fill="none" stroke="#231815" stroke-width="1.391" stroke-miterlimit="10" stroke-dasharray="2.7587,2.7587" d="
									M314.108,441.973c-92.053-62.464-74.387-74.44-124.445-128.91"/>
								<path fill="none" stroke="#231815" stroke-width="1.391" stroke-miterlimit="10" d="M188.727,312.047
									c-0.313-0.338-0.629-0.679-0.948-1.021"/>
							</g>
						</g>
						<g>
							<g>
								<path fill="none" stroke="#231815" stroke-width="1.391" stroke-miterlimit="10" d="M185.606,312.825
									c0.279,0.337,0.571,0.695,0.876,1.075"/>
								<path fill="none" stroke="#231815" stroke-width="1.391" stroke-miterlimit="10" stroke-dasharray="2.8091,2.8091" d="
									M188.221,316.102c21.125,27.166,87.797,125.917,112.045,145.682"/>
								<path fill="none" stroke="#231815" stroke-width="1.391" stroke-miterlimit="10" d="M301.377,462.655
									c0.389,0.293,0.765,0.563,1.127,0.808"/>
							</g>
						</g>
					</g>
					<g>
						<g>
							<g>
								<path fill="none" stroke="#231815" stroke-width="1.391" stroke-miterlimit="10" d="M-7.677,444.295
									c0.386-0.26,0.771-0.519,1.154-0.777"/>
								<path fill="none" stroke="#231815" stroke-width="1.391" stroke-miterlimit="10" stroke-dasharray="2.7587,2.7587" d="
									M-4.238,441.973c92.052-62.464,74.389-74.44,124.451-128.91"/>
								<path fill="none" stroke="#231815" stroke-width="1.391" stroke-miterlimit="10" d="M121.149,312.047
									c0.313-0.339,0.629-0.679,0.948-1.021"/>
							</g>
						</g>
						<g>
							<g>
								<path fill="none" stroke="#231815" stroke-width="1.391" stroke-miterlimit="10" d="M124.265,312.825
									c-0.278,0.337-0.571,0.696-0.876,1.075"/>
								<path fill="none" stroke="#231815" stroke-width="1.391" stroke-miterlimit="10" stroke-dasharray="2.809,2.809" d="
									M121.65,316.103c-21.12,27.166-87.798,125.918-112.04,145.682"/>
								<path fill="none" stroke="#231815" stroke-width="1.391" stroke-miterlimit="10" d="M8.501,462.655
									c-0.389,0.293-0.765,0.563-1.127,0.808"/>
							</g>
						</g>
					</g>
					<g>
						<g>
							<g>
								<path fill="none" stroke="#231815" stroke-width="1.391" stroke-miterlimit="10" d="M316.461,116.9
									c-0.386,0.26-0.771,0.519-1.154,0.777"/>
								<path fill="none" stroke="#231815" stroke-width="1.391" stroke-miterlimit="10" stroke-dasharray="2.7587,2.7587" d="
									M313.022,119.223c-92.054,62.464-74.388,74.435-124.446,128.91"/>
								<path fill="none" stroke="#231815" stroke-width="1.391" stroke-miterlimit="10" d="M187.64,249.148
									c-0.313,0.339-0.629,0.679-0.948,1.021"/>
							</g>
						</g>
						<g>
							<g>
								<path fill="none" stroke="#231815" stroke-width="1.391" stroke-miterlimit="10" d="M184.52,248.369
									c0.278-0.337,0.571-0.696,0.876-1.076"/>
								<path fill="none" stroke="#231815" stroke-width="1.391" stroke-miterlimit="10" stroke-dasharray="2.809,2.809" d="
									M187.134,245.092c21.124-27.166,87.797-125.917,112.045-145.679"/>
								<path fill="none" stroke="#231815" stroke-width="1.391" stroke-miterlimit="10" d="M300.291,98.541
									c0.389-0.293,0.765-0.562,1.127-0.807"/>
							</g>
						</g>
					</g>
					<g>
						<g>
							<g>
								<path fill="none" stroke="#231815" stroke-width="1.391" stroke-miterlimit="10" d="M-7.677,116.9
									c0.386,0.26,0.771,0.519,1.154,0.777"/>
								<path fill="none" stroke="#231815" stroke-width="1.391" stroke-miterlimit="10" stroke-dasharray="2.7587,2.7587" d="
									M-4.238,119.223c92.052,62.464,74.389,74.435,124.451,128.91"/>
								<path fill="none" stroke="#231815" stroke-width="1.391" stroke-miterlimit="10" d="M121.149,249.148
									c0.313,0.338,0.629,0.679,0.948,1.021"/>
							</g>
						</g>
						<g>
							<g>
								<path fill="none" stroke="#231815" stroke-width="1.391" stroke-miterlimit="10" d="M124.265,248.369
									c-0.278-0.337-0.571-0.696-0.876-1.076"/>
								<path fill="none" stroke="#231815" stroke-width="1.391" stroke-miterlimit="10" stroke-dasharray="2.809,2.809" d="
									M121.65,245.092C100.53,217.926,33.853,119.174,9.611,99.413"/>
								<path fill="none" stroke="#231815" stroke-width="1.391" stroke-miterlimit="10" d="M8.501,98.541
									c-0.389-0.292-0.765-0.562-1.127-0.807"/>
							</g>
						</g>
					</g>
				</g>
			</g>
			<g opacity="0.75">
				<g>
					<linearGradient id="SVGID_11_" gradientUnits="userSpaceOnUse" x1="154.9331" y1="340.582" x2="274.8901" y2="340.582">
						<stop  offset="1" style="stop-color:#E95513"/>
						<stop  offset="1" style="stop-color:#E95615"/>
						<stop  offset="1" style="stop-color:#EA5B1C"/>
						<stop  offset="1" style="stop-color:#EB6427"/>
						<stop  offset="1" style="stop-color:#EC7038"/>
						<stop  offset="1" style="stop-color:#EF804E"/>
						<stop  offset="1" style="stop-color:#F1936A"/>
						<stop  offset="1" style="stop-color:#F4AB8A"/>
						<stop  offset="1" style="stop-color:#F8C6B0"/>
						<stop  offset="1" style="stop-color:#FBE4D9"/>
						<stop  offset="1" style="stop-color:#FFFFFF"/>
					</linearGradient>
					<path opacity="0.5" fill="url(#SVGID_11_)" d="M154.933,400.559c66.249,0,119.957-53.704,119.957-119.954H154.933"/>
					<linearGradient id="SVGID_12_" gradientUnits="userSpaceOnUse" x1="34.9785" y1="220.6221" x2="154.9331" y2="220.6221">
						<stop  offset="1" style="stop-color:#E95513"/>
						<stop  offset="1" style="stop-color:#E95615"/>
						<stop  offset="1" style="stop-color:#EA5B1C"/>
						<stop  offset="1" style="stop-color:#EB6427"/>
						<stop  offset="1" style="stop-color:#EC7038"/>
						<stop  offset="1" style="stop-color:#EF804E"/>
						<stop  offset="1" style="stop-color:#F1936A"/>
						<stop  offset="1" style="stop-color:#F4AB8A"/>
						<stop  offset="1" style="stop-color:#F8C6B0"/>
						<stop  offset="1" style="stop-color:#FBE4D9"/>
						<stop  offset="1" style="stop-color:#FFFFFF"/>
					</linearGradient>
					<path opacity="0.5" fill="url(#SVGID_12_)" d="M154.933,160.64c-66.247,0-119.955,53.708-119.955,119.964h119.955"/>
					<path opacity="0.5" fill="#009FE8" d="M34.979,280.604c0,66.25,53.708,119.954,119.955,119.954V280.604"/>
					<path opacity="0.5" fill="#009FE8" d="M274.89,280.604c0-66.257-53.703-119.964-119.957-119.964v119.964"/>
				</g>
				
					<radialGradient id="SVGID_13_" cx="132.7432" cy="422.1914" r="121.6716" gradientTransform="matrix(0 1 -1 0 577.127 147.856)" gradientUnits="userSpaceOnUse">
					<stop  offset="0" style="stop-color:#FFFFFF;stop-opacity:0"/>
					<stop  offset="0.9081" style="stop-color:#FFFFFF;stop-opacity:0.6811"/>
					<stop  offset="1" style="stop-color:#FFFFFF;stop-opacity:0.75"/>
				</radialGradient>
				<path fill="url(#SVGID_13_)" d="M154.938,402.272c-67.203,0-121.672-54.474-121.672-121.674
					c0-67.197,54.469-121.672,121.672-121.672c67.193,0,121.668,54.475,121.668,121.672
					C276.606,347.799,222.131,402.272,154.938,402.272z"/>
			</g>
			<g>
				<circle fill="#FFFFFF" stroke="#231815" stroke-width="1.723" stroke-miterlimit="10" cx="166.324" cy="285.295" r="7.528"/>
				<circle fill="#FFFFFF" stroke="#231815" stroke-width="1.723" stroke-miterlimit="10" cx="149.891" cy="290.958" r="7.527"/>
				<path fill="#FFFFFF" stroke="#231815" stroke-width="1.723" stroke-miterlimit="10" d="M161.598,298.486
					c-4.16,0-7.532-3.369-7.532-7.526c0-4.153,3.372-7.528,7.532-7.528c4.158,0,7.528,3.375,7.528,7.528
					C169.126,295.117,165.755,298.486,161.598,298.486z"/>
				<circle fill="#FFFFFF" stroke="#231815" stroke-width="1.723" stroke-miterlimit="10" cx="158.797" cy="270.24" r="7.528"/>
				<path fill="#FFFFFF" stroke="#231815" stroke-width="1.723" stroke-miterlimit="10" d="M166.324,283.431
					c-4.159,0-7.527-3.373-7.527-7.53c0-4.151,3.368-7.527,7.527-7.527c4.158,0,7.527,3.375,7.527,7.527
					C173.851,280.059,170.481,283.431,166.324,283.431z"/>
				<circle fill="#FFFFFF" stroke="#231815" stroke-width="1.723" stroke-miterlimit="10" cx="143.549" cy="284.478" r="7.529"/>
				<path fill="#FFFFFF" stroke="#231815" stroke-width="1.723" stroke-miterlimit="10" d="M146.795,279.078
					c-4.157,0-7.526-3.37-7.526-7.527c0-4.162,3.369-7.531,7.526-7.531c4.161,0,7.529,3.369,7.529,7.531
					C154.324,275.708,150.956,279.078,146.795,279.078z"/>
				<path fill="#FFFFFF" stroke="#231815" stroke-width="1.723" stroke-miterlimit="10" d="M154.33,286.602
					c-4.162,0-7.529-3.369-7.529-7.525c0-4.158,3.367-7.531,7.529-7.531c4.158,0,7.525,3.373,7.525,7.531
					C161.855,283.232,158.488,286.602,154.33,286.602z"/>
			</g>
		</g>
	</g>
	<g opacity="0.5">
		<path fill="#FFFFFF" stroke="#000000" stroke-width="0.8346" stroke-miterlimit="10" d="M153.338,364.335
			c-6.55,0.757-11.657,4.227-11.391,6.521c0.264,2.294,5.8,2.54,12.351,1.784c6.551-0.756,11.657-2.226,11.394-4.521
			C165.426,365.826,159.89,363.58,153.338,364.335z"/>
		<path stroke="#000000" stroke-width="0.1326" stroke-miterlimit="10" d="M153.606,364.314c-4.18,0.312-7.5,1.859-7.415,3.013
			c0.086,1.149,3.546,1.475,7.726,1.162c4.18-0.312,8.119-1.423,8.033-2.577C161.864,364.763,157.786,364.003,153.606,364.314z"/>
		<path stroke="#000000" stroke-width="0.1326" stroke-miterlimit="10" d="M150.479,401.213c2.823-3.527,6.348-9.727,11.031-19.063
			c4.154-8.279,7.133-16.701,7.324-17.207c1.124-2.967,0.574-3.467-2.118-4.678c-2.06-0.928-3.883-3.535-4.35-4.676
			c-0.604-1.476-0.837-3.421-1.299-3.531c-0.298-0.071-0.376,1.788-0.138,3.789c0.186,1.564,1.206,5.325,2.521,7.596
			c2.249,3.884,2.34,5.235,0.707,8.912c-1.328,2.985-3.11,6.913-4.942,11.03c-2.396,5.384-5.913,11.475-5.913,11.475
			s-3.442-5.031-4.854-7.944c-1.412-2.91-5.647-9.986-6.511-22.669c-0.084-1.249-2.048-2.665-1.286,2.176
			c1.43,9.11,5.539,19.789,9.122,25.79c1.847,3.092,2.47,4.325,2.47,4.325s-1.522,2.65-2.559,4.147
			C149.291,401.251,149.269,402.726,150.479,401.213z"/>
		<path fill="none" stroke="#000000" stroke-width="0.3979" stroke-linecap="round" stroke-miterlimit="10" d="M157.443,393.976
			c1.506-2.91,13.068-24.709,14.391-29.21"/>
		<path fill="none" stroke="#000000" stroke-width="0.5564" stroke-linecap="round" stroke-miterlimit="10" d="M138.556,360.697
			c1.323-0.088,2.884,1.42,2.634,3.489"/>
	</g>
</g>
</svg>
