<?xml version="1.0" encoding="utf-8"?>
<!-- Generator: Adobe Illustrator 15.0.0, SVG Export Plug-In . SVG Version: 6.00 Build 0)  -->
<!DOCTYPE svg PUBLIC "-//W3C//DTD SVG 1.1//EN" "http://www.w3.org/Graphics/SVG/1.1/DTD/svg11.dtd">
<svg version="1.1" id="レイヤー_1" xmlns="http://www.w3.org/2000/svg" xmlns:xlink="http://www.w3.org/1999/xlink" x="0px"
	 y="0px" width="841.89px" height="595.28px" viewBox="0 0 841.89 595.28" enable-background="new 0 0 841.89 595.28"
	 xml:space="preserve">
<g>
	<path fill="#E6E6E6" stroke="#000000" stroke-width="1.5" stroke-miterlimit="10" d="M362.136,282.845
		c0,14.561,3.297,27.743,4.447,37.426c2.643,22.207-26.145,22.207-27.656,45.009c-2.006,30.256,19.072,42.953,34.686,42.953
		s36.691-12.697,34.686-42.953c-1.512-22.802-30.299-22.802-27.656-45.009c1.15-9.683,4.447-22.865,4.447-37.426
		s-3.297-27.742-4.447-37.426c-2.643-22.207,26.145-22.207,27.656-45.008c2.006-30.256-19.072-42.954-34.686-42.954
		s-36.691,12.698-34.686,42.954c1.512,22.801,30.299,22.801,27.656,45.008C365.433,255.103,362.136,268.284,362.136,282.845z"/>
	<g>
		<g>
			<g>
				<g opacity="0.5">
					<path opacity="0.33" fill="#ED772C" d="M373.66,408.242c69.254,0,125.391-56.139,125.391-125.395H373.66"/>
					<path opacity="0.33" fill="#ED772C" d="M373.66,157.455c-69.255,0-125.396,56.141-125.396,125.393H373.66"/>
					<path opacity="0.33" fill="#00B2EC" d="M248.264,282.848c0,69.256,56.141,125.395,125.396,125.395V282.848"/>
					<path opacity="0.33" fill="#00B2EC" d="M499.051,282.848c0-69.252-56.137-125.393-125.391-125.393v125.393"/>
				</g>
				<circle fill="none" stroke="#231815" stroke-width="1.5" stroke-miterlimit="10" cx="373.66" cy="282.848" r="125.392"/>
			</g>
			<g>
				<g>
					<path fill="#EEEEEF" stroke="#231815" stroke-width="1.5" stroke-miterlimit="10" d="M473.119,324.158l-2.275,6.616
						c0,0,23.902,8.29,25.057,4.916C497.063,332.317,473.119,324.158,473.119,324.158z"/>
					<path fill="#EEEEEF" stroke="#231815" stroke-width="1.5" stroke-miterlimit="10" d="M462.932,320.654l-2.273,6.619
						c0,0,23.898,8.287,25.059,4.913C486.877,328.816,462.932,320.654,462.932,320.654z"/>
					<path fill="#EEEEEF" stroke="#231815" stroke-width="1.5" stroke-miterlimit="10" d="M454.725,318.142l-2.086,6.069
						c0,0,21.914,7.599,22.977,4.506C476.68,325.625,454.725,318.142,454.725,318.142z"/>
					<path fill="#EEEEEF" stroke="#231815" stroke-width="1.5" stroke-miterlimit="10" d="M446.57,315.646l-1.896,5.52
						c0,0,19.928,6.909,20.896,4.098C466.537,322.449,446.57,315.646,446.57,315.646z"/>
					<path fill="#EEEEEF" stroke="#231815" stroke-width="1.5" stroke-miterlimit="10" d="M439.436,313.653l-1.613,4.693
						c0,0,16.953,5.879,17.773,3.488C456.416,319.439,439.436,313.653,439.436,313.653z"/>
				</g>
				<g>
					<path fill="#EEEEEF" stroke="#231815" stroke-width="1.5" stroke-miterlimit="10" d="M433.344,385.436l-6.83,2.843
						c0,0,9.656,23.379,13.137,21.929C443.133,408.76,433.344,385.436,433.344,385.436z"/>
					<path fill="#EEEEEF" stroke="#231815" stroke-width="1.5" stroke-miterlimit="10" d="M429.369,375.883l-6.832,2.844
						c0,0,9.656,23.383,13.139,21.934C439.156,399.21,429.369,375.883,429.369,375.883z"/>
					<path fill="#EEEEEF" stroke="#231815" stroke-width="1.5" stroke-miterlimit="10" d="M425.229,365.938l-6.83,2.845
						c0,0,9.658,23.381,13.137,21.932C435.016,389.268,425.229,365.938,425.229,365.938z"/>
					<path fill="#EEEEEF" stroke="#231815" stroke-width="1.5" stroke-miterlimit="10" d="M421.648,358.14l-6.262,2.605
						c0,0,8.854,21.439,12.043,20.109C430.625,379.527,421.648,358.14,421.648,358.14z"/>
					<path fill="#EEEEEF" stroke="#231815" stroke-width="1.5" stroke-miterlimit="10" d="M418.092,350.39l-5.697,2.37
						c0,0,8.051,19.495,10.955,18.288C426.252,369.838,418.092,350.39,418.092,350.39z"/>
					<path fill="#EEEEEF" stroke="#231815" stroke-width="1.5" stroke-miterlimit="10" d="M414.824,343.741l-4.846,2.016
						c0,0,6.848,16.582,9.318,15.551C421.766,360.281,414.824,343.741,414.824,343.741z"/>
				</g>
				<g>
					<path fill="#EEEEEF" stroke="#231815" stroke-width="1.5" stroke-miterlimit="10" d="M274.197,324.158l2.276,6.616
						c0,0-23.901,8.29-25.058,4.916C250.254,332.317,274.197,324.158,274.197,324.158z"/>
					<path fill="#EEEEEF" stroke="#231815" stroke-width="1.5" stroke-miterlimit="10" d="M284.385,320.654l2.274,6.619
						c0,0-23.9,8.287-25.06,4.913C260.441,328.816,284.385,320.654,284.385,320.654z"/>
					<path fill="#EEEEEF" stroke="#231815" stroke-width="1.5" stroke-miterlimit="10" d="M292.59,318.142l2.089,6.069
						c0,0-21.915,7.599-22.98,4.506C270.636,325.625,292.59,318.142,292.59,318.142z"/>
					<path fill="#EEEEEF" stroke="#231815" stroke-width="1.5" stroke-miterlimit="10" d="M300.746,315.646l1.896,5.52
						c0,0-19.928,6.909-20.896,4.098C280.779,322.449,300.746,315.646,300.746,315.646z"/>
					<path fill="#EEEEEF" stroke="#231815" stroke-width="1.5" stroke-miterlimit="10" d="M307.879,313.653l1.614,4.693
						c0,0-16.951,5.879-17.774,3.488C290.9,319.439,307.879,313.653,307.879,313.653z"/>
				</g>
				<g>
					<path fill="#EEEEEF" stroke="#231815" stroke-width="1.5" stroke-miterlimit="10" d="M313.972,385.436l6.83,2.843
						c0,0-9.655,23.379-13.137,21.929C304.183,408.76,313.972,385.436,313.972,385.436z"/>
					<path fill="#EEEEEF" stroke="#231815" stroke-width="1.5" stroke-miterlimit="10" d="M317.946,375.883l6.832,2.844
						c0,0-9.654,23.383-13.137,21.934C308.16,399.21,317.946,375.883,317.946,375.883z"/>
					<path fill="#EEEEEF" stroke="#231815" stroke-width="1.5" stroke-miterlimit="10" d="M322.086,365.938l6.831,2.845
						c0,0-9.655,23.381-13.137,21.932C312.301,389.268,322.086,365.938,322.086,365.938z"/>
					<path fill="#EEEEEF" stroke="#231815" stroke-width="1.5" stroke-miterlimit="10" d="M325.666,358.14l6.264,2.605
						c0,0-8.853,21.439-12.045,20.109C316.693,379.527,325.666,358.14,325.666,358.14z"/>
					<path fill="#EEEEEF" stroke="#231815" stroke-width="1.5" stroke-miterlimit="10" d="M329.224,350.39l5.696,2.37
						c0,0-8.051,19.495-10.952,18.288C321.064,369.838,329.224,350.39,329.224,350.39z"/>
					<path fill="#EEEEEF" stroke="#231815" stroke-width="1.5" stroke-miterlimit="10" d="M332.493,343.741l4.845,2.016
						c0,0-6.85,16.582-9.316,15.551C325.552,360.281,332.493,343.741,332.493,343.741z"/>
				</g>
				<g>
					<path fill="#EEEEEF" stroke="#231815" stroke-width="1.5" stroke-miterlimit="10" d="M473.119,241.543l-2.275-6.617
						c0,0,23.902-8.29,25.057-4.917C497.063,233.381,473.119,241.543,473.119,241.543z"/>
					<path fill="#EEEEEF" stroke="#231815" stroke-width="1.5" stroke-miterlimit="10" d="M462.932,245.044l-2.273-6.619
						c0,0,23.898-8.288,25.059-4.915C486.877,236.885,462.932,245.044,462.932,245.044z"/>
					<path fill="#EEEEEF" stroke="#231815" stroke-width="1.5" stroke-miterlimit="10" d="M454.725,247.559l-2.086-6.07
						c0,0,21.914-7.598,22.977-4.507C476.68,240.077,454.725,247.559,454.725,247.559z"/>
					<path fill="#EEEEEF" stroke="#231815" stroke-width="1.5" stroke-miterlimit="10" d="M446.57,250.052l-1.896-5.518
						c0,0,19.928-6.91,20.896-4.098C466.537,243.251,446.57,250.052,446.57,250.052z"/>
					<path fill="#EEEEEF" stroke="#231815" stroke-width="1.5" stroke-miterlimit="10" d="M439.436,252.045l-1.613-4.691
						c0,0,16.953-5.881,17.773-3.487S439.436,252.045,439.436,252.045z"/>
				</g>
				<g>
					<path fill="#EEEEEF" stroke="#231815" stroke-width="1.5" stroke-miterlimit="10" d="M433.344,180.264l-6.83-2.844
						c0,0,9.656-23.38,13.137-21.931C443.133,156.938,433.344,180.264,433.344,180.264z"/>
					<path fill="#EEEEEF" stroke="#231815" stroke-width="1.5" stroke-miterlimit="10" d="M429.369,189.814l-6.832-2.842
						c0,0,9.656-23.382,13.139-21.934C439.156,166.488,429.369,189.814,429.369,189.814z"/>
					<path fill="#EEEEEF" stroke="#231815" stroke-width="1.5" stroke-miterlimit="10" d="M425.229,199.76l-6.83-2.845
						c0,0,9.658-23.379,13.137-21.933C435.016,176.431,425.229,199.76,425.229,199.76z"/>
					<path fill="#EEEEEF" stroke="#231815" stroke-width="1.5" stroke-miterlimit="10" d="M421.648,207.561l-6.262-2.607
						c0,0,8.854-21.438,12.043-20.109C430.625,186.172,421.648,207.561,421.648,207.561z"/>
					<path fill="#EEEEEF" stroke="#231815" stroke-width="1.5" stroke-miterlimit="10" d="M418.092,215.309l-5.697-2.368
						c0,0,8.051-19.497,10.955-18.29C426.252,195.862,418.092,215.309,418.092,215.309z"/>
					<path fill="#EEEEEF" stroke="#231815" stroke-width="1.5" stroke-miterlimit="10" d="M414.824,221.958l-4.846-2.016
						c0,0,6.848-16.582,9.318-15.551C421.766,205.418,414.824,221.958,414.824,221.958z"/>
				</g>
				<g>
					<path fill="#EEEEEF" stroke="#231815" stroke-width="1.5" stroke-miterlimit="10" d="M274.197,241.543l2.276-6.617
						c0,0-23.901-8.29-25.058-4.917C250.254,233.381,274.197,241.543,274.197,241.543z"/>
					<path fill="#EEEEEF" stroke="#231815" stroke-width="1.5" stroke-miterlimit="10" d="M284.385,245.044l2.274-6.619
						c0,0-23.9-8.288-25.06-4.915C260.441,236.885,284.385,245.044,284.385,245.044z"/>
					<path fill="#EEEEEF" stroke="#231815" stroke-width="1.5" stroke-miterlimit="10" d="M292.59,247.559l2.089-6.07
						c0,0-21.915-7.598-22.98-4.507C270.636,240.077,292.59,247.559,292.59,247.559z"/>
					<path fill="#EEEEEF" stroke="#231815" stroke-width="1.5" stroke-miterlimit="10" d="M300.746,250.052l1.896-5.518
						c0,0-19.928-6.91-20.896-4.098C280.779,243.251,300.746,250.052,300.746,250.052z"/>
					<path fill="#EEEEEF" stroke="#231815" stroke-width="1.5" stroke-miterlimit="10" d="M307.879,252.045l1.614-4.691
						c0,0-16.951-5.881-17.774-3.487C290.9,246.26,307.879,252.045,307.879,252.045z"/>
				</g>
				<g>
					<path fill="#EEEEEF" stroke="#231815" stroke-width="1.5" stroke-miterlimit="10" d="M313.972,180.264l6.83-2.844
						c0,0-9.655-23.38-13.137-21.931C304.183,156.938,313.972,180.264,313.972,180.264z"/>
					<path fill="#EEEEEF" stroke="#231815" stroke-width="1.5" stroke-miterlimit="10" d="M317.946,189.814l6.832-2.842
						c0,0-9.654-23.382-13.137-21.935C308.16,166.488,317.946,189.814,317.946,189.814z"/>
					<path fill="#EEEEEF" stroke="#231815" stroke-width="1.5" stroke-miterlimit="10" d="M322.086,199.76l6.831-2.845
						c0,0-9.655-23.38-13.137-21.933C312.301,176.431,322.086,199.76,322.086,199.76z"/>
					<path fill="#EEEEEF" stroke="#231815" stroke-width="1.5" stroke-miterlimit="10" d="M325.666,207.561l6.264-2.607
						c0,0-8.853-21.438-12.045-20.109C316.693,186.172,325.666,207.561,325.666,207.561z"/>
					<path fill="#EEEEEF" stroke="#231815" stroke-width="1.5" stroke-miterlimit="10" d="M329.224,215.309l5.696-2.368
						c0,0-8.051-19.497-10.952-18.29C321.064,195.862,329.224,215.309,329.224,215.309z"/>
					<path fill="#EEEEEF" stroke="#231815" stroke-width="1.5" stroke-miterlimit="10" d="M332.493,221.958l4.845-2.016
						c0,0-6.85-16.582-9.316-15.551C325.552,205.418,332.493,221.958,332.493,221.958z"/>
				</g>
			</g>
		</g>
	</g>
</g>
<path opacity="0.5" fill="#FFFFFF" d="M542.818,451.202h-299V129.699h299V451.202z M398.8,269.167h-51.081v27.582H398.8V269.167z"/>
<rect x="457.639" y="170.133" fill="none" width="36.027" height="22.601"/>
<text transform="matrix(1 0 0 1 459.6445 190.729)" fill="#808080" font-family="'ArialMT'" font-size="24">Q1</text>
<rect x="248.264" y="170.133" fill="none" width="36.027" height="22.6"/>
<text transform="matrix(1 0 0 1 250.27 190.729)" fill="#808080" font-family="'ArialMT'" font-size="24">Q2</text>
<rect x="248.264" y="374.135" fill="none" width="36.027" height="22.602"/>
<text transform="matrix(1 0 0 1 250.27 394.7305)" fill="#808080" font-family="'ArialMT'" font-size="24">Q3</text>
<rect x="457.639" y="374.135" fill="none" width="36.027" height="22.602"/>
<text transform="matrix(1 0 0 1 459.6445 394.7305)" fill="#808080" font-family="'ArialMT'" font-size="24">Q4</text>
<rect x="359.053" y="185.742" fill="none" width="26.858" height="17.71"/>
<text transform="matrix(1 0 0 1 365.8096 199.4727)" font-family="'ArialMT'" font-size="16">tb</text>
<rect x="427.219" y="194.034" fill="none" width="18.411" height="18.836"/>
<text transform="matrix(1 0 0 1 427.2188 207.7646)" font-family="'ArialMT'" font-size="16">cr</text>
<rect x="404.698" y="238.141" fill="none" width="30.26" height="18.836"/>
<text transform="matrix(1 0 0 1 404.6982 251.8716)" font-family="'ArialMT'" font-size="16">cg</text>
<rect x="298.734" y="129.699" fill="none" width="147.59" height="17.711"/>
<text transform="matrix(1 0 0 1 327.0059 145.145)" font-family="'ArialMT'" font-size="18">aboral view</text>
<rect x="320.802" y="273.935" fill="none" width="25.162" height="18.836"/>
<text transform="matrix(1 0 0 1 328.1675 287.665)" font-family="'ArialMT'" font-size="16">ao</text>
<g>
	<g opacity="0.5">
		<path fill="#FFFFFF" stroke="#000000" stroke-width="0.6677" stroke-miterlimit="10" d="M372.874,418.894
			c-5.239,0.605-9.324,3.382-9.112,5.217c0.211,1.835,4.64,2.032,9.881,1.427c5.241-0.604,9.325-1.78,9.114-3.617
			C382.545,420.087,378.116,418.29,372.874,418.894z"/>
		<path stroke="#000000" stroke-width="0.1061" stroke-miterlimit="10" d="M373.089,418.877c-3.344,0.25-6,1.488-5.932,2.41
			c0.068,0.92,2.836,1.18,6.181,0.93c3.345-0.249,6.495-1.138,6.427-2.062C379.695,419.236,376.433,418.628,373.089,418.877z"/>
		<path stroke="#000000" stroke-width="0.1061" stroke-miterlimit="10" d="M370.587,448.396c2.259-2.822,5.078-7.781,8.825-15.25
			c3.323-6.624,5.706-13.361,5.859-13.766c0.899-2.374,0.46-2.773-1.694-3.742c-1.648-0.742-3.106-2.828-3.48-3.741
			c-0.482-1.181-0.669-2.736-1.039-2.825c-0.238-0.057-0.301,1.431-0.109,3.031c0.148,1.252,0.965,4.261,2.016,6.077
			c1.8,3.106,1.873,4.188,0.566,7.13c-1.063,2.388-2.488,5.53-3.954,8.824c-1.917,4.307-4.73,9.18-4.73,9.18
			s-2.753-4.025-3.884-6.355c-1.129-2.328-4.518-7.989-5.209-18.136c-0.066-0.999-1.639-2.132-1.028,1.741
			c1.144,7.288,4.431,15.831,7.298,20.632c1.477,2.474,1.975,3.46,1.975,3.46s-1.217,2.12-2.047,3.318
			C369.637,448.427,369.62,449.606,370.587,448.396z"/>
		<path fill="none" stroke="#000000" stroke-width="0.3183" stroke-linecap="round" stroke-miterlimit="10" d="M376.159,442.606
			c1.205-2.328,10.454-19.768,11.512-23.368"/>
		<path fill="none" stroke="#000000" stroke-width="0.4451" stroke-linecap="round" stroke-miterlimit="10" d="M361.05,415.983
			c1.059-0.07,2.307,1.136,2.107,2.792"/>
	</g>
	<rect x="382.765" y="422.067" fill="none" width="26.859" height="17.71"/>
	<text transform="matrix(1 0 0 1 391.5254 434.1201)" font-family="'ArialMT'" font-size="14">S</text>
</g>
<g>
	<g opacity="0.5">
		<path fill="#FFFFFF" stroke="#000000" stroke-width="0.6677" stroke-miterlimit="10" d="M511.103,283.341
			c0.604,5.24,3.382,9.325,5.215,9.113c1.837-0.211,2.032-4.64,1.429-9.881c-0.605-5.24-1.781-9.325-3.617-9.113
			C512.295,273.671,510.496,278.101,511.103,283.341z"/>
		<path stroke="#000000" stroke-width="0.1061" stroke-miterlimit="10" d="M511.086,283.127c0.248,3.345,1.487,6,2.41,5.931
			c0.92-0.068,1.178-2.836,0.929-6.18s-1.138-6.495-2.061-6.426C511.444,276.521,510.837,279.784,511.086,283.127z"/>
		<path stroke="#000000" stroke-width="0.1061" stroke-miterlimit="10" d="M540.604,285.628c-2.82-2.258-7.781-5.076-15.25-8.823
			c-6.623-3.324-13.361-5.708-13.766-5.859c-2.372-0.899-2.771-0.461-3.742,1.694c-0.741,1.647-2.827,3.105-3.74,3.479
			c-1.181,0.483-2.736,0.67-2.825,1.039c-0.057,0.238,1.431,0.301,3.031,0.11c1.251-0.148,4.26-0.965,6.077-2.017
			c3.107-1.8,4.188-1.872,7.129-0.565c2.389,1.063,5.531,2.488,8.826,3.954c4.307,1.917,9.178,4.729,9.178,4.729
			s-4.024,2.754-6.354,3.883c-2.329,1.13-7.991,4.519-18.137,5.208c-0.998,0.069-2.132,1.64,1.741,1.03
			c7.288-1.145,15.831-4.431,20.632-7.297c2.475-1.477,3.461-1.977,3.461-1.977s2.119,1.219,3.316,2.047
			C540.637,286.578,541.814,286.597,540.604,285.628z"/>
		<path fill="none" stroke="#000000" stroke-width="0.3183" stroke-linecap="round" stroke-miterlimit="10" d="M534.816,280.058
			c-2.33-1.205-19.77-10.454-23.369-11.514"/>
		<path fill="none" stroke="#000000" stroke-width="0.4451" stroke-linecap="round" stroke-miterlimit="10" d="M508.191,295.167
			c-0.07-1.06,1.137-2.309,2.792-2.108"/>
	</g>
	<rect x="507.777" y="251.845" fill="none" width="26.858" height="17.71"/>
	<text transform="matrix(1 0 0 1 516.9307 263.8589)" font-family="'ArialMT'" font-size="14">T</text>
</g>
<g>
	<g>
		<path fill="#F2F2F2" stroke="#000000" stroke-miterlimit="10" d="M373.658,288.236c1.898,0,4.911,4.041,8.01,3.444
			c5.675-1.098,11.65-3.579,11.65-8.83v-0.003c0-5.252-5.976-7.731-11.65-8.831c-3.1-0.598-6.112,3.444-8.009,3.444
			c-1.898,0-4.91-4.042-8.011-3.444c-5.674,1.1-11.651,3.579-11.651,8.831v0.003c0,5.251,5.978,7.732,11.651,8.83
			C368.749,292.277,371.76,288.236,373.658,288.236z"/>
		<path fill="#C8C9CA" stroke="#000000" stroke-miterlimit="10" d="M386.694,282.851c0,2.572-1.186,4.786-1.616,5.584
			c-1.139,2.113-2.839,3.438-4.501,3.161c-1.053-0.175-4.259-0.6-6.919-0.687c-2.661,0.087-5.867,0.512-6.917,0.687
			c-1.662,0.276-3.363-1.048-4.504-3.161c-0.43-0.798-1.615-3.012-1.615-5.584c0-2.575,1.186-4.789,1.616-5.592
			c1.14-2.11,2.841-3.438,4.503-3.16c1.052,0.177,4.256,0.601,6.917,0.687c2.661-0.086,5.867-0.51,6.919-0.687
			c1.662-0.277,3.362,1.05,4.501,3.16C385.509,278.062,386.694,280.275,386.694,282.851z"/>
		<g>
			<g>
				<g>
					<path fill="none" stroke="#231815" stroke-miterlimit="10" d="M372.131,281.192c-3.1,0-4.018-1.967-4.009-3.678"/>
					<path fill="none" stroke="#231815" stroke-miterlimit="10" d="M375.185,281.192c3.101,0,4.021-1.967,4.01-3.678"/>
					<path fill="none" stroke="#231815" stroke-miterlimit="10" d="M375.185,284.503c3.101,0,4.021,1.967,4.01,3.678"/>
					<path fill="none" stroke="#231815" stroke-miterlimit="10" d="M372.131,284.503c-3.101,0-4.018,1.969-4.009,3.681"/>
				</g>
			</g>
			<g>
				<g>
					<path fill="none" stroke="#231815" stroke-miterlimit="10" stroke-dasharray="2.8727" d="M379.466,288.889
						c19.79,14.794,33.374,17.77,59.636,27.212"/>
					<path fill="none" stroke="#231815" stroke-miterlimit="10" stroke-dasharray="2.8727" d="M379.466,288.889
						c20.157,15.053,20.286,31.092,33.222,56.708"/>
				</g>
				<g>
					<path fill="none" stroke="#231815" stroke-miterlimit="10" stroke-dasharray="2.8727" d="M367.853,288.889
						c-19.793,14.794-33.377,17.77-59.637,27.212"/>
					<path fill="none" stroke="#231815" stroke-miterlimit="10" stroke-dasharray="2.8727" d="M367.853,288.889
						c-20.158,15.053-20.289,31.092-33.226,56.708"/>
				</g>
				<g>
					<path fill="none" stroke="#231815" stroke-miterlimit="10" stroke-dasharray="2.8727" d="M379.466,276.808
						c19.79-14.792,33.374-17.769,59.636-27.213"/>
					<path fill="none" stroke="#231815" stroke-miterlimit="10" stroke-dasharray="2.8727" d="M379.466,276.808
						c20.157-15.05,20.286-31.094,33.222-56.709"/>
				</g>
				<g>
					<path fill="none" stroke="#231815" stroke-miterlimit="10" stroke-dasharray="2.8727" d="M367.853,276.808
						c-19.793-14.792-33.377-17.769-59.637-27.213"/>
					<path fill="none" stroke="#231815" stroke-miterlimit="10" stroke-dasharray="2.8727" d="M367.853,276.808
						c-20.158-15.05-20.289-31.094-33.226-56.709"/>
				</g>
			</g>
		</g>
	</g>
	<g>
		<circle fill="#FFFFFF" stroke="#231815" stroke-miterlimit="10" cx="371.579" cy="281.998" r="1.373"/>
		<circle fill="#FFFFFF" stroke="#231815" stroke-miterlimit="10" cx="374.574" cy="280.965" r="1.371"/>
		<circle fill="#FFFFFF" stroke="#231815" stroke-miterlimit="10" cx="372.44" cy="280.965" r="1.371"/>
		<circle fill="#FFFFFF" stroke="#231815" stroke-miterlimit="10" cx="372.95" cy="284.743" r="1.373"/>
		<circle fill="#FFFFFF" stroke="#231815" stroke-miterlimit="10" cx="371.579" cy="283.708" r="1.373"/>
		<circle fill="#FFFFFF" stroke="#231815" stroke-miterlimit="10" cx="375.731" cy="282.146" r="1.373"/>
		<path fill="#FFFFFF" stroke="#231815" stroke-miterlimit="10" d="M375.14,283.13c0.756,0,1.371,0.614,1.371,1.373
			s-0.615,1.373-1.371,1.373c-0.761,0-1.375-0.614-1.375-1.373S374.379,283.13,375.14,283.13z"/>
		<circle fill="#FFFFFF" stroke="#231815" stroke-miterlimit="10" cx="373.765" cy="283.13" r="1.373"/>
	</g>
</g>
</svg>
