<?xml version="1.0" encoding="utf-8"?>
<!-- Generator: Adobe Illustrator 15.0.0, SVG Export Plug-In . SVG Version: 6.00 Build 0)  -->
<!DOCTYPE svg PUBLIC "-//W3C//DTD SVG 1.1//EN" "http://www.w3.org/Graphics/SVG/1.1/DTD/svg11.dtd">
<svg version="1.1" id="レイヤー_1" xmlns="http://www.w3.org/2000/svg" xmlns:xlink="http://www.w3.org/1999/xlink" x="0px"
	 y="0px" width="841.89px" height="595.28px" viewBox="0 0 841.89 595.28" enable-background="new 0 0 841.89 595.28"
	 xml:space="preserve">
<g>
	<g>
		<path fill="#F2F2F2" stroke="#000000" stroke-width="1.0773" stroke-miterlimit="10" d="M440.449,321.25
			c0-14.56-11.257-27.742-12.409-37.425c-2.642-22.207,26.144-22.207,27.655-45.008c2.008-30.256-13.084-40.418-31.033-42.721
			c-1.282-0.163-2.498-0.24-3.651-0.232c-1.152-0.007-2.368,0.069-3.651,0.232c-17.95,2.303-33.039,12.465-31.033,42.721
			c1.512,22.801,30.298,22.801,27.656,45.008c-1.151,9.684-12.411,22.866-12.411,37.425c0,14.564,11.26,27.748,12.411,37.431
			c2.642,22.206-26.145,22.206-27.656,45.012c-2.006,30.252,13.083,40.416,31.033,42.718c1.283,0.165,2.499,0.241,3.651,0.235
			c1.153,0.006,2.369-0.07,3.651-0.235c17.949-2.302,33.041-12.466,31.033-42.718c-1.512-22.806-30.297-22.806-27.655-45.012
			C429.192,348.998,440.449,335.814,440.449,321.25z"/>
	</g>
	<g>
		<path opacity="0.8" fill="#DBDCDC" stroke="#000000" stroke-width="0.7182" stroke-miterlimit="10" d="M421.011,326.642
			c1.898,0,4.911,4.041,8.01,3.444c5.675-1.098,11.65-3.579,11.65-8.83v-0.003c0-5.252-5.976-7.731-11.65-8.831
			c-3.1-0.598-6.112,3.444-8.009,3.444c-1.898,0-4.91-4.042-8.011-3.444c-5.674,1.1-11.651,3.579-11.651,8.831v0.003
			c0,5.251,5.978,7.732,11.651,8.83C416.102,330.683,419.114,326.642,421.011,326.642z"/>
		<path fill="#C8C9CA" stroke="#000000" stroke-width="0.7182" stroke-miterlimit="10" d="M434.048,321.256
			c0,2.572-1.186,4.786-1.616,5.584c-1.139,2.113-2.839,3.438-4.501,3.161c-1.053-0.175-4.259-0.6-6.919-0.687
			c-2.661,0.087-5.867,0.512-6.917,0.687c-1.662,0.276-3.363-1.048-4.504-3.161c-0.43-0.798-1.615-3.012-1.615-5.584
			c0-2.575,1.186-4.789,1.616-5.592c1.14-2.11,2.841-3.438,4.503-3.16c1.052,0.177,4.256,0.601,6.917,0.687
			c2.661-0.086,5.867-0.51,6.919-0.687c1.662-0.277,3.362,1.05,4.501,3.16C432.862,316.467,434.048,318.681,434.048,321.256z"/>
		<g>
			<g>
				<g>
					<path fill="none" stroke="#231815" stroke-width="0.7182" stroke-miterlimit="10" d="M419.485,319.598
						c-3.1,0-4.018-1.967-4.009-3.678"/>
					<path fill="none" stroke="#231815" stroke-width="0.7182" stroke-miterlimit="10" d="M422.538,319.598
						c3.101,0,4.021-1.967,4.01-3.678"/>
					<path fill="none" stroke="#231815" stroke-width="0.7182" stroke-miterlimit="10" d="M422.538,322.908
						c3.101,0,4.021,1.967,4.01,3.678"/>
					<path fill="none" stroke="#231815" stroke-width="0.7182" stroke-miterlimit="10" d="M419.485,322.908
						c-3.101,0-4.018,1.969-4.009,3.681"/>
				</g>
			</g>
			<g>
				<g>
					<path fill="none" stroke="#231815" stroke-width="0.7182" stroke-miterlimit="10" stroke-dasharray="2.8727" d="
						M426.819,327.294c19.79,14.794,33.374,17.77,59.636,27.212"/>
					<path fill="none" stroke="#231815" stroke-width="0.7182" stroke-miterlimit="10" stroke-dasharray="2.8727" d="
						M426.819,327.294c20.157,15.053,20.286,31.092,33.222,56.708"/>
				</g>
				<g>
					<path fill="none" stroke="#231815" stroke-width="0.7182" stroke-miterlimit="10" stroke-dasharray="2.8727" d="
						M415.207,327.294c-19.793,14.794-33.377,17.77-59.637,27.212"/>
					<path fill="none" stroke="#231815" stroke-width="0.7182" stroke-miterlimit="10" stroke-dasharray="2.8727" d="
						M415.207,327.294c-20.158,15.053-20.289,31.092-33.226,56.708"/>
				</g>
				<g>
					<path fill="none" stroke="#231815" stroke-width="0.7182" stroke-miterlimit="10" stroke-dasharray="2.8727" d="
						M426.819,315.213c19.79-14.792,33.374-17.769,59.636-27.213"/>
					<path fill="none" stroke="#231815" stroke-width="0.7182" stroke-miterlimit="10" stroke-dasharray="2.8727" d="
						M426.819,315.213c20.157-15.05,20.286-31.094,33.222-56.709"/>
				</g>
				<g>
					<path fill="none" stroke="#231815" stroke-width="0.7182" stroke-miterlimit="10" stroke-dasharray="2.8727" d="
						M415.207,315.213C395.414,300.421,381.83,297.444,355.57,288"/>
					<path fill="none" stroke="#231815" stroke-width="0.7182" stroke-miterlimit="10" stroke-dasharray="2.8727" d="
						M415.207,315.213c-20.158-15.05-20.289-31.094-33.226-56.709"/>
				</g>
			</g>
		</g>
	</g>
	<g>
		<g>
			<g>
				<g opacity="0.5">
					<path opacity="0.33" fill="#ED772C" d="M421.013,446.647c69.254,0,125.391-56.139,125.391-125.395H421.013"/>
					<path opacity="0.33" fill="#ED772C" d="M421.013,195.86c-69.255,0-125.396,56.141-125.396,125.393h125.396"/>
					<path opacity="0.33" fill="#00B2EC" d="M295.618,321.253c0,69.256,56.141,125.395,125.396,125.395V321.253"/>
					<path opacity="0.33" fill="#00B2EC" d="M546.404,321.253c0-69.252-56.137-125.393-125.391-125.393v125.393"/>
				</g>
				<circle fill="none" stroke="#231815" stroke-width="1.0773" stroke-miterlimit="10" cx="421.013" cy="321.253" r="125.392"/>
			</g>
			<g>
				<g>
					<path fill="#EEEEEF" stroke="#231815" stroke-width="0.7182" stroke-miterlimit="10" d="M520.473,362.563l-2.275,6.616
						c0,0,23.902,8.29,25.057,4.916C544.416,370.723,520.473,362.563,520.473,362.563z"/>
					<path fill="#EEEEEF" stroke="#231815" stroke-width="0.7182" stroke-miterlimit="10" d="M510.285,359.06l-2.273,6.619
						c0,0,23.898,8.287,25.059,4.913C534.23,367.222,510.285,359.06,510.285,359.06z"/>
					<path fill="#EEEEEF" stroke="#231815" stroke-width="0.7182" stroke-miterlimit="10" d="M502.078,356.547l-2.086,6.069
						c0,0,21.914,7.599,22.977,4.506C524.033,364.03,502.078,356.547,502.078,356.547z"/>
					<path fill="#EEEEEF" stroke="#231815" stroke-width="0.7182" stroke-miterlimit="10" d="M493.924,354.052l-1.896,5.52
						c0,0,19.928,6.909,20.896,4.098C513.891,360.854,493.924,354.052,493.924,354.052z"/>
					<path fill="#EEEEEF" stroke="#231815" stroke-width="0.7182" stroke-miterlimit="10" d="M486.789,352.059l-1.613,4.693
						c0,0,16.953,5.879,17.773,3.488C503.77,357.845,486.789,352.059,486.789,352.059z"/>
				</g>
				<g>
					<path fill="#EEEEEF" stroke="#231815" stroke-width="0.7182" stroke-miterlimit="10" d="M480.697,423.841l-6.83,2.843
						c0,0,9.656,23.379,13.137,21.929C490.486,447.165,480.697,423.841,480.697,423.841z"/>
					<path fill="#EEEEEF" stroke="#231815" stroke-width="0.7182" stroke-miterlimit="10" d="M476.723,414.288l-6.832,2.844
						c0,0,9.656,23.383,13.139,21.934C486.51,437.615,476.723,414.288,476.723,414.288z"/>
					<path fill="#EEEEEF" stroke="#231815" stroke-width="0.7182" stroke-miterlimit="10" d="M472.582,404.344l-6.83,2.845
						c0,0,9.658,23.381,13.137,21.932C482.369,427.673,472.582,404.344,472.582,404.344z"/>
					<path fill="#EEEEEF" stroke="#231815" stroke-width="0.7182" stroke-miterlimit="10" d="M469.002,396.545l-6.262,2.605
						c0,0,8.854,21.439,12.043,20.109C477.979,417.933,469.002,396.545,469.002,396.545z"/>
					<path fill="#EEEEEF" stroke="#231815" stroke-width="0.7182" stroke-miterlimit="10" d="M465.445,388.795l-5.697,2.37
						c0,0,8.051,19.495,10.955,18.288C473.605,408.243,465.445,388.795,465.445,388.795z"/>
					<path fill="#EEEEEF" stroke="#231815" stroke-width="0.7182" stroke-miterlimit="10" d="M462.178,382.146l-4.846,2.016
						c0,0,6.848,16.582,9.318,15.551C469.119,398.687,462.178,382.146,462.178,382.146z"/>
				</g>
				<g>
					<path fill="#EEEEEF" stroke="#231815" stroke-width="0.7182" stroke-miterlimit="10" d="M321.55,362.563l2.276,6.616
						c0,0-23.901,8.29-25.058,4.916C297.608,370.723,321.55,362.563,321.55,362.563z"/>
					<path fill="#EEEEEF" stroke="#231815" stroke-width="0.7182" stroke-miterlimit="10" d="M331.739,359.06l2.274,6.619
						c0,0-23.9,8.287-25.06,4.913C307.794,367.222,331.739,359.06,331.739,359.06z"/>
					<path fill="#EEEEEF" stroke="#231815" stroke-width="0.7182" stroke-miterlimit="10" d="M339.944,356.547l2.089,6.069
						c0,0-21.915,7.599-22.98,4.506C317.99,364.03,339.944,356.547,339.944,356.547z"/>
					<path fill="#EEEEEF" stroke="#231815" stroke-width="0.7182" stroke-miterlimit="10" d="M348.099,354.052l1.896,5.52
						c0,0-19.928,6.909-20.896,4.098C328.132,360.854,348.099,354.052,348.099,354.052z"/>
					<path fill="#EEEEEF" stroke="#231815" stroke-width="0.7182" stroke-miterlimit="10" d="M355.233,352.059l1.614,4.693
						c0,0-16.951,5.879-17.774,3.488C338.253,357.845,355.233,352.059,355.233,352.059z"/>
				</g>
				<g>
					<path fill="#EEEEEF" stroke="#231815" stroke-width="0.7182" stroke-miterlimit="10" d="M361.326,423.841l6.83,2.843
						c0,0-9.655,23.379-13.137,21.929C351.537,447.165,361.326,423.841,361.326,423.841z"/>
					<path fill="#EEEEEF" stroke="#231815" stroke-width="0.7182" stroke-miterlimit="10" d="M365.299,414.288l6.832,2.844
						c0,0-9.654,23.383-13.137,21.934C355.513,437.615,365.299,414.288,365.299,414.288z"/>
					<path fill="#EEEEEF" stroke="#231815" stroke-width="0.7182" stroke-miterlimit="10" d="M369.44,404.344l6.831,2.845
						c0,0-9.655,23.381-13.137,21.932C359.655,427.673,369.44,404.344,369.44,404.344z"/>
					<path fill="#EEEEEF" stroke="#231815" stroke-width="0.7182" stroke-miterlimit="10" d="M373.019,396.545l6.264,2.605
						c0,0-8.853,21.439-12.045,20.109C364.046,417.933,373.019,396.545,373.019,396.545z"/>
					<path fill="#EEEEEF" stroke="#231815" stroke-width="0.7182" stroke-miterlimit="10" d="M376.578,388.795l5.696,2.37
						c0,0-8.051,19.495-10.952,18.288C368.417,408.243,376.578,388.795,376.578,388.795z"/>
					<path fill="#EEEEEF" stroke="#231815" stroke-width="0.7182" stroke-miterlimit="10" d="M379.846,382.146l4.845,2.016
						c0,0-6.85,16.582-9.316,15.551C372.906,398.687,379.846,382.146,379.846,382.146z"/>
				</g>
				<g>
					<path fill="#EEEEEF" stroke="#231815" stroke-width="0.7182" stroke-miterlimit="10" d="M520.473,279.949l-2.275-6.617
						c0,0,23.902-8.29,25.057-4.917C544.416,271.786,520.473,279.949,520.473,279.949z"/>
					<path fill="#EEEEEF" stroke="#231815" stroke-width="0.7182" stroke-miterlimit="10" d="M510.285,283.45l-2.273-6.619
						c0,0,23.898-8.288,25.059-4.915C534.23,275.29,510.285,283.45,510.285,283.45z"/>
					<path fill="#EEEEEF" stroke="#231815" stroke-width="0.7182" stroke-miterlimit="10" d="M502.078,285.964l-2.086-6.07
						c0,0,21.914-7.598,22.977-4.507C524.033,278.482,502.078,285.964,502.078,285.964z"/>
					<path fill="#EEEEEF" stroke="#231815" stroke-width="0.7182" stroke-miterlimit="10" d="M493.924,288.458l-1.896-5.518
						c0,0,19.928-6.91,20.896-4.098C513.891,281.657,493.924,288.458,493.924,288.458z"/>
					<path fill="#EEEEEF" stroke="#231815" stroke-width="0.7182" stroke-miterlimit="10" d="M486.789,290.451l-1.613-4.691
						c0,0,16.953-5.881,17.773-3.487S486.789,290.451,486.789,290.451z"/>
				</g>
				<g>
					<path fill="#EEEEEF" stroke="#231815" stroke-width="0.7182" stroke-miterlimit="10" d="M480.697,218.669l-6.83-2.844
						c0,0,9.656-23.38,13.137-21.931C490.486,195.344,480.697,218.669,480.697,218.669z"/>
					<path fill="#EEEEEF" stroke="#231815" stroke-width="0.7182" stroke-miterlimit="10" d="M476.723,228.22l-6.832-2.842
						c0,0,9.656-23.382,13.139-21.934C486.51,204.893,476.723,228.22,476.723,228.22z"/>
					<path fill="#EEEEEF" stroke="#231815" stroke-width="0.7182" stroke-miterlimit="10" d="M472.582,238.166l-6.83-2.845
						c0,0,9.658-23.379,13.137-21.933C482.369,214.836,472.582,238.166,472.582,238.166z"/>
					<path fill="#EEEEEF" stroke="#231815" stroke-width="0.7182" stroke-miterlimit="10" d="M469.002,245.966l-6.262-2.607
						c0,0,8.854-21.438,12.043-20.109C477.979,224.578,469.002,245.966,469.002,245.966z"/>
					<path fill="#EEEEEF" stroke="#231815" stroke-width="0.7182" stroke-miterlimit="10" d="M465.445,253.714l-5.697-2.368
						c0,0,8.051-19.497,10.955-18.29C473.605,234.268,465.445,253.714,465.445,253.714z"/>
					<path fill="#EEEEEF" stroke="#231815" stroke-width="0.7182" stroke-miterlimit="10" d="M462.178,260.363l-4.846-2.016
						c0,0,6.848-16.582,9.318-15.551C469.119,243.824,462.178,260.363,462.178,260.363z"/>
				</g>
				<g>
					<path fill="#EEEEEF" stroke="#231815" stroke-width="0.7182" stroke-miterlimit="10" d="M321.55,279.949l2.276-6.617
						c0,0-23.901-8.29-25.058-4.917C297.608,271.786,321.55,279.949,321.55,279.949z"/>
					<path fill="#EEEEEF" stroke="#231815" stroke-width="0.7182" stroke-miterlimit="10" d="M331.739,283.45l2.274-6.619
						c0,0-23.9-8.288-25.06-4.915C307.794,275.29,331.739,283.45,331.739,283.45z"/>
					<path fill="#EEEEEF" stroke="#231815" stroke-width="0.7182" stroke-miterlimit="10" d="M339.944,285.964l2.089-6.07
						c0,0-21.915-7.598-22.98-4.507C317.99,278.482,339.944,285.964,339.944,285.964z"/>
					<path fill="#EEEEEF" stroke="#231815" stroke-width="0.7182" stroke-miterlimit="10" d="M348.099,288.458l1.896-5.518
						c0,0-19.928-6.91-20.896-4.098C328.132,281.657,348.099,288.458,348.099,288.458z"/>
					<path fill="#EEEEEF" stroke="#231815" stroke-width="0.7182" stroke-miterlimit="10" d="M355.233,290.451l1.614-4.691
						c0,0-16.951-5.881-17.774-3.487C338.253,284.666,355.233,290.451,355.233,290.451z"/>
				</g>
				<g>
					<path fill="#EEEEEF" stroke="#231815" stroke-width="0.7182" stroke-miterlimit="10" d="M361.326,218.669l6.83-2.844
						c0,0-9.655-23.38-13.137-21.931C351.537,195.344,361.326,218.669,361.326,218.669z"/>
					<path fill="#EEEEEF" stroke="#231815" stroke-width="0.7182" stroke-miterlimit="10" d="M365.299,228.22l6.832-2.842
						c0,0-9.654-23.382-13.137-21.935C355.513,204.893,365.299,228.22,365.299,228.22z"/>
					<path fill="#EEEEEF" stroke="#231815" stroke-width="0.7182" stroke-miterlimit="10" d="M369.44,238.166l6.831-2.845
						c0,0-9.655-23.38-13.137-21.933C359.655,214.836,369.44,238.166,369.44,238.166z"/>
					<path fill="#EEEEEF" stroke="#231815" stroke-width="0.7182" stroke-miterlimit="10" d="M373.019,245.966l6.264-2.607
						c0,0-8.853-21.438-12.045-20.109C364.046,224.578,373.019,245.966,373.019,245.966z"/>
					<path fill="#EEEEEF" stroke="#231815" stroke-width="0.7182" stroke-miterlimit="10" d="M376.578,253.714l5.696-2.368
						c0,0-8.051-19.497-10.952-18.29C368.417,234.268,376.578,253.714,376.578,253.714z"/>
					<path fill="#EEEEEF" stroke="#231815" stroke-width="0.7182" stroke-miterlimit="10" d="M379.846,260.363l4.845-2.016
						c0,0-6.85-16.582-9.316-15.551C372.906,243.824,379.846,260.363,379.846,260.363z"/>
				</g>
			</g>
		</g>
		<g>
			<circle fill="#FFFFFF" stroke="#231815" stroke-width="0.7182" stroke-miterlimit="10" cx="419.021" cy="320.625" r="1.373"/>
			<circle fill="#FFFFFF" stroke="#231815" stroke-width="0.7182" stroke-miterlimit="10" cx="422.016" cy="319.593" r="1.371"/>
			<circle fill="#FFFFFF" stroke="#231815" stroke-width="0.7182" stroke-miterlimit="10" cx="419.882" cy="319.593" r="1.371"/>
			<circle fill="#FFFFFF" stroke="#231815" stroke-width="0.7182" stroke-miterlimit="10" cx="420.392" cy="323.371" r="1.373"/>
			<circle fill="#FFFFFF" stroke="#231815" stroke-width="0.7182" stroke-miterlimit="10" cx="419.021" cy="322.336" r="1.373"/>
			<circle fill="#FFFFFF" stroke="#231815" stroke-width="0.7182" stroke-miterlimit="10" cx="423.172" cy="320.774" r="1.373"/>
			<path fill="#FFFFFF" stroke="#231815" stroke-width="0.7182" stroke-miterlimit="10" d="M422.581,321.758
				c0.756,0,1.371,0.614,1.371,1.373s-0.615,1.373-1.371,1.373c-0.76,0-1.375-0.614-1.375-1.373S421.821,321.758,422.581,321.758z"
				/>
			<circle fill="#FFFFFF" stroke="#231815" stroke-width="0.7182" stroke-miterlimit="10" cx="421.207" cy="321.758" r="1.373"/>
		</g>
	</g>
</g>
<path opacity="0.4" fill="#FFFFFF" d="M570.445,481.736h-299V160.192h299V481.736z M446.485,307.174h-51.081v27.582h51.081V307.174z
	"/>
<rect x="511.499" y="220.911" fill="none" width="28.788" height="18.837"/>
<text transform="matrix(1 0 0 1 513.8867 236.3579)" fill="#808080" font-family="'ArialMT'" font-size="18">Q1</text>
<rect x="300.277" y="220.911" fill="none" width="28.788" height="18.837"/>
<text transform="matrix(1 0 0 1 302.665 236.3574)" fill="#808080" font-family="'ArialMT'" font-size="18">Q2</text>
<rect x="300.277" y="404.606" fill="none" width="28.788" height="18.838"/>
<text transform="matrix(1 0 0 1 302.665 420.0527)" fill="#808080" font-family="'ArialMT'" font-size="18">Q3</text>
<rect x="511.499" y="404.606" fill="none" width="28.788" height="18.838"/>
<text transform="matrix(1 0 0 1 513.8867 420.0527)" fill="#808080" font-family="'ArialMT'" font-size="18">Q4</text>
<rect x="406.406" y="224.147" fill="none" width="26.858" height="17.71"/>
<text transform="matrix(1 0 0 1 413.9971 236.1616)" font-family="'ArialMT'" font-size="14">tb</text>
<rect x="489.524" y="196.832" fill="none" width="18.411" height="18.836"/>
<text transform="matrix(1 0 0 1 489.5244 208.8457)" font-family="'ArialMT'" font-size="14">cr</text>
<rect x="457.822" y="297.641" fill="none" width="15.859" height="18.836"/>
<text transform="matrix(1 0 0 1 457.8223 309.6543)" font-family="'ArialMT'" font-size="14">cg</text>
<rect x="346.087" y="163.659" fill="none" width="147.59" height="17.711"/>
<text transform="matrix(1 0 0 1 384.4756 175.6733)" font-family="'ArialMT'" font-size="14">aboral view</text>
<rect x="377.458" y="312.34" fill="none" width="15.859" height="18.836"/>
<text transform="matrix(1 0 0 1 377.458 324.3535)" font-family="'ArialMT'" font-size="14">ao</text>
</svg>
