<?xml version="1.0" encoding="utf-8"?>
<!-- Generator: Adobe Illustrator 15.0.0, SVG Export Plug-In . SVG Version: 6.00 Build 0)  -->
<!DOCTYPE svg PUBLIC "-//W3C//DTD SVG 1.1//EN" "http://www.w3.org/Graphics/SVG/1.1/DTD/svg11.dtd">
<svg version="1.1" id="レイヤー_1" xmlns="http://www.w3.org/2000/svg" xmlns:xlink="http://www.w3.org/1999/xlink" x="0px"
	 y="0px" width="841.89px" height="595.28px" viewBox="0 0 841.89 595.28" enable-background="new 0 0 841.89 595.28"
	 xml:space="preserve">
<rect x="249.212" y="149.317" fill="#FFFFFF" width="343.598" height="343.596"/>
<g>
	<g>
		<path fill="#F2F2F2" stroke="#000000" stroke-width="1.0773" stroke-miterlimit="10" d="M440.448,321.111
			c0-14.56-11.257-27.742-12.409-37.425c-2.642-22.207,26.144-22.207,27.655-45.008c2.008-30.256-13.084-40.418-31.033-42.721
			c-1.282-0.163-2.498-0.24-3.65-0.232c-1.152-0.007-2.368,0.069-3.651,0.232c-17.95,2.303-33.039,12.465-31.033,42.721
			c1.512,22.801,30.298,22.801,27.656,45.008c-1.151,9.684-12.411,22.866-12.411,37.425c0,14.564,11.26,27.748,12.411,37.431
			c2.642,22.206-26.145,22.206-27.656,45.012c-2.006,30.252,13.083,40.416,31.033,42.718c1.283,0.165,2.499,0.241,3.651,0.235
			c1.152,0.006,2.368-0.07,3.65-0.235c17.949-2.302,33.041-12.466,31.033-42.718c-1.512-22.806-30.297-22.806-27.655-45.012
			C429.191,348.859,440.448,335.676,440.448,321.111z"/>
	</g>
	<g>
		<path opacity="0.8" fill="#DBDCDC" stroke="#000000" stroke-width="0.7182" stroke-miterlimit="10" d="M421.011,326.503
			c1.897,0,4.91,4.041,8.01,3.444c5.675-1.098,11.65-3.579,11.65-8.83v-0.003c0-5.252-5.976-7.731-11.65-8.831
			c-3.1-0.598-6.112,3.444-8.009,3.444c-1.898,0-4.91-4.042-8.011-3.444c-5.674,1.1-11.651,3.579-11.651,8.831v0.003
			c0,5.251,5.978,7.732,11.651,8.83C416.102,330.544,419.113,326.503,421.011,326.503z"/>
		<path fill="#C8C9CA" stroke="#000000" stroke-width="0.7182" stroke-miterlimit="10" d="M434.047,321.117
			c0,2.572-1.186,4.786-1.616,5.584c-1.139,2.113-2.839,3.438-4.501,3.161c-1.053-0.175-4.259-0.6-6.919-0.687
			c-2.661,0.087-5.867,0.512-6.917,0.687c-1.662,0.276-3.363-1.048-4.504-3.161c-0.43-0.798-1.615-3.012-1.615-5.584
			c0-2.575,1.186-4.789,1.616-5.592c1.14-2.11,2.841-3.438,4.503-3.16c1.052,0.177,4.256,0.601,6.917,0.687
			c2.66-0.086,5.866-0.51,6.919-0.687c1.662-0.277,3.362,1.05,4.501,3.16C432.861,316.328,434.047,318.542,434.047,321.117z"/>
		<g>
			<g>
				<g>
					<path fill="none" stroke="#231815" stroke-width="0.7182" stroke-miterlimit="10" d="M419.484,319.459
						c-3.1,0-4.018-1.967-4.009-3.678"/>
					<path fill="none" stroke="#231815" stroke-width="0.7182" stroke-miterlimit="10" d="M422.537,319.459
						c3.101,0,4.021-1.967,4.01-3.678"/>
					<path fill="none" stroke="#231815" stroke-width="0.7182" stroke-miterlimit="10" d="M422.537,322.77
						c3.101,0,4.021,1.967,4.01,3.678"/>
					<path fill="none" stroke="#231815" stroke-width="0.7182" stroke-miterlimit="10" d="M419.484,322.77
						c-3.101,0-4.018,1.969-4.009,3.681"/>
				</g>
			</g>
			<g>
				<g>
					<path fill="none" stroke="#231815" stroke-width="0.7182" stroke-miterlimit="10" stroke-dasharray="2.8727" d="
						M426.818,327.155c19.79,14.794,33.374,17.77,59.636,27.212"/>
					<path fill="none" stroke="#231815" stroke-width="0.7182" stroke-miterlimit="10" stroke-dasharray="2.8727" d="
						M426.818,327.155c20.157,15.053,20.286,31.092,33.222,56.708"/>
				</g>
				<g>
					<path fill="none" stroke="#231815" stroke-width="0.7182" stroke-miterlimit="10" stroke-dasharray="2.8727" d="
						M415.206,327.155c-19.793,14.794-33.377,17.77-59.637,27.212"/>
					<path fill="none" stroke="#231815" stroke-width="0.7182" stroke-miterlimit="10" stroke-dasharray="2.8727" d="
						M415.206,327.155c-20.158,15.053-20.289,31.092-33.226,56.708"/>
				</g>
				<g>
					<path fill="none" stroke="#231815" stroke-width="0.7182" stroke-miterlimit="10" stroke-dasharray="2.8727" d="
						M426.818,315.074c19.79-14.792,33.374-17.769,59.636-27.213"/>
					<path fill="none" stroke="#231815" stroke-width="0.7182" stroke-miterlimit="10" stroke-dasharray="2.8727" d="
						M426.818,315.074c20.157-15.05,20.286-31.094,33.222-56.709"/>
				</g>
				<g>
					<path fill="none" stroke="#231815" stroke-width="0.7182" stroke-miterlimit="10" stroke-dasharray="2.8727" d="
						M415.206,315.074c-19.793-14.792-33.377-17.769-59.637-27.213"/>
					<path fill="none" stroke="#231815" stroke-width="0.7182" stroke-miterlimit="10" stroke-dasharray="2.8727" d="
						M415.206,315.074c-20.158-15.05-20.289-31.094-33.226-56.709"/>
				</g>
			</g>
		</g>
	</g>
	<g>
		<g>
			<g>
				<g opacity="0.5">
					<path opacity="0.33" fill="#ED772C" d="M421.013,446.509c69.254,0,125.391-56.139,125.391-125.395H421.013"/>
					<path opacity="0.33" fill="#ED772C" d="M421.013,195.721c-69.255,0-125.396,56.141-125.396,125.393h125.396"/>
					<path opacity="0.33" fill="#00B2EC" d="M295.617,321.114c0,69.256,56.141,125.395,125.396,125.395V321.114"/>
					<path opacity="0.33" fill="#00B2EC" d="M546.403,321.114c0-69.252-56.137-125.393-125.391-125.393v125.393"/>
				</g>
				<circle fill="none" stroke="#231815" stroke-width="1.0773" stroke-miterlimit="10" cx="421.013" cy="321.115" r="125.392"/>
			</g>
			<g>
				<g>
					<path fill="#EEEEEF" stroke="#231815" stroke-width="0.7182" stroke-miterlimit="10" d="M520.472,362.425l-2.275,6.616
						c0,0,23.902,8.29,25.057,4.916C544.415,370.584,520.472,362.425,520.472,362.425z"/>
					<path fill="#EEEEEF" stroke="#231815" stroke-width="0.7182" stroke-miterlimit="10" d="M510.284,358.921l-2.273,6.619
						c0,0,23.898,8.287,25.059,4.913C534.229,367.083,510.284,358.921,510.284,358.921z"/>
					<path fill="#EEEEEF" stroke="#231815" stroke-width="0.7182" stroke-miterlimit="10" d="M502.077,356.408l-2.086,6.069
						c0,0,21.914,7.599,22.977,4.506C524.032,363.892,502.077,356.408,502.077,356.408z"/>
					<path fill="#EEEEEF" stroke="#231815" stroke-width="0.7182" stroke-miterlimit="10" d="M493.923,353.913l-1.896,5.52
						c0,0,19.928,6.909,20.896,4.098C513.89,360.716,493.923,353.913,493.923,353.913z"/>
					<path fill="#EEEEEF" stroke="#231815" stroke-width="0.7182" stroke-miterlimit="10" d="M486.788,351.92l-1.613,4.693
						c0,0,16.953,5.879,17.773,3.488C503.769,357.706,486.788,351.92,486.788,351.92z"/>
				</g>
				<g>
					<path fill="#EEEEEF" stroke="#231815" stroke-width="0.7182" stroke-miterlimit="10" d="M480.696,423.702l-6.83,2.843
						c0,0,9.656,23.379,13.137,21.929C490.485,447.026,480.696,423.702,480.696,423.702z"/>
					<path fill="#EEEEEF" stroke="#231815" stroke-width="0.7182" stroke-miterlimit="10" d="M476.722,414.149l-6.832,2.844
						c0,0,9.656,23.383,13.139,21.934C486.509,437.477,476.722,414.149,476.722,414.149z"/>
					<path fill="#EEEEEF" stroke="#231815" stroke-width="0.7182" stroke-miterlimit="10" d="M472.581,404.205l-6.83,2.845
						c0,0,9.658,23.381,13.137,21.932C482.368,427.534,472.581,404.205,472.581,404.205z"/>
					<path fill="#EEEEEF" stroke="#231815" stroke-width="0.7182" stroke-miterlimit="10" d="M469.001,396.406l-6.262,2.605
						c0,0,8.854,21.439,12.043,20.109C477.978,417.794,469.001,396.406,469.001,396.406z"/>
					<path fill="#EEEEEF" stroke="#231815" stroke-width="0.7182" stroke-miterlimit="10" d="M465.444,388.656l-5.697,2.37
						c0,0,8.051,19.495,10.955,18.288C473.604,408.104,465.444,388.656,465.444,388.656z"/>
					<path fill="#EEEEEF" stroke="#231815" stroke-width="0.7182" stroke-miterlimit="10" d="M462.177,382.008l-4.846,2.016
						c0,0,6.848,16.582,9.318,15.551C469.118,398.548,462.177,382.008,462.177,382.008z"/>
				</g>
				<g>
					<path fill="#EEEEEF" stroke="#231815" stroke-width="0.7182" stroke-miterlimit="10" d="M321.55,362.425l2.276,6.616
						c0,0-23.901,8.29-25.058,4.916C297.607,370.584,321.55,362.425,321.55,362.425z"/>
					<path fill="#EEEEEF" stroke="#231815" stroke-width="0.7182" stroke-miterlimit="10" d="M331.738,358.921l2.274,6.619
						c0,0-23.9,8.287-25.06,4.913C307.794,367.083,331.738,358.921,331.738,358.921z"/>
					<path fill="#EEEEEF" stroke="#231815" stroke-width="0.7182" stroke-miterlimit="10" d="M339.943,356.408l2.089,6.069
						c0,0-21.915,7.599-22.98,4.506C317.989,363.892,339.943,356.408,339.943,356.408z"/>
					<path fill="#EEEEEF" stroke="#231815" stroke-width="0.7182" stroke-miterlimit="10" d="M348.099,353.913l1.896,5.52
						c0,0-19.928,6.909-20.896,4.098C328.132,360.716,348.099,353.913,348.099,353.913z"/>
					<path fill="#EEEEEF" stroke="#231815" stroke-width="0.7182" stroke-miterlimit="10" d="M355.232,351.92l1.614,4.693
						c0,0-16.951,5.879-17.774,3.488C338.253,357.706,355.232,351.92,355.232,351.92z"/>
				</g>
				<g>
					<path fill="#EEEEEF" stroke="#231815" stroke-width="0.7182" stroke-miterlimit="10" d="M361.325,423.702l6.83,2.843
						c0,0-9.655,23.379-13.137,21.929C351.536,447.026,361.325,423.702,361.325,423.702z"/>
					<path fill="#EEEEEF" stroke="#231815" stroke-width="0.7182" stroke-miterlimit="10" d="M365.299,414.149l6.832,2.844
						c0,0-9.654,23.383-13.137,21.934C355.513,437.477,365.299,414.149,365.299,414.149z"/>
					<path fill="#EEEEEF" stroke="#231815" stroke-width="0.7182" stroke-miterlimit="10" d="M369.439,404.205l6.831,2.845
						c0,0-9.655,23.381-13.137,21.932C359.654,427.534,369.439,404.205,369.439,404.205z"/>
					<path fill="#EEEEEF" stroke="#231815" stroke-width="0.7182" stroke-miterlimit="10" d="M373.019,396.406l6.264,2.605
						c0,0-8.853,21.439-12.045,20.109C364.046,417.794,373.019,396.406,373.019,396.406z"/>
					<path fill="#EEEEEF" stroke="#231815" stroke-width="0.7182" stroke-miterlimit="10" d="M376.577,388.656l5.696,2.37
						c0,0-8.051,19.495-10.952,18.288C368.417,408.104,376.577,388.656,376.577,388.656z"/>
					<path fill="#EEEEEF" stroke="#231815" stroke-width="0.7182" stroke-miterlimit="10" d="M379.846,382.008l4.845,2.016
						c0,0-6.85,16.582-9.316,15.551C372.905,398.548,379.846,382.008,379.846,382.008z"/>
				</g>
				<g>
					<path fill="#EEEEEF" stroke="#231815" stroke-width="0.7182" stroke-miterlimit="10" d="M520.472,279.81l-2.275-6.617
						c0,0,23.902-8.29,25.057-4.917C544.415,271.647,520.472,279.81,520.472,279.81z"/>
					<path fill="#EEEEEF" stroke="#231815" stroke-width="0.7182" stroke-miterlimit="10" d="M510.284,283.311l-2.273-6.619
						c0,0,23.898-8.288,25.059-4.915C534.229,275.151,510.284,283.311,510.284,283.311z"/>
					<path fill="#EEEEEF" stroke="#231815" stroke-width="0.7182" stroke-miterlimit="10" d="M502.077,285.826l-2.086-6.07
						c0,0,21.914-7.598,22.977-4.507C524.032,278.343,502.077,285.826,502.077,285.826z"/>
					<path fill="#EEEEEF" stroke="#231815" stroke-width="0.7182" stroke-miterlimit="10" d="M493.923,288.319l-1.896-5.518
						c0,0,19.928-6.91,20.896-4.098C513.89,281.518,493.923,288.319,493.923,288.319z"/>
					<path fill="#EEEEEF" stroke="#231815" stroke-width="0.7182" stroke-miterlimit="10" d="M486.788,290.312l-1.613-4.691
						c0,0,16.953-5.881,17.773-3.487S486.788,290.312,486.788,290.312z"/>
				</g>
				<g>
					<path fill="#EEEEEF" stroke="#231815" stroke-width="0.7182" stroke-miterlimit="10" d="M480.696,218.531l-6.83-2.844
						c0,0,9.656-23.38,13.137-21.931C490.485,195.205,480.696,218.531,480.696,218.531z"/>
					<path fill="#EEEEEF" stroke="#231815" stroke-width="0.7182" stroke-miterlimit="10" d="M476.722,228.081l-6.832-2.842
						c0,0,9.656-23.382,13.139-21.934C486.509,204.754,476.722,228.081,476.722,228.081z"/>
					<path fill="#EEEEEF" stroke="#231815" stroke-width="0.7182" stroke-miterlimit="10" d="M472.581,238.027l-6.83-2.845
						c0,0,9.658-23.379,13.137-21.933C482.368,214.697,472.581,238.027,472.581,238.027z"/>
					<path fill="#EEEEEF" stroke="#231815" stroke-width="0.7182" stroke-miterlimit="10" d="M469.001,245.828l-6.262-2.607
						c0,0,8.854-21.438,12.043-20.109C477.978,224.439,469.001,245.828,469.001,245.828z"/>
					<path fill="#EEEEEF" stroke="#231815" stroke-width="0.7182" stroke-miterlimit="10" d="M465.444,253.576l-5.697-2.368
						c0,0,8.051-19.497,10.955-18.29C473.604,234.129,465.444,253.576,465.444,253.576z"/>
					<path fill="#EEEEEF" stroke="#231815" stroke-width="0.7182" stroke-miterlimit="10" d="M462.177,260.224l-4.846-2.016
						c0,0,6.848-16.582,9.318-15.551C469.118,243.685,462.177,260.224,462.177,260.224z"/>
				</g>
				<g>
					<path fill="#EEEEEF" stroke="#231815" stroke-width="0.7182" stroke-miterlimit="10" d="M321.55,279.81l2.276-6.617
						c0,0-23.901-8.29-25.058-4.917C297.607,271.647,321.55,279.81,321.55,279.81z"/>
					<path fill="#EEEEEF" stroke="#231815" stroke-width="0.7182" stroke-miterlimit="10" d="M331.738,283.311l2.274-6.619
						c0,0-23.9-8.288-25.06-4.915C307.794,275.151,331.738,283.311,331.738,283.311z"/>
					<path fill="#EEEEEF" stroke="#231815" stroke-width="0.7182" stroke-miterlimit="10" d="M339.943,285.826l2.089-6.07
						c0,0-21.915-7.598-22.98-4.507C317.989,278.343,339.943,285.826,339.943,285.826z"/>
					<path fill="#EEEEEF" stroke="#231815" stroke-width="0.7182" stroke-miterlimit="10" d="M348.099,288.319l1.896-5.518
						c0,0-19.928-6.91-20.896-4.098C328.132,281.518,348.099,288.319,348.099,288.319z"/>
					<path fill="#EEEEEF" stroke="#231815" stroke-width="0.7182" stroke-miterlimit="10" d="M355.232,290.312l1.614-4.691
						c0,0-16.951-5.881-17.774-3.487C338.253,284.527,355.232,290.312,355.232,290.312z"/>
				</g>
				<g>
					<path fill="#EEEEEF" stroke="#231815" stroke-width="0.7182" stroke-miterlimit="10" d="M361.325,218.531l6.83-2.844
						c0,0-9.655-23.38-13.137-21.931C351.536,195.205,361.325,218.531,361.325,218.531z"/>
					<path fill="#EEEEEF" stroke="#231815" stroke-width="0.7182" stroke-miterlimit="10" d="M365.299,228.081l6.832-2.842
						c0,0-9.654-23.382-13.137-21.935C355.513,204.754,365.299,228.081,365.299,228.081z"/>
					<path fill="#EEEEEF" stroke="#231815" stroke-width="0.7182" stroke-miterlimit="10" d="M369.439,238.027l6.831-2.845
						c0,0-9.655-23.38-13.137-21.933C359.654,214.697,369.439,238.027,369.439,238.027z"/>
					<path fill="#EEEEEF" stroke="#231815" stroke-width="0.7182" stroke-miterlimit="10" d="M373.019,245.828l6.264-2.607
						c0,0-8.853-21.438-12.045-20.109C364.046,224.439,373.019,245.828,373.019,245.828z"/>
					<path fill="#EEEEEF" stroke="#231815" stroke-width="0.7182" stroke-miterlimit="10" d="M376.577,253.576l5.696-2.368
						c0,0-8.051-19.497-10.952-18.29C368.417,234.129,376.577,253.576,376.577,253.576z"/>
					<path fill="#EEEEEF" stroke="#231815" stroke-width="0.7182" stroke-miterlimit="10" d="M379.846,260.224l4.845-2.016
						c0,0-6.85-16.582-9.316-15.551C372.905,243.685,379.846,260.224,379.846,260.224z"/>
				</g>
			</g>
		</g>
		<g>
			<circle fill="#FFFFFF" stroke="#231815" stroke-width="0.7182" stroke-miterlimit="10" cx="419.021" cy="320.487" r="1.373"/>
			<circle fill="#FFFFFF" stroke="#231815" stroke-width="0.7182" stroke-miterlimit="10" cx="422.015" cy="319.454" r="1.371"/>
			<circle fill="#FFFFFF" stroke="#231815" stroke-width="0.7182" stroke-miterlimit="10" cx="419.882" cy="319.454" r="1.371"/>
			<circle fill="#FFFFFF" stroke="#231815" stroke-width="0.7182" stroke-miterlimit="10" cx="420.392" cy="323.232" r="1.373"/>
			<circle fill="#FFFFFF" stroke="#231815" stroke-width="0.7182" stroke-miterlimit="10" cx="419.021" cy="322.198" r="1.373"/>
			<circle fill="#FFFFFF" stroke="#231815" stroke-width="0.7182" stroke-miterlimit="10" cx="423.171" cy="320.635" r="1.373"/>
			<circle fill="#FFFFFF" stroke="#231815" stroke-width="0.7182" stroke-miterlimit="10" cx="422.58" cy="322.992" r="1.373"/>
			<circle fill="#FFFFFF" stroke="#231815" stroke-width="0.7182" stroke-miterlimit="10" cx="421.206" cy="321.62" r="1.373"/>
		</g>
	</g>
</g>
</svg>
