<?xml version="1.0" encoding="utf-8"?>
<!-- Generator: Adobe Illustrator 15.0.0, SVG Export Plug-In . SVG Version: 6.00 Build 0)  -->
<!DOCTYPE svg PUBLIC "-//W3C//DTD SVG 1.1//EN" "http://www.w3.org/Graphics/SVG/1.1/DTD/svg11.dtd">
<svg version="1.1" id="レイヤー_1" xmlns="http://www.w3.org/2000/svg" xmlns:xlink="http://www.w3.org/1999/xlink" x="0px"
	 y="0px" width="841.89px" height="595.28px" viewBox="0 0 841.89 595.28" enable-background="new 0 0 841.89 595.28"
	 xml:space="preserve">
<g>
	<g>
		<path fill="none" stroke="#F0E442" stroke-width="1.5" stroke-miterlimit="10" d="M474.484,257.521
			c-18.741-2.63-38.381,4.217-49.414,19.478"/>
		<g>
			<path fill="#F0E442" d="M422.606,280.799c0.521-2.211,0.86-5.158,0.577-7.313l2.256,3.049l3.686,0.898
				C427.028,278.007,424.443,279.462,422.606,280.799z"/>
		</g>
	</g>
</g>
<g>
	<g>
		<path fill="none" stroke="#F0E442" stroke-width="1.5" stroke-miterlimit="10" d="M474.484,256.421
			c-18.741,2.629-38.381-4.217-49.414-19.479"/>
		<g>
			<path fill="#F0E442" d="M422.606,233.142c1.837,1.337,4.423,2.792,6.519,3.365l-3.686,0.899l-2.256,3.048
				C423.467,238.3,423.127,235.353,422.606,233.142z"/>
		</g>
	</g>
</g>
<g>
	<g>
		<path fill="none" stroke="#F0E442" stroke-width="1.5" stroke-miterlimit="10" d="M474.484,324.553
			c-23.662-1.908-40.08,7.529-51.498,21.745"/>
		<g>
			<path fill="#F0E442" d="M420.261,349.911c0.667-2.172,1.203-5.09,1.064-7.259l2.048,3.192l3.616,1.144
				C424.859,347.421,422.183,348.7,420.261,349.911z"/>
		</g>
	</g>
</g>
<g>
	<g>
		<path fill="none" stroke="#F0E442" stroke-width="1.5" stroke-miterlimit="10" d="M474.484,321.543
			c-16.176-1.121-38.441-12.62-50.246-22.903"/>
		<g>
			<path fill="#F0E442" d="M420.955,295.527c2.096,0.875,4.948,1.692,7.121,1.766l-3.377,1.728l-1.49,3.487
				C422.986,300.346,421.974,297.558,420.955,295.527z"/>
		</g>
	</g>
</g>
<g>
	<g>
		
			<line fill="none" stroke="#E7800A" stroke-width="1.5" stroke-miterlimit="10" x1="410.875" y1="224.485" x2="339.132" y2="186.889"/>
		<g>
			<path fill="#E7800A" d="M335.123,184.788c2.253,0.289,5.22,0.321,7.334-0.184l-2.799,2.561l-0.512,3.757
				C338.358,188.897,336.643,186.476,335.123,184.788z"/>
		</g>
	</g>
</g>
<g>
	<g>
		
			<line fill="none" stroke="#3B9CC9" stroke-width="1.5" stroke-miterlimit="10" x1="407.369" y1="289.928" x2="333.923" y2="194.952"/>
		<g>
			<path fill="#3B9CC9" d="M331.154,191.371c1.928,1.202,4.611,2.467,6.743,2.889l-3.611,1.161l-2.032,3.202
				C332.382,196.454,331.833,193.539,331.154,191.371z"/>
		</g>
	</g>
</g>
<rect x="314.73" y="170.359" transform="matrix(0.7071 -0.7071 0.7071 0.7071 -31.8784 281.1693)" fill="#C9CACA" stroke="#000000" stroke-width="0.5" stroke-miterlimit="10" width="17.407" height="17.407"/>
<g>
	<g>
		
			<line fill="none" stroke="#E57FC6" stroke-width="1.5" stroke-miterlimit="10" x1="410.993" y1="355.369" x2="482.883" y2="399.316"/>
		<g>
			<path fill="#E57FC6" d="M486.745,401.677c-2.229-0.437-5.188-0.664-7.33-0.3l2.962-2.371l0.759-3.716
				C483.788,397.363,485.34,399.893,486.745,401.677z"/>
		</g>
	</g>
</g>
<g>
	<g>
		
			<line fill="none" stroke="#3B9CC9" stroke-width="1.5" stroke-miterlimit="10" x1="410.992" y1="289.927" x2="488.35" y2="391.556"/>
		<g>
			<path fill="#3B9CC9" d="M491.092,395.157c-1.919-1.216-4.592-2.502-6.721-2.94l3.619-1.134l2.057-3.187
				C489.902,390.064,490.43,392.984,491.092,395.157z"/>
		</g>
	</g>
</g>
<rect x="489.731" y="397.42" transform="matrix(-0.7071 0.7071 -0.7071 -0.7071 1138.0508 340.8236)" fill="#C9CACA" stroke="#000000" stroke-width="0.5" stroke-miterlimit="10" width="17.406" height="17.406"/>
<g>
	<path fill="none" d="M404.862,289.928"/>
</g>
<g>
	<g>
		<path fill="none" stroke="#3B9CC9" stroke-width="1.5" stroke-miterlimit="10" d="M408.107,284.326
			c-6.446-13.725-8.239-31.035-2.937-45.397"/>
		<g>
			<path fill="#3B9CC9" d="M406.952,234.766c-0.089,2.27,0.141,5.228,0.83,7.289l-2.797-2.562l-3.788-0.179
				C403.145,238.351,405.405,236.429,406.952,234.766z"/>
		</g>
	</g>
</g>
<g>
	<g>
		<path fill="none" stroke="#E7800A" stroke-width="1.5" stroke-miterlimit="10" d="M414.982,230.59
			c6.447,13.722,7.5,30.408,2.066,44.657"/>
		<g>
			<path fill="#E7800A" d="M415.244,279.4c0.104-2.27-0.106-5.229-0.782-7.294l2.78,2.58l3.787,0.204
				C419.075,275.841,416.802,277.748,415.244,279.4z"/>
		</g>
	</g>
</g>
<g>
	<g>
		<path fill="none" stroke="#3B9CC9" stroke-width="1.5" stroke-miterlimit="10" d="M414.204,286.383
			c18.741,2.629,38.382-4.216,49.415-19.479"/>
		<g>
			<path fill="#3B9CC9" d="M466.082,263.104c-0.52,2.211-0.859,5.159-0.576,7.313l-2.257-3.049l-3.685-0.899
				C461.66,265.896,464.246,264.441,466.082,263.104z"/>
		</g>
	</g>
</g>
<g>
	<g>
		<path fill="none" stroke="#E7800A" stroke-width="1.5" stroke-miterlimit="10" d="M414.204,226.28
			c18.741-2.629,38.382,4.216,49.415,19.479"/>
		<g>
			<path fill="#E7800A" d="M466.082,249.559c-1.836-1.337-4.422-2.792-6.518-3.366l3.685-0.899l2.257-3.048
				C465.223,244.4,465.562,247.348,466.082,249.559z"/>
		</g>
	</g>
</g>
<g>
	<g>
		<path fill="none" stroke="#E57FC6" stroke-width="1.5" stroke-miterlimit="10" d="M414.204,353.907
			c18.742,2.629,38.382-4.217,49.415-19.479"/>
		<g>
			<path fill="#E57FC6" d="M466.082,330.628c-0.52,2.211-0.859,5.158-0.576,7.313l-2.257-3.049l-3.685-0.898
				C461.66,333.42,464.246,331.965,466.082,330.628z"/>
		</g>
	</g>
</g>
<g>
	<g>
		<path fill="none" stroke="#3B9CC9" stroke-width="1.5" stroke-miterlimit="10" d="M414.204,293.429
			c18.741-2.629,38.382,4.216,49.415,19.479"/>
		<g>
			<path fill="#3B9CC9" d="M466.082,316.708c-1.836-1.337-4.422-2.792-6.518-3.366l3.685-0.898l2.257-3.049
				C465.223,311.55,465.562,314.497,466.082,316.708z"/>
		</g>
	</g>
</g>
<rect x="465.734" y="248.662" transform="matrix(-0.707 -0.7072 0.7072 -0.707 627.8791 774.844)" fill="#F0E442" stroke="#000000" stroke-width="0.5" stroke-miterlimit="10" width="17.407" height="17.407"/>
<g>
	<g>
		
			<line fill="none" stroke="#E7800A" stroke-width="1.5" stroke-miterlimit="10" x1="410.992" y1="224.485" x2="482.158" y2="184.286"/>
		<g>
			<path fill="#E7800A" d="M486.1,182.06c-1.466,1.736-3.104,4.209-3.827,6.258l-0.632-3.74l-2.877-2.47
				C480.893,182.546,483.857,182.42,486.1,182.06z"/>
		</g>
	</g>
</g>
<g>
	<g>
		
			<line fill="none" stroke="#3B9CC9" stroke-width="1.5" stroke-miterlimit="10" x1="410.992" y1="289.927" x2="488.273" y2="192.812"/>
		<g>
			<path fill="#3B9CC9" d="M491.092,189.27c-0.708,2.159-1.299,5.066-1.201,7.237l-1.987-3.23l-3.594-1.211
				C486.447,191.673,489.148,190.444,491.092,189.27z"/>
		</g>
	</g>
</g>
<rect x="489.73" y="170.359" transform="matrix(-0.7071 -0.7071 0.7071 -0.7071 724.2349 658.1372)" fill="#C9CACA" stroke="#000000" stroke-width="0.5" stroke-miterlimit="10" width="17.407" height="17.407"/>
<circle fill="#E7800A" stroke="#000000" stroke-width="0.5" stroke-miterlimit="10" cx="410.992" cy="224.486" r="9.963"/>
<g>
	<g>
		<path fill="none" stroke="#3B9CC9" stroke-width="1.5" stroke-miterlimit="10" d="M407.369,295.527
			c-6.446,13.725-8.239,31.035-2.937,45.398"/>
		<g>
			<path fill="#3B9CC9" d="M406.214,345.088c-1.548-1.664-3.809-3.584-5.756-4.549l3.788-0.18l2.797-2.561
				C406.354,339.859,406.124,342.818,406.214,345.088z"/>
		</g>
	</g>
</g>
<g>
	<g>
		<path fill="none" stroke="#E57FC6" stroke-width="1.5" stroke-miterlimit="10" d="M414.244,349.264
			c6.447-13.723,7.501-30.408,2.066-44.658"/>
		<g>
			<path fill="#E57FC6" d="M414.506,300.453c1.559,1.652,3.832,3.559,5.786,4.51l-3.787,0.204l-2.78,2.579
				C414.4,305.682,414.61,302.722,414.506,300.453z"/>
		</g>
	</g>
</g>
<rect x="465.732" y="313.783" transform="matrix(0.7071 0.7071 -0.7071 0.7071 367.0143 -241.0266)" fill="#F0E442" stroke="#000000" stroke-width="0.5" stroke-miterlimit="10" width="17.406" height="17.408"/>
<g>
	<g>
		
			<line fill="none" stroke="#E57FC6" stroke-width="1.5" stroke-miterlimit="10" x1="410.874" y1="355.369" x2="339.674" y2="397.004"/>
		<g>
			<path fill="#E57FC6" d="M335.767,399.289c1.439-1.758,3.04-4.255,3.733-6.315l0.687,3.73l2.914,2.428
				C340.966,398.726,338.004,398.896,335.767,399.289z"/>
		</g>
	</g>
</g>
<g>
	<g>
		
			<line fill="none" stroke="#3B9CC9" stroke-width="1.5" stroke-miterlimit="10" x1="407.369" y1="289.928" x2="333.81" y2="391.491"/>
		<g>
			<path fill="#3B9CC9" d="M331.154,395.157c0.609-2.188,1.067-5.12,0.872-7.284l2.132,3.138l3.645,1.047
				C335.685,392.546,333.043,393.896,331.154,395.157z"/>
		</g>
	</g>
</g>
<rect x="314.729" y="397.42" transform="matrix(0.7071 0.7071 -0.7071 0.7071 381.924 -109.7484)" fill="#C9CACA" stroke="#000000" stroke-width="0.5" stroke-miterlimit="10" width="17.406" height="17.406"/>
<circle fill="#E57FC6" stroke="#000000" stroke-width="0.5" stroke-miterlimit="10" cx="410.874" cy="355.367" r="9.963"/>
<circle fill="#3B9CC9" stroke="#000000" stroke-width="0.5" stroke-miterlimit="10" cx="410.992" cy="289.926" r="9.963"/>
<text transform="matrix(1 0 0 1 488.2207 164.645)" font-family="'ArialMT'" font-size="10.0852">balancer Q1</text>
<text transform="matrix(1 0 0 1 489.2012 259.5459)" font-family="'ArialMT'" font-size="10.0852">bridge Q1Q2</text>
<text transform="matrix(1 0 0 1 280.084 164.645)" font-family="'ArialMT'" font-size="10.0852">balancer Q2</text>
<text transform="matrix(1 0 0 1 280.085 427.6055)" font-family="'ArialMT'" font-size="10.0852">balancer Q3</text>
<text transform="matrix(1 0 0 1 488.2207 427.6055)" font-family="'ArialMT'" font-size="10.0852">balancer Q4</text>
<text transform="matrix(1 0 0 1 489.2012 324.8574)" font-family="'ArialMT'" font-size="10.0852">bridge Q3Q4</text>
<text transform="matrix(1 0 0 1 399.2524 259.4033)" fill="#FFFFFF" stroke="#FFFFFF" stroke-width="1.5" stroke-linecap="round" stroke-linejoin="round" stroke-miterlimit="10" font-family="'Arial-BoldMT'" font-size="10.0852">9</text>
<text transform="matrix(1 0 0 1 417.0044 259.4033)" fill="#FFFFFF" stroke="#FFFFFF" stroke-width="1.5" stroke-linecap="round" stroke-linejoin="round" stroke-miterlimit="10" font-family="'Arial-BoldMT'" font-size="10.0852">1</text>
<text transform="matrix(1 0 0 1 399.2339 325.207)" fill="#FFFFFF" stroke="#FFFFFF" stroke-width="1.5" stroke-linecap="round" stroke-linejoin="round" stroke-miterlimit="10" font-family="'Arial-BoldMT'" font-size="10.0852">8</text>
<text transform="matrix(1 0 0 1 417.1431 325.207)" fill="#FFFFFF" stroke="#FFFFFF" stroke-width="1.5" stroke-linecap="round" stroke-linejoin="round" stroke-miterlimit="10" font-family="'Arial-BoldMT'" font-size="10.0852">9</text>
<text transform="matrix(1 0 0 1 399.2524 259.4033)" fill="#666666" font-family="'Arial-BoldMT'" font-size="10.0852">9</text>
<text transform="matrix(1 0 0 1 417.0044 259.4033)" fill="#666666" font-family="'Arial-BoldMT'" font-size="10.0852">1</text>
<text transform="matrix(1 0 0 1 399.2339 325.207)" fill="#666666" font-family="'Arial-BoldMT'" font-size="10.0852">8</text>
<text transform="matrix(1 0 0 1 417.1431 325.207)" fill="#666666" font-family="'Arial-BoldMT'" font-size="10.0852">9</text>
<text transform="matrix(1 0 0 1 382.1333 206.3418)" fill="#E7800A" font-family="'Arial-BoldMT'" font-size="11">SSN Q1Q2</text>
<text transform="matrix(1 0 0 1 383.4824 381.3047)" fill="#E57FC6" font-family="'Arial-BoldMT'" font-size="11">SSN Q3Q4</text>
<text transform="matrix(1 0 0 1 347.1475 292.8789)" fill="#3B9CC9" font-family="'Arial-BoldMT'" font-size="11">SSN Q1-4</text>
<text transform="matrix(1 0 0 1 360.8594 204.6367)" fill="#666666" stroke="#FFFFFF" stroke-width="2" stroke-miterlimit="10" font-family="'Arial-BoldMT'" font-size="10.0852">16</text>
<text transform="matrix(1 0 0 1 363.6528 245.0562)" fill="#666666" stroke="#FFFFFF" stroke-width="2" stroke-miterlimit="10" font-family="'Arial-BoldMT'" font-size="10.0852">12</text>
<text transform="matrix(1 0 0 1 363.6641 349.9111)" fill="#666666" stroke="#FFFFFF" stroke-width="2" stroke-miterlimit="10" font-family="'Arial-BoldMT'" font-size="10.0852">7</text>
<text transform="matrix(1 0 0 1 363.6641 384.373)" fill="#666666" stroke="#FFFFFF" stroke-width="2" stroke-miterlimit="10" font-family="'Arial-BoldMT'" font-size="10.0852">2</text>
<text transform="matrix(1 0 0 1 447.7891 203.2729)" fill="#666666" stroke="#FFFFFF" stroke-width="2" stroke-miterlimit="10" font-family="'Arial-BoldMT'" font-size="10.0852">13</text>
<text transform="matrix(1 0 0 1 461.5723 225.7295)" fill="#666666" stroke="#FFFFFF" stroke-width="2" stroke-miterlimit="10" font-family="'Arial-BoldMT'" font-size="10.0852">8</text>
<text transform="matrix(1 0 0 1 463.1357 365.332)" fill="#666666" stroke="#FFFFFF" stroke-width="2" stroke-miterlimit="10" font-family="'Arial-BoldMT'" font-size="10.0852">19</text>
<text transform="matrix(1 0 0 1 450.5918 385.9668)" fill="#666666" stroke="#FFFFFF" stroke-width="2" stroke-miterlimit="10" font-family="'Arial-BoldMT'" font-size="10.0852">5</text>
<text transform="matrix(1 0 0 1 434.5352 354.457)" fill="#666666" stroke="#FFFFFF" stroke-width="2" stroke-miterlimit="10" font-family="'Arial-BoldMT'" font-size="10.0852">12</text>
<text transform="matrix(1 0 0 1 442.2402 316.707)" fill="#666666" stroke="#FFFFFF" stroke-width="2" stroke-miterlimit="10" font-family="'Arial-BoldMT'" font-size="10.0852">6</text>
<text transform="matrix(1 0 0 1 427.6484 247.1299)" fill="#666666" stroke="#FFFFFF" stroke-width="2" stroke-miterlimit="10" font-family="'Arial-BoldMT'" font-size="10.0852">17</text>
<text transform="matrix(1 0 0 1 434.5352 233.1416)" fill="#666666" stroke="#FFFFFF" stroke-width="2" stroke-miterlimit="10" font-family="'Arial-BoldMT'" font-size="10.0852">57</text>
<text transform="matrix(1 0 0 1 425.8633 340.7402)" fill="#666666" stroke="#FFFFFF" stroke-width="2" stroke-miterlimit="10" font-family="'Arial-BoldMT'" font-size="10.0852">19</text>
<text transform="matrix(1 0 0 1 443.8047 284.3262)" fill="#666666" stroke="#FFFFFF" stroke-width="2" stroke-miterlimit="10" font-family="'Arial-BoldMT'" font-size="10.0852">6</text>
<text transform="matrix(1 0 0 1 437.8281 300.4531)" fill="#666666" stroke="#FFFFFF" stroke-width="2" stroke-miterlimit="10" font-family="'Arial-BoldMT'" font-size="10.0852">30</text>
<text transform="matrix(1 0 0 1 440.6328 266.1479)" fill="#666666" stroke="#FFFFFF" stroke-width="2" stroke-miterlimit="10" font-family="'Arial-BoldMT'" font-size="10.0852">2</text>
<text transform="matrix(1 0 0 1 360.8594 204.6367)" fill="#666666" font-family="'Arial-BoldMT'" font-size="10.0852">16</text>
<text transform="matrix(1 0 0 1 363.6528 245.0562)" fill="#666666" font-family="'Arial-BoldMT'" font-size="10.0852">12</text>
<text transform="matrix(1 0 0 1 363.6641 349.9111)" fill="#666666" font-family="'Arial-BoldMT'" font-size="10.0852">7</text>
<text transform="matrix(1 0 0 1 363.6641 384.373)" fill="#666666" font-family="'Arial-BoldMT'" font-size="10.0852">2</text>
<text transform="matrix(1 0 0 1 447.7891 203.2729)" fill="#666666" font-family="'Arial-BoldMT'" font-size="10.0852">13</text>
<text transform="matrix(1 0 0 1 461.5723 225.7295)" fill="#666666" font-family="'Arial-BoldMT'" font-size="10.0852">8</text>
<text transform="matrix(1 0 0 1 463.1357 365.332)" fill="#666666" font-family="'Arial-BoldMT'" font-size="10.0852">19</text>
<text transform="matrix(1 0 0 1 450.5918 385.9668)" fill="#666666" font-family="'Arial-BoldMT'" font-size="10.0852">5</text>
<text transform="matrix(1 0 0 1 434.5352 354.457)" fill="#666666" font-family="'Arial-BoldMT'" font-size="10.0852">12</text>
<text transform="matrix(1 0 0 1 442.2402 316.707)" fill="#666666" font-family="'Arial-BoldMT'" font-size="10.0852">6</text>
<text transform="matrix(1 0 0 1 427.6484 247.1299)" fill="#666666" font-family="'Arial-BoldMT'" font-size="10.0852">17</text>
<text transform="matrix(1 0 0 1 434.5352 233.1416)" fill="#666666" font-family="'Arial-BoldMT'" font-size="10.0852">57</text>
<text transform="matrix(1 0 0 1 425.8633 340.7402)" fill="#666666" font-family="'Arial-BoldMT'" font-size="10.0852">19</text>
<text transform="matrix(1 0 0 1 443.8047 284.3262)" fill="#666666" font-family="'Arial-BoldMT'" font-size="10.0852">6</text>
<text transform="matrix(1 0 0 1 437.8281 300.4531)" fill="#666666" font-family="'Arial-BoldMT'" font-size="10.0852">30</text>
<text transform="matrix(1 0 0 1 440.6328 266.1479)" fill="#666666" font-family="'Arial-BoldMT'" font-size="10.0852">2</text>
</svg>
