<?xml version="1.0" encoding="utf-8"?>
<!-- Generator: Adobe Illustrator 15.0.0, SVG Export Plug-In . SVG Version: 6.00 Build 0)  -->
<!DOCTYPE svg PUBLIC "-//W3C//DTD SVG 1.1//EN" "http://www.w3.org/Graphics/SVG/1.1/DTD/svg11.dtd">
<svg version="1.1" id="レイヤー_1" xmlns="http://www.w3.org/2000/svg" xmlns:xlink="http://www.w3.org/1999/xlink" x="0px"
	 y="0px" width="841.89px" height="595.28px" viewBox="0 0 841.89 595.28" enable-background="new 0 0 841.89 595.28"
	 xml:space="preserve">
<g>
	<g>
		<g>
			<g>
				
					<line fill="none" stroke="#FBB03B" stroke-width="0.5" stroke-miterlimit="10" x1="497.458" y1="206.049" x2="497.458" y2="129.855"/>
				
					<line fill="none" stroke="#FBB03B" stroke-width="0.5" stroke-miterlimit="10" x1="497.458" y1="206.049" x2="565.985" y2="238.299"/>
				
					<line fill="none" stroke="#FBB03B" stroke-width="0.5" stroke-miterlimit="10" x1="428.117" y1="239.092" x2="497.458" y2="206.049"/>
			</g>
			<polyline fill="none" stroke="#FBB03B" stroke-width="0.5" stroke-miterlimit="10" points="428.117,162.898 428.117,239.092 
				496.644,271.342 			"/>
			
				<line fill="none" stroke="#FBB03B" stroke-width="0.5" stroke-miterlimit="10" x1="407.441" y1="244.182" x2="428.117" y2="239.092"/>
			<path fill="none" stroke="#FBB03B" stroke-width="0.5" stroke-miterlimit="10" d="M428.117,239.092"/>
		</g>
		<g>
			<polygon opacity="0.5" fill="#E0B53A" points="428.117,239.092 407.441,244.182 407.441,232.752 428.117,162.898 			"/>
			<polygon opacity="0.5" fill="#E0B53A" points="428.117,239.092 496.644,271.342 417.72,249.018 407.441,244.182 			"/>
			<polygon opacity="0.5" fill="#E0B53A" points="428.117,239.092 497.458,206.049 565.985,238.299 496.644,271.342 			"/>
			<polygon opacity="0.5" fill="#E0B53A" points="565.985,238.299 565.985,162.105 497.458,129.855 497.458,206.049 			"/>
			<polygon opacity="0.5" fill="#E0B53A" points="428.117,162.898 497.458,129.855 497.458,206.049 428.117,239.092 			"/>
		</g>
		<g>
			
				<radialGradient id="SVGID_1_" cx="809.1328" cy="48.0098" r="39.1773" gradientTransform="matrix(0.4287 0.9034 -0.9034 0.4287 172.6493 -540.9622)" gradientUnits="userSpaceOnUse">
				<stop  offset="0.2" style="stop-color:#CCCCCC"/>
				<stop  offset="0.5939" style="stop-color:#CACACA"/>
				<stop  offset="0.7357" style="stop-color:#C3C3C3"/>
				<stop  offset="0.8368" style="stop-color:#B8B8B8"/>
				<stop  offset="0.9184" style="stop-color:#A7A7A7"/>
				<stop  offset="0.9876" style="stop-color:#919191"/>
				<stop  offset="1" style="stop-color:#8C8C8C"/>
			</radialGradient>
			<path fill="url(#SVGID_1_)" stroke="#231815" stroke-width="0.4244" stroke-miterlimit="10" d="M454.95,177.105
				c21.861-10.375,47.148-2.836,56.482,16.836c9.334,19.67-0.816,43.842-22.678,54.213c-18.203,8.625-35.828,4.291-40.502-5.555
				c-2.822-5.941-0.307-14.674-1.869-17.896c-1.75-3.574-9.958-6.842-12.655-12.52C429.422,203.105,437.189,185.531,454.95,177.105z
				"/>
			<path fill="#FFFFFF" stroke="#DBDCDC" stroke-width="0.3291" stroke-miterlimit="10" d="M447.966,223.998
				c-0.818-1.842-0.773-2.311,1.279-3.682c1.963-1.314,6.201-5.066,6.143-6.988c-0.105-3.531-5.34-3.813-7.604-7.012
				c-2.744-3.887-3.33-9.74,1.52-12.59c8.451-4.969,10.584,5.578,10.99,8.928c0.449,3.736,0.822,9.818,9.063,6.924
				c6.641-2.33,39.43-18.953,41.211-15.197l0.008,0.016c1.695,3.572-31.918,18.461-37.922,22.127
				c-7.453,4.553-2.889,8.762-0.281,11.402c2.34,2.436,9.16,10.75-0.031,14.16c-5.273,1.953-9.441-2.205-10.713-6.787
				c-1.047-3.775,2.045-8.002-0.623-10.254c-1.453-1.217-7.037-0.346-9.299,0.32C449.341,226.076,448.929,225.791,447.966,223.998"
				/>
			<path fill="none" stroke="#231815" stroke-width="0.3183" stroke-miterlimit="10" d="M446.942,228.877
				c-4.672,6.006-8.508,2.514-9.649,0.104c-1.061-2.203-0.979-7.211,6.142-7.412"/>
			<g>
				<g>
					<path fill="none" stroke="#231815" stroke-width="0.2783" stroke-miterlimit="10" d="M444.272,227.285
						c0.711-0.129,1.541-0.113,1.596-0.734c0.057-0.637,0.148-0.975,0.652-1.227"/>
					<path fill="none" stroke="#231815" stroke-width="0.2783" stroke-miterlimit="10" d="M443.032,224.723
						c0.551-0.453,1.063-1.084,1.598-0.732c0.529,0.354,0.848,0.494,1.367,0.27"/>
				</g>
				<g>
					<path fill="#FFFFFF" stroke="#231815" stroke-width="0.2783" stroke-miterlimit="10" d="M442.085,226.086
						c0.301-0.145,0.662-0.012,0.803,0.287c0.145,0.299,0.016,0.643-0.285,0.779c-0.301,0.143-0.662,0.02-0.805-0.275
						C441.655,226.588,441.782,226.23,442.085,226.086z"/>
					<path fill="#FFFFFF" stroke="#231815" stroke-width="0.2783" stroke-miterlimit="10" d="M443.845,227.01
						c0.303-0.137,0.664-0.014,0.807,0.279c0.145,0.289,0.014,0.646-0.289,0.789c-0.301,0.145-0.66,0.016-0.803-0.287
						C443.415,227.498,443.544,227.15,443.845,227.01z"/>
					<path fill="#FFFFFF" stroke="#231815" stroke-width="0.2783" stroke-miterlimit="10" d="M444.146,226.252
						c-0.303,0.143-0.662,0.018-0.807-0.289c-0.143-0.301-0.014-0.658,0.289-0.797c0.299-0.139,0.662-0.014,0.803,0.281
						C444.575,225.748,444.446,226.109,444.146,226.252z"/>
					<path fill="#FFFFFF" stroke="#231815" stroke-width="0.2783" stroke-miterlimit="10" d="M442.728,225.328
						c-0.297,0.145-0.66,0.02-0.805-0.277c-0.141-0.289-0.016-0.641,0.287-0.777s0.662-0.014,0.805,0.277
						C443.157,224.844,443.032,225.191,442.728,225.328z"/>
					<circle fill="#FFFFFF" stroke="#231815" stroke-width="0.2783" stroke-miterlimit="10" cx="442.106" cy="225.881" r="0.604"/>
					<path fill="#FFFFFF" stroke="#231815" stroke-width="0.2783" stroke-miterlimit="10" d="M443.728,226.057
						c0.332,0.018,0.588,0.301,0.57,0.625c-0.016,0.326-0.299,0.568-0.633,0.553c-0.336-0.012-0.59-0.285-0.572-0.609
						C443.11,226.297,443.392,226.039,443.728,226.057z"/>
					<path fill="#FFFFFF" stroke="#231815" stroke-width="0.2783" stroke-miterlimit="10" d="M442.97,224.898
						c0.332,0.016,0.59,0.289,0.572,0.617c-0.018,0.336-0.303,0.592-0.635,0.574s-0.59-0.305-0.574-0.637
						C442.353,225.129,442.634,224.879,442.97,224.898z"/>
					<path fill="#FFFFFF" stroke="#231815" stroke-width="0.2783" stroke-miterlimit="10" d="M442.978,226.594
						c0.334,0.014,0.592,0.287,0.574,0.611c-0.016,0.322-0.301,0.57-0.637,0.555c-0.332-0.018-0.59-0.291-0.57-0.619
						C442.36,226.824,442.646,226.576,442.978,226.594z"/>
				</g>
			</g>
			<g>
				<g>
					<g>
						<path fill="#4D4D4D" stroke="#4D4D4D" stroke-width="0.3925" stroke-miterlimit="10" d="M435.678,204.605
							c-1.203-0.289-2.225-2.363-2.592-6.145c-0.314-3.26-0.912-6.223-1.121-8.092c0.678,5.654,1.041,13.971,2.967,14.314"/>
						<path fill="#4D4D4D" stroke="#4D4D4D" stroke-width="0.3925" stroke-miterlimit="10" d="M436.572,201.74
							c-5.383-3.043-0.418-12.904-0.801-18.086c0.154,2.326-0.211,5.008-0.652,7.068c-0.498,2.34-0.65,4.121-0.641,5.477
							c0.01,1.93,0.104,3.316,1.531,4.652"/>
						<path fill="#4D4D4D" stroke="#4D4D4D" stroke-width="0.3925" stroke-miterlimit="10" d="M437.885,198.275
							c-4.33-0.76,2.624-14.211,0.014-16.857c2.278,2.5-4.256,15.094-0.832,16.051"/>
						<path fill="#4D4D4D" stroke="#4D4D4D" stroke-width="0.3925" stroke-miterlimit="10" d="M439.556,194.727
							c-6.042-2.041,3.496-9.988,2.77-15.41c0.689,5.152-8.632,12.756-2.965,14.672"/>
						<path fill="#4D4D4D" stroke="#4D4D4D" stroke-width="0.3925" stroke-miterlimit="10" d="M440.892,191.805
							c-2.137-2.273,4.574-10.051,6.004-12.398c-1.379,2.465-7.418,10.068-5.273,12.355"/>
					</g>
					<g>
						<path fill="#4D4D4D" stroke="#4D4D4D" stroke-width="0.3925" stroke-miterlimit="10" d="M445.085,211.771
							c-0.961-0.906-1.449-2.092-1.688-3.521c-1.197-7.195,1.578-11.76,1.605-20.607c0.354,7.822-3.006,15.055-1.082,21.588
							c0.08,0.27,0.432,0.879,0.631,1.051"/>
						<path fill="#4D4D4D" stroke="#4D4D4D" stroke-width="0.3925" stroke-miterlimit="10" d="M447.282,208.297
							c-6.805-3.113,2.727-16.656,4.102-28.369c-2.064,11.299-9.943,23.797-4.516,27.113"/>
						<path fill="#4D4D4D" stroke="#4D4D4D" stroke-width="0.3925" stroke-miterlimit="10" d="M450.021,205.176
							c-6.068-2.752,3.957-16.646,4.367-26.674c0.141,5.025-1.219,6.713-3.258,11.551c-2.555,6.076-5.063,12.377-1.691,13.916"/>
						<path fill="#4D4D4D" stroke="#4D4D4D" stroke-width="0.3925" stroke-miterlimit="10" d="M453.048,202.293
							c-9.355-3.068,5.902-15.547,5.832-24.242c0.066,8.293-14.947,20.156-6.232,23.016"/>
						<path fill="#4D4D4D" stroke="#4D4D4D" stroke-width="0.3925" stroke-miterlimit="10" d="M458.282,197.551
							c-2.854-3.891,9.514-14.727,12.139-17.469c-2.703,2.986-13.719,13.5-10.861,17.348"/>
						<path fill="#4D4D4D" stroke="#4D4D4D" stroke-width="0.3925" stroke-miterlimit="10" d="M455.981,200.203
							c-7.908-5.863,7.188-16.625,11.012-23.889c-3.102,8.029-17.652,16.289-11.004,22.6"/>
					</g>
				</g>
				<g>
					<g>
						<path fill="#4D4D4D" stroke="#4D4D4D" stroke-width="0.3925" stroke-miterlimit="10" d="M455.231,245.625
							c-0.535,1.113,0.426,3.219,3.123,5.895c2.324,2.303,4.24,4.639,5.557,5.973c-3.949-4.086-10.164-9.631-9.211-11.34"/>
						<path fill="#4D4D4D" stroke="#4D4D4D" stroke-width="0.3925" stroke-miterlimit="10" d="M458.017,246.74
							c-1.047,6.1,9.73,8.492,13.504,12.051c-1.703-1.592-4.016-2.992-5.887-3.953c-2.129-1.094-3.605-2.104-4.65-2.965
							c-1.488-1.229-2.502-2.178-2.635-4.129"/>
						<path fill="#4D4D4D" stroke="#4D4D4D" stroke-width="0.3925" stroke-miterlimit="10" d="M461.53,247.918
							c-2.15,3.838,12.67,6.953,13.068,10.643c-0.496-3.338-14.387-6.238-12.961-9.496"/>
						<path fill="#4D4D4D" stroke="#4D4D4D" stroke-width="0.3925" stroke-miterlimit="10" d="M465.337,248.869
							c-2.242,5.975,9.949,3.611,13.691,7.602c-3.555-3.793-15.344-1.379-13.242-6.982"/>
						<path fill="#4D4D4D" stroke="#4D4D4D" stroke-width="0.3925" stroke-miterlimit="10" d="M468.446,249.682
							c0.408,3.096,10.676,2.816,13.398,3.189c-2.781-0.49-12.488-0.619-12.904-3.725"/>
					</g>
					<g>
						<path fill="#4D4D4D" stroke="#4D4D4D" stroke-width="0.3925" stroke-miterlimit="10" d="M455.634,233.807
							c0.094,1.316,0.701,2.447,1.66,3.537c4.813,5.477,10.105,6.209,16.977,11.785c-5.836-5.219-13.563-7.193-17.41-12.813
							c-0.158-0.232-0.404-0.893-0.414-1.154"/>
						<path fill="#4D4D4D" stroke="#4D4D4D" stroke-width="0.3925" stroke-miterlimit="10" d="M459.716,234.305
							c-1.896,7.24,14.623,8.42,24.564,14.766c-10.057-5.551-24.721-7.35-23.859-13.652"/>
						<path fill="#4D4D4D" stroke="#4D4D4D" stroke-width="0.3925" stroke-miterlimit="10" d="M463.86,234.154
							c-1.707,6.439,15.398,7.461,23.426,13.484c-3.805-3.285-5.973-3.299-11.008-4.779c-6.324-1.859-12.791-3.904-11.848-7.492"/>
						<path fill="#4D4D4D" stroke="#4D4D4D" stroke-width="0.3925" stroke-miterlimit="10" d="M468.009,233.635
							c-3.539,9.184,15.777,5.258,22.465,10.813c-6.379-5.297-25.066-1.174-21.77-9.73"/>
						<path fill="#4D4D4D" stroke="#4D4D4D" stroke-width="0.3925" stroke-miterlimit="10" d="M474.993,232.576
							c1.207,4.67,17.426,1.945,21.209,1.646c-4.021,0.205-19.133,2.086-20.307-2.559"/>
						<path fill="#4D4D4D" stroke="#4D4D4D" stroke-width="0.3925" stroke-miterlimit="10" d="M471.481,232.684
							c-0.455,9.836,17.426,4.945,25.473,6.578c-8.184-2.678-23.785,3.369-24.467-5.77"/>
					</g>
				</g>
			</g>
		</g>
		<path fill="none" stroke="#FBB03B" stroke-width="0.5" stroke-miterlimit="10" d="M428.117,162.898"/>
		<path fill="none" stroke="#000000" stroke-width="0.5" stroke-miterlimit="10" d="M453.138,220.078"/>
		<path fill="none" stroke="#000000" stroke-width="0.5" stroke-miterlimit="10" d="M418.873,242.08"/>
		<g>
			<polygon opacity="0.5" fill="#E0B53A" points="565.985,162.105 496.644,195.148 428.117,162.898 497.458,129.855 			"/>
			<polygon opacity="0.5" fill="#E0B53A" points="565.985,238.299 496.644,271.342 496.644,195.152 565.985,162.105 			"/>
			<g>
				<g>
					<g>
						<g opacity="0.5">
							<polygon fill="#E0B53A" points="407.441,232.752 407.441,244.182 417.72,249.018 417.72,237.592 							"/>
						</g>
						<path fill="#E0B53A" d="M417.72,249.018"/>
						<path fill="#E0B53A" d="M407.441,232.752"/>
						<path fill="#E0B53A" d="M417.72,237.592"/>
						<path fill="#E0B53A" d="M407.441,244.182"/>
					</g>
					<path fill="#E0B53A" d="M412.582,240.885"/>
				</g>
			</g>
			<polygon opacity="0.5" fill="#E0B53A" points="417.72,249.018 496.644,271.342 496.644,195.152 417.72,237.592 			"/>
			<polygon opacity="0.5" fill="#E0B53A" points="407.441,232.752 428.117,162.898 496.644,195.152 417.72,237.592 			"/>
		</g>
		<g>
			
				<line fill="none" stroke="#FFD91C" stroke-width="0.5" stroke-miterlimit="10" x1="417.72" y1="237.592" x2="496.644" y2="195.152"/>
			<g>
				<g>
					
						<line fill="none" stroke="#FFD91C" stroke-width="0.5" stroke-miterlimit="10" x1="496.644" y1="195.152" x2="496.644" y2="271.342"/>
					
						<line fill="none" stroke="#FFD91C" stroke-width="0.5" stroke-miterlimit="10" x1="496.644" y1="195.152" x2="428.117" y2="162.898"/>
					
						<line fill="none" stroke="#FFD91C" stroke-width="0.5" stroke-miterlimit="10" x1="565.985" y1="162.105" x2="496.644" y2="195.152"/>
				</g>
			</g>
			
				<line fill="none" stroke="#FFD91C" stroke-width="0.5" stroke-miterlimit="10" x1="407.441" y1="232.752" x2="417.72" y2="237.592"/>
			
				<line fill="none" stroke="#FFD91C" stroke-width="0.5" stroke-miterlimit="10" x1="417.72" y1="237.592" x2="417.72" y2="249.018"/>
		</g>
	</g>
	<g>
		<g>
			<g>
				<path fill="#FFFFFF" d="M124.111,396.39c-5.63,2.683-5.619,7.051,0.023,9.706l124.699,58.686
					c5.643,2.655,14.865,2.633,20.495-0.05l202.822-96.65c5.631-2.683,5.617-7.046-0.027-9.695l-124.878-58.615
					c-5.645-2.649-14.87-2.622-20.5,0.061L124.111,396.39z"/>
			</g>
			<g>
				<g>
					<path fill="#6ABAE3" d="M326.746,299.831c5.63-2.683,14.854-2.71,20.5-0.061l124.877,58.615
						c5.646,2.649,5.658,7.013,0.029,9.695l-202.823,96.65c-5.63,2.683-14.853,2.705-20.495,0.05l-124.699-58.686
						c-5.643-2.655-5.653-7.023-0.023-9.706L326.746,299.831z"/>
				</g>
			</g>
			<g>
				<path fill="none" stroke="#000000" stroke-miterlimit="10" d="M124.111,396.39c-5.63,2.683-5.619,7.051,0.023,9.706
					l124.699,58.686c5.643,2.655,14.865,2.633,20.495-0.05l202.822-96.65c5.631-2.683,5.617-7.046-0.027-9.695l-124.878-58.615
					c-5.645-2.649-14.87-2.622-20.5,0.061L124.111,396.39z"/>
			</g>
		</g>
		<polyline fill="#6ABAE3" points="119.806,401.27 119.806,322 476.407,284.08 476.407,363.35 		"/>
		<g>
			<line fill="none" stroke="#000000" stroke-miterlimit="10" x1="119.806" y1="322" x2="119.806" y2="401.27"/>
			<line fill="none" stroke="#000000" stroke-miterlimit="10" x1="476.407" y1="284.08" x2="476.407" y2="363.35"/>
			<line fill="none" x1="119.806" y1="322" x2="476.407" y2="284.08"/>
		</g>
	</g>
	<polyline fill="#CCCCCC" stroke="#666666" stroke-miterlimit="10" points="740.499,284.08 507.972,276.836 757.888,272.9 	"/>
	<g>
		<path fill="#FFFFFF" d="M124.111,316.06c-5.63,2.683-5.619,7.051,0.023,9.706l124.699,58.686
			c5.643,2.655,14.865,2.633,20.495-0.05l202.822-96.651c5.631-2.683,5.617-7.045-0.027-9.695l-124.878-58.614
			c-5.645-2.65-14.87-2.623-20.5,0.06L124.111,316.06z"/>
	</g>
	<g>
		<g>
			<path fill="#6ABAE3" d="M326.746,219.5c5.63-2.683,14.854-2.709,20.5-0.06l124.877,58.614c5.646,2.65,5.658,7.013,0.029,9.696
				l-202.823,96.65c-5.63,2.683-14.853,2.705-20.495,0.05l-124.699-58.686c-5.643-2.655-5.653-7.023-0.023-9.706L326.746,219.5z
				 M141.229,314.155c-5.63,2.683-5.619,7.051,0.023,9.706l111.498,52.471c5.643,2.655,14.865,2.633,20.495-0.05l189.885-90.485
				c5.629-2.683,5.619-7.05-0.024-9.706l-111.497-52.471c-5.643-2.655-14.865-2.633-20.495,0.049L141.229,314.155z"/>
		</g>
	</g>
	<g>
		<path fill="none" stroke="#000000" stroke-miterlimit="10" d="M141.229,314.155c-5.63,2.683-5.619,7.051,0.023,9.706
			l111.498,52.471c5.643,2.655,14.865,2.633,20.495-0.05l189.884-90.485c5.631-2.683,5.619-7.05-0.023-9.706L351.61,223.621
			c-5.643-2.655-14.866-2.633-20.496,0.049L141.229,314.155z"/>
	</g>
	<g>
		<path fill="none" stroke="#000000" stroke-miterlimit="10" d="M124.111,316.06c-5.63,2.683-5.619,7.051,0.023,9.706
			l124.699,58.686c5.643,2.655,14.865,2.633,20.495-0.05l202.822-96.651c5.631-2.683,5.617-7.045-0.027-9.695l-124.878-58.614
			c-5.645-2.65-14.87-2.623-20.5,0.06L124.111,316.06z"/>
	</g>
	<g>
		<path fill="#BFFFFF" d="M141.229,314.155c-5.63,2.683-5.619,7.051,0.023,9.706l111.498,52.471
			c5.643,2.655,14.865,2.633,20.495-0.05l189.884-90.485c5.631-2.683,5.619-7.05-0.023-9.706L351.61,223.621
			c-5.643-2.655-14.866-2.633-20.496,0.049L141.229,314.155z"/>
		<path fill="none" stroke="#29ABE2" stroke-miterlimit="10" d="M141.229,314.155c-5.63,2.683-5.619,7.051,0.023,9.706
			l111.498,52.471c5.643,2.655,14.865,2.633,20.495-0.05l189.884-90.485c5.631-2.683,5.619-7.05-0.023-9.706L351.61,223.621
			c-5.643-2.655-14.866-2.633-20.496,0.049L141.229,314.155z"/>
	</g>
	<g opacity="0.95">
		<polygon fill="#FFFFFF" stroke="#29ABE2" stroke-width="0.2" stroke-miterlimit="10" points="392.172,338.957 532.524,272.078 
			327.207,258.045 186.854,324.924 		"/>
		<polygon fill="#FFFFFF" stroke="#29ABE2" stroke-width="0.2" stroke-miterlimit="10" points="392.172,336.441 532.524,269.563 
			408.31,261.072 327.207,255.529 186.854,322.408 		"/>
		<polygon fill="#FFFFFF" stroke="#29ABE2" stroke-width="0.2" stroke-miterlimit="10" points="392.172,336.441 267.961,327.951 
			186.854,322.408 186.854,324.924 392.172,338.957 		"/>
		<polygon fill="#FFFFFF" stroke="#29ABE2" stroke-width="0.2" stroke-miterlimit="10" points="532.524,272.078 392.172,338.957 
			392.172,336.441 532.524,269.563 		"/>
		<polygon fill="#BFFFFF" stroke="#29ABE2" stroke-width="0.2" stroke-miterlimit="10" points="327.207,255.529 408.31,261.072 
			267.961,327.951 186.854,322.408 		"/>
		<polygon fill="#EBFFFF" stroke="#29ABE2" stroke-width="0.2" stroke-miterlimit="10" points="532.524,269.563 392.172,336.441 
			267.961,327.951 408.31,261.072 		"/>
		<polygon opacity="0.3" points="441.97,272.9 343.724,319.715 365.12,321.18 463.366,274.363 		"/>
		<polygon opacity="0.3" points="479.644,274.617 381.397,321.432 402.792,322.896 501.04,276.08 		"/>
		<polygon opacity="0.3" points="407.851,270.371 309.604,317.186 331,318.65 429.248,271.834 		"/>
	</g>
	<polyline fill="#CCCCCC" stroke="#666666" stroke-miterlimit="10" points="747.745,241.4 507.972,272.9 710.067,229.76 	"/>
	<polygon fill="#FFFFFF" stroke="#CCCCCC" stroke-width="0.5" stroke-miterlimit="10" points="426.496,255.857 393.847,240.688 
		390.125,242.436 422.773,257.605 	"/>
	<polygon opacity="0.3" points="415.341,250.682 404.458,245.625 323.509,284.199 334.327,289.289 	"/>
</g>
</svg>
