<?xml version="1.0" encoding="utf-8"?>
<!-- Generator: Adobe Illustrator 15.0.0, SVG Export Plug-In . SVG Version: 6.00 Build 0)  -->
<!DOCTYPE svg PUBLIC "-//W3C//DTD SVG 1.1//EN" "http://www.w3.org/Graphics/SVG/1.1/DTD/svg11.dtd">
<svg version="1.1" id="レイヤー_1" xmlns="http://www.w3.org/2000/svg" xmlns:xlink="http://www.w3.org/1999/xlink" x="0px"
	 y="0px" width="841.89px" height="595.28px" viewBox="0 0 841.89 595.28" enable-background="new 0 0 841.89 595.28"
	 xml:space="preserve">
<g>
	<g>
		<path fill="none" stroke="#3B9CC9" stroke-width="1.5" stroke-miterlimit="10" d="M403.087,306.527
			c-1.491,0.834-3.21,1.309-5.041,1.309c-5.713,0-10.346-4.633-10.346-10.346c0-5.715,4.633-10.347,10.346-10.347
			c5.715,0,10.347,4.632,10.347,10.347"/>
		<g>
			<path fill="#3B9CC9" d="M406.462,303.511c-2.132,0.784-5.017,1.478-7.19,1.458l3.299,1.871l1.338,3.548
				C404.226,308.238,405.357,305.495,406.462,303.511z"/>
		</g>
	</g>
</g>
<g>
	<g>
		<path fill="none" stroke="#FF00FF" stroke-width="1.5" stroke-miterlimit="10" d="M411.085,303.595
			c-6.45,13.732-7.257,31.63-1.768,46.101"/>
		<g>
			<path fill="#FF00FF" d="M411.116,353.849c-1.557-1.654-3.826-3.564-5.779-4.519l3.787-0.198l2.784-2.576
				C411.229,348.62,411.015,351.579,411.116,353.849z"/>
		</g>
	</g>
</g>
<g>
	<g>
		<g>
			<path fill="none" stroke="#FF00FF" stroke-width="1.5" stroke-miterlimit="10" d="M411.085,291.889
				c-6.45-13.732-7.257-31.63-1.768-46.101"/>
			<g>
				<path fill="#FF00FF" d="M411.116,241.635c-0.101,2.27,0.114,5.229,0.792,7.293l-2.784-2.576l-3.787-0.198
					C407.29,245.2,409.561,243.29,411.116,241.635z"/>
			</g>
		</g>
	</g>
	<g>
		<g>
			<path fill="none" stroke="#00C9FF" stroke-width="1.5" stroke-miterlimit="10" d="M417.96,238.152
				c6.452,13.732,7.259,31.63,1.768,46.102"/>
			<g>
				<path fill="#00C9FF" d="M417.929,288.407c0.101-2.27-0.113-5.229-0.792-7.293l2.784,2.576l3.787,0.198
					C421.755,284.843,419.484,286.752,417.929,288.407z"/>
			</g>
		</g>
	</g>
</g>
<circle fill="#E7800A" stroke="#000000" stroke-width="0.4965" stroke-miterlimit="10" cx="414.523" cy="232.047" r="9.058"/>
<g>
	<g>
		<path fill="none" stroke="#00C9FF" stroke-width="1.5" stroke-miterlimit="10" d="M417.96,357.332
			c6.452-13.735,7.259-31.632,1.768-46.103"/>
		<g>
			<path fill="#00C9FF" d="M417.929,307.076c1.557,1.654,3.827,3.564,5.78,4.518l-3.788,0.199l-2.783,2.576
				C417.816,312.305,418.03,309.346,417.929,307.076z"/>
		</g>
	</g>
</g>
<circle fill="#3B9CC9" stroke="#000000" stroke-width="0.4965" stroke-miterlimit="10" cx="414.523" cy="297.488" r="9.058"/>
<circle fill="#E57FC6" stroke="#000000" stroke-width="0.4965" stroke-miterlimit="10" cx="414.523" cy="363.437" r="9.058"/>
<text transform="matrix(1 0 0 1 425.417 234.7617)" font-family="'ArialMT'" font-size="10.0852">Q1Q2</text>
<text transform="matrix(1 0 0 1 425.417 366.6602)" font-family="'ArialMT'" font-size="10.0852">Q3Q4</text>
<text transform="matrix(1 0 0 1 425.417 301.0977)" font-family="'ArialMT'" font-size="10.0852">Q1-4</text>
<g>
	<path fill="none" d="M408.394,297.49"/>
</g>
<g>
	
		<text transform="matrix(1 0 0 1 420.6733 267.3965)" fill="#FFFFFF" stroke="#FFFFFF" stroke-width="1.5" stroke-linecap="round" stroke-linejoin="round" stroke-miterlimit="10" font-family="'Arial-BoldMT'" font-size="10.0852">9</text>
	
		<text transform="matrix(1 0 0 1 402.7651 267.3965)" fill="#FFFFFF" stroke="#FFFFFF" stroke-width="1.5" stroke-linecap="round" stroke-linejoin="round" stroke-miterlimit="10" font-family="'Arial-BoldMT'" font-size="10.0852">1</text>
	
		<text transform="matrix(1 0 0 1 402.7642 333.1992)" fill="#FFFFFF" stroke="#FFFFFF" stroke-width="1.5" stroke-linecap="round" stroke-linejoin="round" stroke-miterlimit="10" font-family="'Arial-BoldMT'" font-size="10.0852">8</text>
	
		<text transform="matrix(1 0 0 1 420.6733 333.1992)" fill="#FFFFFF" stroke="#FFFFFF" stroke-width="1.5" stroke-linecap="round" stroke-linejoin="round" stroke-miterlimit="10" font-family="'Arial-BoldMT'" font-size="10.0852">9</text>
	
		<text transform="matrix(1 0 0 1 384.6997 300.0664)" fill="#FFFFFF" stroke="#FFFFFF" stroke-width="1.5" stroke-linecap="round" stroke-linejoin="round" stroke-miterlimit="10" font-family="'Arial-BoldMT'" font-size="10.0852">6</text>
</g>
<g>
	<text transform="matrix(1 0 0 1 420.6733 267.3965)" fill="#666666" font-family="'Arial-BoldMT'" font-size="10.0852">9</text>
	<text transform="matrix(1 0 0 1 402.7651 267.3965)" fill="#666666" font-family="'Arial-BoldMT'" font-size="10.0852">1</text>
	<text transform="matrix(1 0 0 1 402.7642 333.1992)" fill="#666666" font-family="'Arial-BoldMT'" font-size="10.0852">8</text>
	<text transform="matrix(1 0 0 1 420.6733 333.1992)" fill="#666666" font-family="'Arial-BoldMT'" font-size="10.0852">9</text>
	<text transform="matrix(1 0 0 1 384.6997 300.0664)" fill="#666666" font-family="'Arial-BoldMT'" font-size="10.0852">6</text>
</g>
</svg>
