<?xml version="1.0" encoding="utf-8"?>
<!-- Generator: Adobe Illustrator 15.0.0, SVG Export Plug-In . SVG Version: 6.00 Build 0)  -->
<!DOCTYPE svg PUBLIC "-//W3C//DTD SVG 1.1//EN" "http://www.w3.org/Graphics/SVG/1.1/DTD/svg11.dtd">
<svg version="1.1" id="レイヤー_1" xmlns="http://www.w3.org/2000/svg" xmlns:xlink="http://www.w3.org/1999/xlink" x="0px"
	 y="0px" width="841.89px" height="595.28px" viewBox="0 0 841.89 595.28" enable-background="new 0 0 841.89 595.28"
	 xml:space="preserve">
<g>
	<g>
		<g>
			<path fill="none" stroke="#808080" stroke-width="1.5" stroke-miterlimit="10" d="M562.505,304.852
				c-5.689-12.114-6.461-27.858-1.748-40.693"/>
			<g>
				<path fill="#808080" d="M562.532,259.994c-0.091,2.27,0.137,5.228,0.825,7.289l-2.796-2.563l-3.788-0.182
					C558.723,263.576,560.983,261.656,562.532,259.994z"/>
			</g>
		</g>
	</g>
	<g>
		<g>
			<path fill="none" stroke="#808080" stroke-width="1.5" stroke-miterlimit="10" d="M562.505,315.301
				c-5.689,12.114-6.461,27.858-1.748,40.693"/>
			<g>
				<path fill="#808080" d="M562.532,360.158c-1.549-1.662-3.811-3.582-5.76-4.544l3.789-0.182l2.795-2.563
					C562.669,354.931,562.441,357.889,562.532,360.158z"/>
			</g>
		</g>
	</g>
	<g>
		<g>
			<path fill="none" stroke="#808080" stroke-width="1.5" stroke-miterlimit="10" d="M570.45,262.021
				c10.8,10.207,17.983,28.354,17.983,49.035c0,22.824-14.99,48.273-27.688,57.66"/>
			<g>
				<path fill="#808080" d="M566.985,259.113c1.102,1.986,2.229,4.73,2.543,6.881l1.343-3.547l3.302-1.866
					C572,260.598,569.116,259.9,566.985,259.113z"/>
			</g>
		</g>
	</g>
	<g>
		<g>
			<path fill="none" stroke="#808080" stroke-width="1.5" stroke-miterlimit="10" d="M573.722,361.802
				c14.882-10.359,24.841-29.277,24.841-50.894c0-23.422-18.632-49.838-35.604-59.473"/>
			<g>
				<path fill="#808080" d="M569.893,364.215c2.219-0.49,5.17-0.788,7.32-0.476l-3.017-2.299l-0.848-3.696
					C572.745,359.832,571.255,362.397,569.893,364.215z"/>
			</g>
		</g>
	</g>
	<g>
		<g>
			<path fill="none" stroke="#808080" stroke-width="1.5" stroke-miterlimit="10" d="M563.413,256.885
				c5.691,12.114,6.462,27.859,1.748,40.695"/>
			<g>
				<path fill="#808080" d="M563.386,301.744c0.091-2.27-0.137-5.228-0.825-7.289l2.796,2.563l3.788,0.182
					C567.196,298.162,564.935,300.082,563.386,301.744z"/>
			</g>
		</g>
	</g>
	<g>
		<g>
			<path fill="none" stroke="#808080" stroke-width="1.5" stroke-miterlimit="10" d="M563.413,363.268
				c5.691-12.116,6.462-27.86,1.749-40.695"/>
			<g>
				<path fill="#808080" d="M563.386,318.408c1.549,1.661,3.811,3.581,5.76,4.544l-3.789,0.182l-2.794,2.563
					C563.25,323.636,563.477,320.678,563.386,318.408z"/>
			</g>
		</g>
	</g>
</g>
<g>
	<g opacity="0.4">
		<g>
			<g>
				<path fill="none" stroke="#808080" stroke-width="1.5" stroke-miterlimit="10" d="M311.348,279.982
					c-15.122-1.059-31.128-9.068-41.079-20.905"/>
				<g>
					<path fill="#808080" d="M267.519,255.482c1.933,1.194,4.621,2.449,6.754,2.863l-3.606,1.175l-2.02,3.21
						C268.767,260.561,268.205,257.647,267.519,255.482z"/>
				</g>
			</g>
		</g>
		<g>
			<g>
				<path fill="none" stroke="#808080" stroke-width="1.5" stroke-miterlimit="10" d="M311.348,281.605
					c-15.122,1.06-31.128,9.07-41.079,20.907"/>
				<g>
					<path fill="#808080" d="M267.519,306.107c0.686-2.166,1.248-5.079,1.128-7.249l2.02,3.211l3.606,1.175
						C272.139,303.658,269.451,304.913,267.519,306.107z"/>
				</g>
			</g>
		</g>
		<g>
			<g>
				<path fill="none" stroke="#808080" stroke-width="1.5" stroke-miterlimit="10" d="M311.348,340.168
					c-15.122,1.06-31.128,9.07-41.079,20.907"/>
				<g>
					<path fill="#808080" d="M267.519,364.67c0.686-2.166,1.248-5.079,1.128-7.249l2.02,3.211l3.606,1.175
						C272.139,362.221,269.451,363.476,267.519,364.67z"/>
				</g>
			</g>
		</g>
		<g>
			<g>
				<path fill="none" stroke="#808080" stroke-width="1.5" stroke-miterlimit="10" d="M311.348,338.547
					c-15.122-1.06-31.128-9.07-41.079-20.907"/>
				<g>
					<path fill="#808080" d="M267.519,314.045c1.933,1.194,4.621,2.449,6.754,2.863l-3.606,1.175l-2.02,3.21
						C268.767,319.123,268.205,316.21,267.519,314.045z"/>
				</g>
			</g>
		</g>
	</g>
	<g>
		<g>
			<path fill="none" stroke="#808080" stroke-width="1.5" stroke-miterlimit="10" d="M264.961,252.926
				c15.121,1.06,31.128,9.07,41.078,20.907"/>
			<g>
				<path fill="#808080" d="M308.789,277.428c-1.933-1.194-4.621-2.449-6.754-2.863l3.606-1.175l2.02-3.21
					C307.542,272.35,308.103,275.263,308.789,277.428z"/>
			</g>
		</g>
	</g>
	<g>
		<g>
			<path fill="none" stroke="#808080" stroke-width="1.5" stroke-miterlimit="10" d="M264.961,367.227
				c15.121-1.06,31.128-9.07,41.078-20.907"/>
			<g>
				<path fill="#808080" d="M308.789,342.725c-0.686,2.166-1.247,5.079-1.128,7.249l-2.02-3.211l-3.606-1.175
					C304.169,345.174,306.857,343.919,308.789,342.725z"/>
			</g>
		</g>
	</g>
	<g>
		<g>
			<path fill="none" stroke="#808080" stroke-width="1.5" stroke-miterlimit="10" d="M260.596,256.885
				c5.691,12.114,6.462,27.859,1.749,40.695"/>
			<g>
				<path fill="#808080" d="M260.568,301.744c0.09-2.27-0.137-5.228-0.825-7.289l2.795,2.563l3.788,0.182
					C264.378,298.162,262.117,300.082,260.568,301.744z"/>
			</g>
		</g>
	</g>
	<g>
		<g>
			<path fill="none" stroke="#808080" stroke-width="1.5" stroke-miterlimit="10" d="M260.596,363.268
				c5.691-12.116,6.462-27.86,1.749-40.695"/>
			<g>
				<path fill="#808080" d="M260.568,318.408c1.549,1.661,3.811,3.581,5.76,4.544l-3.789,0.182l-2.795,2.563
					C260.432,323.636,260.66,320.678,260.568,318.408z"/>
			</g>
		</g>
	</g>
	<g>
		<g>
			<path fill="none" stroke="#808080" stroke-width="1.5" stroke-miterlimit="10" d="M264.961,308.662
				c15.121-1.059,31.128-9.068,41.078-20.905"/>
			<g>
				<path fill="#808080" d="M308.789,284.162c-0.686,2.166-1.247,5.079-1.128,7.249l-2.02-3.211l-3.606-1.175
					C304.169,286.611,306.857,285.356,308.789,284.162z"/>
			</g>
		</g>
	</g>
	<g>
		<g>
			<path fill="none" stroke="#808080" stroke-width="1.5" stroke-miterlimit="10" d="M264.961,311.488
				c15.121,1.06,31.128,9.07,41.078,20.907"/>
			<g>
				<path fill="#808080" d="M308.789,335.99c-1.933-1.194-4.621-2.449-6.754-2.863l3.606-1.175l2.02-3.21
					C307.542,330.912,308.103,333.825,308.789,335.99z"/>
			</g>
		</g>
	</g>
	<g>
		<g>
			<path fill="none" stroke="#808080" stroke-width="1.5" stroke-miterlimit="10" d="M259.688,304.852
				c-5.69-12.114-6.46-27.858-1.749-40.693"/>
			<g>
				<path fill="#808080" d="M259.715,259.994c-0.09,2.27,0.137,5.228,0.825,7.289l-2.795-2.563l-3.788-0.182
					C255.905,263.576,258.167,261.656,259.715,259.994z"/>
			</g>
		</g>
	</g>
	<g>
		<g>
			<path fill="none" stroke="#808080" stroke-width="1.5" stroke-miterlimit="10" d="M259.688,315.301
				c-5.69,12.114-6.46,27.858-1.749,40.693"/>
			<g>
				<path fill="#808080" d="M259.715,360.158c-1.549-1.662-3.811-3.582-5.759-4.544l3.789-0.182l2.795-2.563
					C259.851,354.931,259.624,357.889,259.715,360.158z"/>
			</g>
		</g>
	</g>
</g>
<g>
	<g>
		<g>
			
				<line fill="none" stroke="#F56EBA" stroke-width="1.5" stroke-miterlimit="10" x1="563.452" y1="310.534" x2="626.483" y2="221.093"/>
			<g>
				<path fill="#F56EBA" d="M629.091,217.394c-0.581,2.196-1.001,5.133-0.777,7.295l-2.172-3.109l-3.658-1
					C624.594,220.063,627.219,218.68,629.091,217.394z"/>
			</g>
		</g>
	</g>
	<g>
		<g>
			
				<line fill="none" stroke="#F56EBA" stroke-width="1.5" stroke-miterlimit="10" x1="563.452" y1="310.534" x2="626.466" y2="399.07"/>
			<g>
				<path fill="#F56EBA" d="M629.091,402.758c-1.879-1.277-4.51-2.648-6.623-3.154l3.654-1.018l2.157-3.119
					C628.065,397.63,628.499,400.564,629.091,402.758z"/>
			</g>
		</g>
	</g>
	<g>
		<g>
			
				<line fill="none" stroke="#F56EBA" stroke-width="1.5" stroke-miterlimit="10" x1="563.452" y1="310.534" x2="498.66" y2="221.06"/>
			<g>
				<path fill="#F56EBA" d="M496.005,217.394c1.89,1.262,4.531,2.611,6.648,3.1l-3.646,1.047l-2.132,3.137
					C497.072,222.513,496.614,219.582,496.005,217.394z"/>
			</g>
		</g>
	</g>
	<g>
		<g>
			
				<line fill="none" stroke="#F56EBA" stroke-width="1.5" stroke-miterlimit="10" x1="563.452" y1="310.534" x2="498.677" y2="399.104"/>
			<g>
				<path fill="#F56EBA" d="M496.005,402.758c0.619-2.186,1.091-5.114,0.905-7.28l2.117,3.147l3.641,1.063
					C500.548,400.168,497.899,401.505,496.005,402.758z"/>
			</g>
		</g>
	</g>
</g>
<g>
	<g>
		<g>
			
				<line fill="none" stroke="#F56EBA" stroke-width="1.5" stroke-miterlimit="10" x1="259.402" y1="251.436" x2="319.897" y2="216.758"/>
			<g>
				<path fill="#F56EBA" d="M323.824,214.507c-1.455,1.745-3.077,4.229-3.788,6.282l-0.655-3.736l-2.893-2.451
					C318.621,215.025,321.584,214.881,323.824,214.507z"/>
			</g>
		</g>
	</g>
	<g>
		<g>
			
				<line fill="none" stroke="#F56EBA" stroke-width="1.5" stroke-miterlimit="10" x1="259.402" y1="368.717" x2="319.897" y2="403.393"/>
			<g>
				<path fill="#F56EBA" d="M323.824,405.645c-2.241-0.375-5.204-0.518-7.335-0.094l2.893-2.453l0.654-3.736
					C320.747,401.416,322.369,403.9,323.824,405.645z"/>
			</g>
		</g>
	</g>
	<g>
		<g>
			
				<line fill="none" stroke="#F56EBA" stroke-width="1.5" stroke-miterlimit="10" x1="259.402" y1="251.436" x2="198.907" y2="216.758"/>
			<g>
				<path fill="#F56EBA" d="M194.98,214.507c2.241,0.374,5.204,0.519,7.335,0.093l-2.893,2.453l-0.654,3.736
					C198.058,218.734,196.436,216.251,194.98,214.507z"/>
			</g>
		</g>
	</g>
	<g>
		<g>
			
				<line fill="none" stroke="#F56EBA" stroke-width="1.5" stroke-miterlimit="10" x1="259.402" y1="368.717" x2="198.907" y2="403.393"/>
			<g>
				<path fill="#F56EBA" d="M194.98,405.645c1.455-1.746,3.077-4.229,3.788-6.283l0.655,3.736l2.893,2.453
					C200.184,405.125,197.221,405.27,194.98,405.645z"/>
			</g>
		</g>
	</g>
</g>
<g>
	<g>
		<g>
			
				<line fill="none" stroke="#28A8FF" stroke-width="1.5" stroke-miterlimit="10" x1="562.22" y1="251.436" x2="622.715" y2="216.758"/>
			<g>
				<path fill="#28A8FF" d="M626.642,214.507c-1.455,1.745-3.077,4.229-3.788,6.282l-0.654-3.736l-2.893-2.451
					C621.438,215.025,624.401,214.881,626.642,214.507z"/>
			</g>
		</g>
	</g>
	<g>
		<g>
			
				<line fill="none" stroke="#28A8FF" stroke-width="1.5" stroke-miterlimit="10" x1="562.22" y1="368.717" x2="622.715" y2="403.393"/>
			<g>
				<path fill="#28A8FF" d="M626.642,405.645c-2.241-0.375-5.204-0.518-7.335-0.094l2.893-2.453l0.654-3.736
					C623.564,401.416,625.187,403.9,626.642,405.645z"/>
			</g>
		</g>
	</g>
	<g>
		<g>
			
				<line fill="none" stroke="#28A8FF" stroke-width="1.5" stroke-miterlimit="10" x1="562.22" y1="251.436" x2="501.725" y2="216.758"/>
			<g>
				<path fill="#28A8FF" d="M497.798,214.507c2.241,0.374,5.204,0.519,7.335,0.093l-2.893,2.453l-0.654,3.736
					C500.875,218.734,499.253,216.251,497.798,214.507z"/>
			</g>
		</g>
	</g>
	<g>
		<g>
			
				<line fill="none" stroke="#28A8FF" stroke-width="1.5" stroke-miterlimit="10" x1="562.22" y1="368.717" x2="501.725" y2="403.393"/>
			<g>
				<path fill="#28A8FF" d="M497.798,405.645c1.455-1.746,3.077-4.229,3.788-6.283l0.654,3.736l2.893,2.453
					C503.002,405.125,500.038,405.27,497.798,405.645z"/>
			</g>
		</g>
	</g>
</g>
<g>
	<g>
		<g>
			
				<line fill="none" stroke="#28A8FF" stroke-width="1.5" stroke-miterlimit="10" x1="260.143" y1="310.303" x2="323.329" y2="221.088"/>
			<g>
				<path fill="#28A8FF" d="M325.945,217.394c-0.586,2.194-1.013,5.131-0.794,7.293l-2.165-3.114l-3.656-1.008
					C321.442,220.053,324.07,218.676,325.945,217.394z"/>
			</g>
		</g>
	</g>
	<g>
		<g>
			
				<line fill="none" stroke="#28A8FF" stroke-width="1.5" stroke-miterlimit="10" x1="260.143" y1="309.852" x2="323.329" y2="399.064"/>
			<g>
				<path fill="#28A8FF" d="M325.945,402.758c-1.876-1.281-4.504-2.658-6.616-3.17l3.656-1.01l2.165-3.113
					C324.932,397.627,325.358,400.563,325.945,402.758z"/>
			</g>
		</g>
	</g>
	<g>
		<g>
			
				<line fill="none" stroke="#28A8FF" stroke-width="1.5" stroke-miterlimit="10" x1="258.662" y1="310.303" x2="195.476" y2="221.088"/>
			<g>
				<path fill="#28A8FF" d="M192.859,217.394c1.876,1.281,4.503,2.659,6.616,3.17l-3.656,1.009l-2.165,3.113
					C193.873,222.523,193.446,219.588,192.859,217.394z"/>
			</g>
		</g>
	</g>
	<g>
		<g>
			
				<line fill="none" stroke="#28A8FF" stroke-width="1.5" stroke-miterlimit="10" x1="258.662" y1="309.852" x2="195.476" y2="399.064"/>
			<g>
				<path fill="#28A8FF" d="M192.859,402.758c0.586-2.195,1.013-5.131,0.794-7.293l2.165,3.113l3.656,1.01
					C197.362,400.098,194.735,401.475,192.859,402.758z"/>
			</g>
		</g>
	</g>
</g>
<text transform="matrix(1 0 0 1 208.4619 176.959)" font-family="'Arial-BoldItalicMT'" font-size="12">Mnemiopsis leidyi</text>
<text transform="matrix(1 0 0 1 503.8418 176.959)" font-family="'Arial-BoldItalicMT'" font-size="12">Platynereis dumerilii</text>
<circle fill="#28A8FF" stroke="#000000" stroke-width="0.5" stroke-miterlimit="10" cx="562.548" cy="251.436" r="8.085"/>
<g>
	<polygon fill="#B6B6B6" stroke="#000000" stroke-width="0.4094" stroke-miterlimit="10" points="630.973,218.994 626.479,211.211 
		630.973,203.428 639.96,203.428 644.453,211.211 639.96,218.994 	"/>
	<polygon fill="#B6B6B6" stroke="#000000" stroke-width="0.4094" stroke-miterlimit="10" points="630.973,417.639 626.479,409.857 
		630.973,402.074 639.959,402.074 644.453,409.857 639.959,417.639 	"/>
	<polygon fill="#B6B6B6" stroke="#000000" stroke-width="0.4094" stroke-miterlimit="10" points="494.453,218.994 498.946,211.211 
		494.453,203.428 485.466,203.428 480.972,211.211 485.466,218.994 	"/>
	<polygon fill="#B6B6B6" stroke="#000000" stroke-width="0.4094" stroke-miterlimit="10" points="494.453,417.639 498.946,409.857 
		494.453,402.074 485.465,402.074 480.972,409.857 485.465,417.639 	"/>
</g>
<circle fill="#F56EBA" stroke="#000000" stroke-width="0.5" stroke-miterlimit="10" cx="563.452" cy="310.533" r="8.085"/>
<circle fill="#28A8FF" stroke="#000000" stroke-width="0.5" stroke-miterlimit="10" cx="562.548" cy="368.717" r="8.085"/>
<text transform="matrix(1 0 0 1 646.501 204.1113)"><tspan x="0" y="0" fill="#666666" font-family="'ArialMT'" font-size="10">ciliary band</tspan><tspan x="0" y="12" fill="#666666" font-family="'ArialMT'" font-size="10">(left dorsal)</tspan></text>
<text transform="matrix(1 0 0 1 534.0566 214.166)"><tspan x="0" y="0" fill="#1E83BA" font-family="'ArialMT'" font-size="10">serotonergic </tspan><tspan x="13.334" y="11" fill="#1E83BA" font-family="'ArialMT'" font-size="10">neuron</tspan><tspan x="18.903" y="22" fill="#1E83BA" font-family="'ArialMT'" font-size="10">(left)</tspan></text>
<text transform="matrix(1 0 0 1 500.9248 306.1074)"><tspan x="0" y="0" fill="#C45F9B" font-family="'ArialMT'" font-size="10">cholinergic</tspan><tspan x="16.665" y="11" fill="#C45F9B" font-family="'ArialMT'" font-size="10">neuron</tspan></text>
<g>
	<polyline fill="none" stroke="#E7A20A" stroke-width="1.5" stroke-miterlimit="10" points="317.762,280.867 314.927,282.814 
		317.762,284.76 314.927,286.705 317.762,288.645 314.927,290.586 317.762,292.527 314.927,294.473 317.762,296.42 314.927,298.364 
		317.762,300.307 314.927,302.252 317.762,304.198 314.927,306.145 317.762,308.09 314.927,310.037 317.762,311.986 
		314.927,313.932 317.762,315.881 314.927,317.828 317.762,319.777 314.927,321.727 317.762,323.676 314.927,325.625 
		317.762,327.57 314.927,329.52 317.762,331.471 314.927,333.422 317.762,335.373 314.927,337.328 317.762,339.283 	"/>
</g>
<polygon fill="#B6B6B6" stroke="#000000" stroke-width="0.4094" stroke-miterlimit="10" points="327.662,219.677 323.168,211.895 
	327.662,204.111 336.649,204.111 341.143,211.895 336.649,219.677 "/>
<polygon fill="#B6B6B6" stroke="#000000" stroke-width="0.4094" stroke-miterlimit="10" points="327.662,418.322 323.168,410.541 
	327.662,402.758 336.649,402.758 341.143,410.541 336.649,418.322 "/>
<polygon fill="#B6B6B6" stroke="#000000" stroke-width="0.4094" stroke-miterlimit="10" points="191.143,219.677 195.636,211.895 
	191.143,204.111 182.155,204.111 177.662,211.895 182.155,219.677 "/>
<polygon fill="#B6B6B6" stroke="#000000" stroke-width="0.4094" stroke-miterlimit="10" points="191.143,418.322 195.636,410.541 
	191.143,402.758 182.155,402.758 177.662,410.541 182.155,418.322 "/>
<circle fill="#E7A20A" stroke="#000000" stroke-width="0.4432" stroke-miterlimit="10" cx="316.345" cy="280.869" r="8.085"/>
<circle fill="#E7A20A" stroke="#000000" stroke-width="0.4432" stroke-miterlimit="10" cx="316.345" cy="339.283" r="8.085"/>
<circle fill="#F56EBA" stroke="#000000" stroke-width="0.5" stroke-miterlimit="10" cx="260.142" cy="251.436" r="8.085"/>
<circle fill="#28A8FF" stroke="#000000" stroke-width="0.5" stroke-miterlimit="10" cx="260.142" cy="309.85" r="8.085"/>
<circle fill="#F56EBA" stroke="#000000" stroke-width="0.5" stroke-miterlimit="10" cx="260.142" cy="368.717" r="8.085"/>
<text transform="matrix(1 0 0 1 344.5547 206.4648)"><tspan x="0" y="0" fill="#231815" font-family="'ArialMT'" font-size="10">balancer cilia</tspan><tspan x="0" y="12" fill="#231815" font-family="'ArialMT'" font-size="10">(Q1)</tspan></text>
<g>
	<text transform="matrix(1 0 0 1 247.7827 214.166)"><tspan x="0" y="0" fill="#C45F9B" font-family="'ArialMT'" font-size="10">typeA</tspan><tspan x="-13.333" y="13" fill="#C45F9B" font-family="'ArialMT'" font-size="10">(ANN_Q12)</tspan></text>
</g>
<g>
	<text transform="matrix(1 0 0 1 216.8442 304.8516)"><tspan x="0" y="0" fill="#1E83BA" font-family="'ArialMT'" font-size="10">typeB</tspan><tspan x="-29.995" y="13" fill="#1E83BA" font-family="'ArialMT'" font-size="10">(ANN_Q1-4)</tspan></text>
</g>
<text transform="matrix(1 0 0 1 328.6533 284.1621)" fill="#231815" font-family="'ArialMT'" font-size="10">bridge</text>
<g>
	<g>
		<polyline fill="none" stroke="#E7A20A" stroke-width="1.5" stroke-miterlimit="10" points="393.777,362.905 392.585,361.661 
			391.396,362.905 390.207,361.661 389.019,362.905 387.83,361.661 386.642,362.905 385.45,361.661 384.258,362.905 
			383.067,361.661 381.878,362.905 380.688,361.661 379.495,362.905 378.304,361.661 377.112,362.905 375.921,361.661 
			374.728,362.905 373.535,361.661 372.343,362.905 371.154,361.661 369.961,362.905 368.771,361.661 367.579,362.905 
			366.385,361.661 365.192,362.905 363.998,361.661 362.802,362.905 361.608,361.661 360.412,362.905 359.213,361.661 
			358.014,362.905 		"/>
	</g>
	<g>
		<g>
			
				<line fill="none" stroke="#28A8FF" stroke-width="1.5" stroke-miterlimit="10" x1="358.014" y1="344.29" x2="389.251" y2="344.29"/>
			<g>
				<path fill="#28A8FF" d="M393.777,344.29c-2.13,0.789-4.772,2.139-6.41,3.566l1.29-3.566l-1.29-3.566
					C389.005,342.151,391.647,343.5,393.777,344.29z"/>
			</g>
		</g>
	</g>
	<g>
		<g>
			
				<line fill="none" stroke="#F56EBA" stroke-width="1.5" stroke-miterlimit="10" x1="358.014" y1="326.296" x2="389.251" y2="326.296"/>
			<g>
				<path fill="#F56EBA" d="M393.777,326.296c-2.13,0.79-4.772,2.139-6.41,3.566l1.29-3.566l-1.29-3.566
					C389.005,324.157,391.647,325.506,393.777,326.296z"/>
			</g>
		</g>
	</g>
	<text transform="matrix(1 0 0 1 403.123 330.4424)" fill="#231815" font-family="'ArialMT'" font-size="10">For arrest</text>
	<text transform="matrix(1 0 0 1 403.123 347.6074)"><tspan x="0" y="0" fill="#231815" font-family="'ArialMT'" font-size="10">For rebeat or CBF</tspan><tspan x="80.581" y="0.219" fill="#231815" font-family="'KozGoPro-Regular-90ms-RKSJ-H'" font-size="10">↑</tspan></text>
	<text transform="matrix(1 0 0 1 403.123 366.4297)" fill="#231815" font-family="'ArialMT'" font-size="10">electrical</text>
</g>
<g>
	<text transform="matrix(1 0 0 1 247.356 390.0527)"><tspan x="0" y="0" fill="#C45F9B" font-family="'ArialMT'" font-size="10">typeA</tspan><tspan x="-13.333" y="13" fill="#C45F9B" font-family="'ArialMT'" font-size="10">(ANN_Q34)</tspan></text>
</g>
<text transform="matrix(1 0 0 1 534.4824 392.4219)"><tspan x="0" y="0" fill="#1E83BA" font-family="'ArialMT'" font-size="10">serotonergic </tspan><tspan x="13.334" y="11" fill="#1E83BA" font-family="'ArialMT'" font-size="10">neuron</tspan><tspan x="15.847" y="22" fill="#1E83BA" font-family="'ArialMT'" font-size="10">(right)</tspan></text>
<text transform="matrix(1 0 0 1 646.501 412.9121)" fill="#666666" font-family="'ArialMT'" font-size="10">(right dorsal)</text>
<text transform="matrix(1 0 0 1 424.8652 214.0078)" fill="#666666" font-family="'ArialMT'" font-size="10">(left ventral)</text>
<text transform="matrix(1 0 0 1 418.7524 412.9121)" fill="#666666" font-family="'ArialMT'" font-size="10">(right ventral)</text>
<text transform="matrix(1 0 0 1 154.8848 214.792)" fill="#231815" font-family="'ArialMT'" font-size="10">(Q2)</text>
<text transform="matrix(1 0 0 1 344.5547 414.6035)" fill="#231815" font-family="'ArialMT'" font-size="10">(Q4)</text>
<text transform="matrix(1 0 0 1 154.8848 414.6035)" fill="#231815" font-family="'ArialMT'" font-size="10">(Q3)</text>
</svg>
