<?xml version="1.0" encoding="utf-8"?>
<!-- Generator: Adobe Illustrator 15.0.0, SVG Export Plug-In . SVG Version: 6.00 Build 0)  -->
<!DOCTYPE svg PUBLIC "-//W3C//DTD SVG 1.1//EN" "http://www.w3.org/Graphics/SVG/1.1/DTD/svg11.dtd">
<svg version="1.1" id="レイヤー_1" xmlns="http://www.w3.org/2000/svg" xmlns:xlink="http://www.w3.org/1999/xlink" x="0px"
	 y="0px" width="841.89px" height="595.28px" viewBox="0 0 841.89 595.28" enable-background="new 0 0 841.89 595.28"
	 xml:space="preserve">
<g>
	<g>
		<path fill="none" stroke="#F0E442" stroke-width="1.5" stroke-miterlimit="10" d="M456.821,184.245
			c-26.609,36.634-34.729,85.078-9.204,122.452"/>
		<g>
			<path fill="#F0E442" d="M450.264,310.371c-1.88-1.274-4.513-2.643-6.627-3.146l3.653-1.021l2.153-3.121
				C449.232,305.244,449.67,308.18,450.264,310.371z"/>
		</g>
	</g>
</g>
<g>
	<g>
		<path fill="none" stroke="#F0E442" stroke-width="1.5" stroke-miterlimit="10" d="M463.381,448.641
			c26.609-36.635,34.729-85.08,9.204-122.453"/>
		<g>
			<path fill="#F0E442" d="M469.938,322.514c1.88,1.274,4.513,2.643,6.627,3.146l-3.653,1.021l-2.153,3.121
				C470.97,327.641,470.532,324.705,469.938,322.514z"/>
		</g>
	</g>
</g>
<g>
	<g>
		<g>
			
				<line fill="none" stroke="#E7800A" stroke-width="1.5" stroke-miterlimit="10" x1="460.043" y1="251.001" x2="389.364" y2="265.893"/>
			<g>
				<path fill="#E7800A" d="M384.936,266.826c1.921-1.212,4.229-3.077,5.537-4.812l-0.526,3.756l1.997,3.224
					C390.046,267.934,387.183,267.16,384.936,266.826z"/>
			</g>
		</g>
	</g>
	<g>
		<g>
			
				<line fill="none" stroke="#3B9CC9" stroke-width="1.5" stroke-miterlimit="10" x1="450.985" y1="316.441" x2="388.047" y2="274.099"/>
			<g>
				<path fill="#3B9CC9" d="M384.291,271.572c2.208,0.533,5.153,0.89,7.31,0.619l-3.062,2.24l-0.92,3.679
					C387.058,276.01,385.617,273.416,384.291,271.572z"/>
			</g>
		</g>
	</g>
	
		<rect x="363.898" y="260.498" transform="matrix(0.7071 -0.7071 0.7071 0.7071 -81.2175 342.3434)" fill="#C9CACA" stroke="#000000" stroke-width="0.5" stroke-miterlimit="10" width="17.407" height="17.407"/>
</g>
<g>
	<g>
		<g>
			
				<line fill="none" stroke="#E57FC6" stroke-width="1.5" stroke-miterlimit="10" x1="460.161" y1="381.885" x2="530.84" y2="366.992"/>
			<g>
				<path fill="#E57FC6" d="M535.269,366.059c-1.921,1.213-4.229,3.077-5.537,4.813l0.526-3.757l-1.997-3.224
					C530.158,364.95,533.021,365.726,535.269,366.059z"/>
			</g>
		</g>
	</g>
	<g>
		<g>
			
				<line fill="none" stroke="#3B9CC9" stroke-width="1.5" stroke-miterlimit="10" x1="469.219" y1="316.443" x2="532.157" y2="358.786"/>
			<g>
				<path fill="#3B9CC9" d="M535.913,361.313c-2.208-0.533-5.153-0.89-7.31-0.619l3.062-2.239l0.92-3.679
					C533.146,356.875,534.587,359.469,535.913,361.313z"/>
			</g>
		</g>
	</g>
	
		<rect x="538.899" y="354.98" transform="matrix(-0.7071 0.7071 -0.7071 -0.7071 1191.974 233.6078)" fill="#C9CACA" stroke="#000000" stroke-width="0.5" stroke-miterlimit="10" width="17.406" height="17.406"/>
</g>
<g>
	<path fill="none" d="M454.03,316.443"/>
</g>
<g>
	<g>
		<path fill="none" stroke="#3B9CC9" stroke-width="1.5" stroke-miterlimit="10" d="M463.665,310.842
			c6.446-13.725,8.239-31.035,2.937-45.397"/>
		<g>
			<path fill="#3B9CC9" d="M464.82,261.282c1.548,1.663,3.809,3.584,5.756,4.548l-3.788,0.18l-2.797,2.561
				C464.681,266.509,464.91,263.551,464.82,261.282z"/>
		</g>
	</g>
</g>
<g>
	<g>
		<path fill="none" stroke="#E7800A" stroke-width="1.5" stroke-miterlimit="10" d="M456.79,257.105
			c-6.447,13.722-7.501,30.408-2.066,44.657"/>
		<g>
			<path fill="#E7800A" d="M456.528,305.916c-1.559-1.652-3.832-3.559-5.786-4.51l3.787-0.205l2.78-2.579
				C456.634,300.688,456.424,303.646,456.528,305.916z"/>
		</g>
	</g>
</g>
<g>
	<g>
		<path fill="none" stroke="#F0E442" stroke-width="1.5" stroke-miterlimit="10" d="M456.788,191.161
			c-6.446,13.724-7.729,30.776-2.336,45.092"/>
		<g>
			<path fill="#F0E442" d="M456.248,240.409c-1.555-1.656-3.822-3.569-5.774-4.524l3.788-0.195l2.786-2.573
				C456.367,235.181,456.149,238.14,456.248,240.409z"/>
		</g>
	</g>
</g>
<g>
	<g>
		<path fill="none" stroke="#E7800A" stroke-width="1.5" stroke-miterlimit="10" d="M463.663,244.897
			c6.456-13.74,7.26-32.791,1.759-47.469"/>
		<g>
			<path fill="#E7800A" d="M463.632,193.269c1.552,1.659,3.817,3.575,5.768,4.534l-3.789,0.189l-2.79,2.568
				C463.505,198.497,463.727,195.538,463.632,193.269z"/>
		</g>
	</g>
</g>
<g>
	<g>
		<path fill="none" stroke="#3B9CC9" stroke-width="1.5" stroke-miterlimit="10" d="M466.354,314.064
			c24.122-36.597,28.481-84.98,5.204-122.339"/>
		<g>
			<path fill="#3B9CC9" d="M469.077,187.938c1.822,1.356,4.392,2.839,6.481,3.436l-3.694,0.859l-2.289,3.023
				C469.882,193.106,469.574,190.155,469.077,187.938z"/>
		</g>
	</g>
</g>
<rect x="451.457" y="173.629" transform="matrix(-0.707 -0.7072 0.7072 -0.707 656.5706 636.6636)" fill="#F0E442" stroke="#000000" stroke-width="0.5" stroke-miterlimit="10" width="17.407" height="17.407"/>
<g>
	<g>
		<g>
			
				<line fill="none" stroke="#E7800A" stroke-width="1.5" stroke-miterlimit="10" x1="460.16" y1="251.001" x2="530.839" y2="265.893"/>
			<g>
				<path fill="#E7800A" d="M535.268,266.826c-2.247,0.334-5.111,1.109-7.008,2.168l1.997-3.224l-0.526-3.755
					C531.038,263.75,533.347,265.614,535.268,266.826z"/>
			</g>
		</g>
	</g>
	<g>
		<g>
			
				<line fill="none" stroke="#3B9CC9" stroke-width="1.5" stroke-miterlimit="10" x1="469.218" y1="316.441" x2="532.156" y2="274.099"/>
			<g>
				<path fill="#3B9CC9" d="M535.912,271.572c-1.326,1.845-2.766,4.438-3.328,6.538l-0.92-3.679l-3.062-2.239
					C530.759,272.462,533.704,272.105,535.912,271.572z"/>
			</g>
		</g>
	</g>
	
		<rect x="538.898" y="260.498" transform="matrix(-0.7071 -0.7071 0.7071 -0.7071 744.4256 846.7805)" fill="#C9CACA" stroke="#000000" stroke-width="0.5" stroke-miterlimit="10" width="17.407" height="17.407"/>
</g>
<circle fill="#E7800A" stroke="#000000" stroke-width="0.5" stroke-miterlimit="10" cx="460.16" cy="251.002" r="9.963"/>
<g>
	<g>
		<path fill="none" stroke="#3B9CC9" stroke-width="1.5" stroke-miterlimit="10" d="M456.537,322.043
			c-6.446,13.725-8.239,31.035-2.937,45.398"/>
		<g>
			<path fill="#3B9CC9" d="M455.382,371.604c-1.548-1.664-3.809-3.584-5.756-4.549l3.788-0.18l2.797-2.561
				C455.521,366.375,455.292,369.334,455.382,371.604z"/>
		</g>
	</g>
</g>
<g>
	<g>
		<path fill="none" stroke="#E57FC6" stroke-width="1.5" stroke-miterlimit="10" d="M463.412,375.779
			c6.447-13.723,7.501-30.408,2.066-44.658"/>
		<g>
			<path fill="#E57FC6" d="M463.674,326.969c1.559,1.652,3.832,3.559,5.786,4.51l-3.787,0.204l-2.78,2.579
				C463.568,332.197,463.778,329.237,463.674,326.969z"/>
		</g>
	</g>
</g>
<g>
	<g>
		<path fill="none" stroke="#F0E442" stroke-width="1.5" stroke-miterlimit="10" d="M463.414,441.725
			c6.446-13.725,7.729-30.777,2.336-45.092"/>
		<g>
			<path fill="#F0E442" d="M463.954,392.477c1.555,1.656,3.823,3.568,5.774,4.523l-3.788,0.195l-2.786,2.572
				C463.835,397.705,464.053,394.746,463.954,392.477z"/>
		</g>
	</g>
</g>
<g>
	<g>
		<path fill="none" stroke="#E57FC6" stroke-width="1.5" stroke-miterlimit="10" d="M456.539,387.988
			c-6.455,13.74-7.26,32.791-1.759,47.469"/>
		<g>
			<path fill="#E57FC6" d="M456.57,439.617c-1.552-1.66-3.817-3.576-5.768-4.535l3.789-0.188l2.79-2.568
				C456.697,434.389,456.476,437.348,456.57,439.617z"/>
		</g>
	</g>
</g>
<g>
	<g>
		<path fill="none" stroke="#3B9CC9" stroke-width="1.5" stroke-miterlimit="10" d="M453.848,318.82
			c-24.122,36.598-28.481,84.98-5.204,122.34"/>
		<g>
			<path fill="#3B9CC9" d="M451.125,444.947c-1.822-1.357-4.392-2.84-6.481-3.438l3.694-0.857l2.289-3.023
				C450.32,439.779,450.628,442.73,451.125,444.947z"/>
		</g>
	</g>
</g>
<rect x="451.338" y="441.848" transform="matrix(0.7071 0.7071 -0.7071 0.7071 453.3566 -193.3348)" fill="#F0E442" stroke="#000000" stroke-width="0.5" stroke-miterlimit="10" width="17.406" height="17.408"/>
<g>
	<g>
		<g>
			
				<line fill="none" stroke="#E57FC6" stroke-width="1.5" stroke-miterlimit="10" x1="460.042" y1="381.885" x2="389.363" y2="366.992"/>
			<g>
				<path fill="#E57FC6" d="M384.935,366.059c2.247-0.334,5.111-1.108,7.008-2.169l-1.997,3.225l0.526,3.756
					C389.164,369.135,386.855,367.271,384.935,366.059z"/>
			</g>
		</g>
	</g>
	<g>
		<g>
			
				<line fill="none" stroke="#3B9CC9" stroke-width="1.5" stroke-miterlimit="10" x1="450.984" y1="316.443" x2="388.046" y2="358.786"/>
			<g>
				<path fill="#3B9CC9" d="M384.29,361.313c1.326-1.845,2.766-4.438,3.328-6.538l0.92,3.68l3.062,2.239
					C389.443,360.423,386.498,360.778,384.29,361.313z"/>
			</g>
		</g>
	</g>
	
		<rect x="363.897" y="354.98" transform="matrix(0.7071 0.7071 -0.7071 0.7071 366.316 -156.9482)" fill="#C9CACA" stroke="#000000" stroke-width="0.5" stroke-miterlimit="10" width="17.406" height="17.406"/>
</g>
<circle fill="#E57FC6" stroke="#000000" stroke-width="0.5" stroke-miterlimit="10" cx="460.042" cy="381.883" r="9.963"/>
<circle fill="#3B9CC9" stroke="#000000" stroke-width="0.5" stroke-miterlimit="10" cx="460.16" cy="316.441" r="9.963"/>
<text transform="matrix(1 0 0 1 537.3887 254.4824)" font-family="'ArialMT'" font-size="10.0852">balancer Q1</text>
<text transform="matrix(1 0 0 1 431.2891 166.2534)" font-family="'ArialMT'" font-size="10.0852">bridge Q1Q2</text>
<text transform="matrix(1 0 0 1 329.252 254.4824)" font-family="'ArialMT'" font-size="10.0852">balancer Q2</text>
<text transform="matrix(1 0 0 1 329.2529 385.5762)" font-family="'ArialMT'" font-size="10.0852">balancer Q3</text>
<text transform="matrix(1 0 0 1 537.3887 385.5762)" font-family="'ArialMT'" font-size="10.0852">balancer Q4</text>
<text transform="matrix(1 0 0 1 431.2891 473.1543)" font-family="'ArialMT'" font-size="10.0852">bridge Q3Q4</text>
<g>
	
		<text transform="matrix(1 0 0 1 466.3105 285.9189)" fill="#FFFFFF" stroke="#FFFFFF" stroke-width="1.5" stroke-linecap="round" stroke-linejoin="round" stroke-miterlimit="10" font-family="'Arial-BoldMT'" font-size="10.0852">9</text>
	
		<text transform="matrix(1 0 0 1 448.4023 285.9189)" fill="#FFFFFF" stroke="#FFFFFF" stroke-width="1.5" stroke-linecap="round" stroke-linejoin="round" stroke-miterlimit="10" font-family="'Arial-BoldMT'" font-size="10.0852">1</text>
	
		<text transform="matrix(1 0 0 1 448.4023 351.7227)" fill="#FFFFFF" stroke="#FFFFFF" stroke-width="1.5" stroke-linecap="round" stroke-linejoin="round" stroke-miterlimit="10" font-family="'Arial-BoldMT'" font-size="10.0852">8</text>
	
		<text transform="matrix(1 0 0 1 466.3105 351.7227)" fill="#FFFFFF" stroke="#FFFFFF" stroke-width="1.5" stroke-linecap="round" stroke-linejoin="round" stroke-miterlimit="10" font-family="'Arial-BoldMT'" font-size="10.0852">9</text>
</g>
<g>
	<text transform="matrix(1 0 0 1 466.3105 285.9189)" fill="#666666" font-family="'Arial-BoldMT'" font-size="10.0852">9</text>
	<text transform="matrix(1 0 0 1 448.4023 285.9189)" fill="#666666" font-family="'Arial-BoldMT'" font-size="10.0852">1</text>
	<text transform="matrix(1 0 0 1 448.4023 351.7227)" fill="#666666" font-family="'Arial-BoldMT'" font-size="10.0852">8</text>
	<text transform="matrix(1 0 0 1 466.3105 351.7227)" fill="#666666" font-family="'Arial-BoldMT'" font-size="10.0852">9</text>
</g>
<text transform="matrix(1 0 0 1 393.2461 247.3086)" fill="#E7800A" font-family="'Arial-BoldMT'" font-size="11">SSN Q1Q2</text>
<text transform="matrix(1 0 0 1 472.4688 392.4746)" fill="#E57FC6" font-family="'Arial-BoldMT'" font-size="11">SSN Q3Q4</text>
<text transform="matrix(1 0 0 1 476.6328 319.9258)" fill="#3B9CC9" font-family="'Arial-BoldMT'" font-size="11">SSN Q1-4</text>
<g>
	
		<text transform="matrix(1 0 0 1 410.0273 264.1597)" fill="#666666" stroke="#FFFFFF" stroke-width="2" stroke-miterlimit="10" font-family="'Arial-BoldMT'" font-size="10.0852">16</text>
	
		<text transform="matrix(1 0 0 1 410.0273 296.8838)" fill="#666666" stroke="#FFFFFF" stroke-width="2" stroke-miterlimit="10" font-family="'Arial-BoldMT'" font-size="10.0852">12</text>
	
		<text transform="matrix(1 0 0 1 412.832 344.8486)" fill="#666666" stroke="#FFFFFF" stroke-width="2" stroke-miterlimit="10" font-family="'Arial-BoldMT'" font-size="10.0852">7</text>
	
		<text transform="matrix(1 0 0 1 412.832 375.9922)" fill="#666666" stroke="#FFFFFF" stroke-width="2" stroke-miterlimit="10" font-family="'Arial-BoldMT'" font-size="10.0852">2</text>
	
		<text transform="matrix(1 0 0 1 496.957 264.1597)" fill="#666666" stroke="#FFFFFF" stroke-width="2" stroke-miterlimit="10" font-family="'Arial-BoldMT'" font-size="10.0852">13</text>
	
		<text transform="matrix(1 0 0 1 499.7598 296.8838)" fill="#666666" stroke="#FFFFFF" stroke-width="2" stroke-miterlimit="10" font-family="'Arial-BoldMT'" font-size="10.0852">8</text>
	
		<text transform="matrix(1 0 0 1 496.958 341.9092)" fill="#666666" stroke="#FFFFFF" stroke-width="2" stroke-miterlimit="10" font-family="'Arial-BoldMT'" font-size="10.0852">19</text>
	
		<text transform="matrix(1 0 0 1 499.7598 375.9922)" fill="#666666" stroke="#FFFFFF" stroke-width="2" stroke-miterlimit="10" font-family="'Arial-BoldMT'" font-size="10.0852">5</text>
	
		<text transform="matrix(1 0 0 1 445.1016 417.0996)" fill="#666666" stroke="#FFFFFF" stroke-width="2" stroke-miterlimit="10" font-family="'Arial-BoldMT'" font-size="10.0852">12</text>
	
		<text transform="matrix(1 0 0 1 466.1719 421.6719)" fill="#666666" stroke="#FFFFFF" stroke-width="2" stroke-miterlimit="10" font-family="'Arial-BoldMT'" font-size="10.0852">6</text>
	
		<text transform="matrix(1 0 0 1 445.1025 219.083)" fill="#666666" stroke="#FFFFFF" stroke-width="2" stroke-miterlimit="10" font-family="'Arial-BoldMT'" font-size="10.0852">17</text>
	
		<text transform="matrix(1 0 0 1 462.2246 222.3403)" fill="#666666" stroke="#FFFFFF" stroke-width="2" stroke-miterlimit="10" font-family="'Arial-BoldMT'" font-size="10.0852">57</text>
	
		<text transform="matrix(1 0 0 1 478.7822 408.5186)" fill="#666666" stroke="#FFFFFF" stroke-width="2" stroke-miterlimit="10" font-family="'Arial-BoldMT'" font-size="10.0852">19</text>
	
		<text transform="matrix(1 0 0 1 484.1064 236.418)" fill="#666666" stroke="#FFFFFF" stroke-width="2" stroke-miterlimit="10" font-family="'Arial-BoldMT'" font-size="10.0852">6</text>
	
		<text transform="matrix(1 0 0 1 427.6875 399.6445)" fill="#666666" stroke="#FFFFFF" stroke-width="2" stroke-miterlimit="10" font-family="'Arial-BoldMT'" font-size="10.0852">30</text>
	
		<text transform="matrix(1 0 0 1 433.1914 229.2344)" fill="#666666" stroke="#FFFFFF" stroke-width="2" stroke-miterlimit="10" font-family="'Arial-BoldMT'" font-size="10.0852">2</text>
</g>
<g>
	<text transform="matrix(1 0 0 1 410.0273 264.1597)" fill="#666666" font-family="'Arial-BoldMT'" font-size="10.0852">16</text>
	<text transform="matrix(1 0 0 1 410.0273 296.8838)" fill="#666666" font-family="'Arial-BoldMT'" font-size="10.0852">12</text>
	<text transform="matrix(1 0 0 1 412.832 344.8486)" fill="#666666" font-family="'Arial-BoldMT'" font-size="10.0852">7</text>
	<text transform="matrix(1 0 0 1 412.832 375.9922)" fill="#666666" font-family="'Arial-BoldMT'" font-size="10.0852">2</text>
	<text transform="matrix(1 0 0 1 496.957 264.1597)" fill="#666666" font-family="'Arial-BoldMT'" font-size="10.0852">13</text>
	<text transform="matrix(1 0 0 1 499.7598 296.8838)" fill="#666666" font-family="'Arial-BoldMT'" font-size="10.0852">8</text>
	<text transform="matrix(1 0 0 1 496.958 341.9092)" fill="#666666" font-family="'Arial-BoldMT'" font-size="10.0852">19</text>
	<text transform="matrix(1 0 0 1 499.7598 375.9922)" fill="#666666" font-family="'Arial-BoldMT'" font-size="10.0852">5</text>
	<text transform="matrix(1 0 0 1 445.1016 417.0996)" fill="#666666" font-family="'Arial-BoldMT'" font-size="10.0852">12</text>
	<text transform="matrix(1 0 0 1 466.1719 421.6719)" fill="#666666" font-family="'Arial-BoldMT'" font-size="10.0852">6</text>
	<text transform="matrix(1 0 0 1 445.1025 219.083)" fill="#666666" font-family="'Arial-BoldMT'" font-size="10.0852">17</text>
	<text transform="matrix(1 0 0 1 462.2246 222.3403)" fill="#666666" font-family="'Arial-BoldMT'" font-size="10.0852">57</text>
	<text transform="matrix(1 0 0 1 478.7822 408.5186)" fill="#666666" font-family="'Arial-BoldMT'" font-size="10.0852">19</text>
	<text transform="matrix(1 0 0 1 484.1064 236.418)" fill="#666666" font-family="'Arial-BoldMT'" font-size="10.0852">6</text>
	<text transform="matrix(1 0 0 1 427.6875 399.6445)" fill="#666666" font-family="'Arial-BoldMT'" font-size="10.0852">30</text>
	<text transform="matrix(1 0 0 1 433.1914 229.2344)" fill="#666666" font-family="'Arial-BoldMT'" font-size="10.0852">2</text>
</g>
</svg>
